<?xml version="1.0" encoding="UTF-8"?><svg xmlns="http://www.w3.org/2000/svg" viewBox="0 0 694.31 423.33"><defs><style>.d{fill:#f4b0b0;}.e{fill:#f7c1c1;}.f{fill:#fcfcfc;}.g{fill:#e94831;}.h{fill:#ef7b6f;}.i{fill:#f39b97;}.j{fill:#93a09d;}.k{fill:#b2b7b6;}.l{fill:#bfbfbf;}.m{fill:#c7c9c9;}.n{fill:#d6d6d6;}.o{fill:#e0e2e2;}.p{fill:none;stroke:#7c7c7c;stroke-miterlimit:10;stroke-width:.5px;}</style></defs><g id="a"><g><g><path class="o" d="M347.34,244.71l-33.27-171.14c11.06-2.15,22-3.2,33.27-3.2V244.71Z"/><path class="n" d="M347.34,244.71l-76.43-156.7c14.54-7.09,27.28-11.35,43.16-14.44l33.27,171.14Z"/><path class="m" d="M347.34,244.71l-121.11-125.41c13.85-13.38,27.37-22.84,44.68-31.29l76.43,156.7Z"/><path class="l" d="M347.34,244.71l-172.2-27.27c6.15-38.8,22.83-70.85,51.09-98.14l121.11,125.41Z"/><path class="k" d="M347.34,244.71l100,142.81c-78.87,55.23-187.59,36.06-242.81-42.81-27.01-38.57-36.75-80.77-29.38-127.27l172.2,27.27Z"/><path class="e" d="M347.34,244.71l131.58,114.38c-9.54,10.97-19.67,20.09-31.58,28.43l-100-142.81Z"/><path class="d" d="M347.34,244.71l160.48,68.12c-7.49,17.64-16.33,31.8-28.91,46.26l-131.58-114.38Z"/><path class="i" d="M347.34,244.71l173.92-12.16c2.06,29.39-1.92,53.16-13.43,80.28l-160.48-68.12Z"/><path class="h" d="M347.34,244.71l141.05-102.48c19.87,27.34,30.51,56.6,32.87,90.32l-173.92,12.16Z"/><path class="g" d="M347.34,244.71V70.37c58.45,0,106.69,24.58,141.05,71.87l-141.05,102.48Z"/></g><circle class="f" cx="347.47" cy="244.99" r="98.91" transform="translate(-71.46 317.45) rotate(-45)"/></g><g><path d="M442.65,74.53c-.32,2.34-.94,5.72-1.76,7.84l-1.48-.62c.86-2.04,1.52-5.16,1.8-7.5l1.44,.28Zm3.24-1.78v9.86c0,.92,.24,1.1,1.38,1.1h3.82c1.24,0,1.42-.7,1.58-4.14,.36,.28,.98,.54,1.4,.66-.22,3.78-.68,4.88-2.9,4.88h-4.02c-2.16,0-2.76-.54-2.76-2.52v-9.84h1.5Zm.42-4.84c1.86,1.28,4.24,3.16,5.38,4.42l-1.06,1.1c-1.1-1.24-3.42-3.2-5.3-4.54l.98-.98Zm8.7,5.82c1.16,2.38,2.26,5.44,2.68,7.5l-1.46,.58c-.4-2.06-1.48-5.2-2.6-7.54l1.38-.54Z"/><path d="M464.47,83.95c0,.68-.14,1.04-.56,1.26-.4,.2-1.06,.24-2.12,.24-.04-.32-.22-.86-.38-1.18,.76,.02,1.44,.02,1.64,0,.22,0,.3-.08,.3-.32v-5.8c-.52,.48-1.04,.94-1.54,1.4l-.48-.9c-.12,2.34-.44,4.88-1.16,6.82-.22-.18-.72-.48-1.02-.58,1.06-2.84,1.14-6.88,1.14-9.76v-7.18h4.18v16Zm-3.04-8.84c0,.94-.02,2.02-.08,3.14,.56-.38,1.26-.88,2-1.44v-2.52l-.66,.46c-.28-.5-.78-1.2-1.26-1.82v2.18Zm0-5.8v3.06l.54-.34c.5,.54,1.02,1.18,1.38,1.72v-4.44h-1.92Zm15.86,6.52c-.44,2.12-1.1,4.02-1.94,5.66,.28,1.6,.66,2.56,1.1,2.58,.24,0,.44-.78,.54-2.14,.22,.26,.64,.56,.86,.66-.32,2.26-.84,2.92-1.4,2.9-.86-.02-1.48-.98-1.94-2.6-.6,.92-1.28,1.76-2.04,2.42-.16-.2-.52-.52-.8-.68,.48-.44,.92-.92,1.34-1.46h-3.86v-8h4.1v.98h-1.32v1.3h1.3v3.44h-1.3v1.3h1.32v.66c.34-.44,.66-.96,.94-1.48-.36-2-.56-4.58-.68-7.46h-5.02v3.96c0,2.3-.16,5.52-1.18,7.66-.24-.18-.76-.44-1.06-.56,.72-1.48,.98-3.36,1.06-5.1h-.86c-.1,1.78-.32,3.4-.92,4.52-.2-.12-.62-.36-.88-.48,.58-1.04,.74-2.48,.82-4.04h-.6v-1.08h2.48v-1.56h-2.02v-4.44h.96v3.34h1.06v-3.44h6.12l-.04-1.1h1.2l.02,1.1h2.96v1.22h-2.92c.06,2.1,.2,4.02,.38,5.6,.5-1.24,.9-2.66,1.18-4.16l1.04,.48Zm-9.28-5.82h-2.84v-1.28h2.84v-1.48h1.34v1.48h1.58v1.28h-1.58v1.64h-1.34v-1.64Zm2.06,6.14v1.3h1v-1.3h-1Zm2.2,2.28h-2.2v1.48h2.2v-1.48Zm-2.2,3.76h1v-1.3h-1v1.3Zm3.4-12.18h-1.76v-1.28h1.76v-1.48h1.34v1.48h2.72v1.28h-2.72v1.38h-1.34v-1.38Zm2.36,.62c.64,.38,1.44,1,1.84,1.42l-.84,.64c-.4-.46-1.16-1.06-1.82-1.5l.82-.56Z"/><path d="M483.93,70.85v4.54c0,3.08-.38,7.32-2.82,10.1-.26-.28-.88-.74-1.24-.9,1.54-1.72,2.16-3.9,2.42-6.02-.88,.56-1.76,1.12-2.56,1.62l-.54-1.34c.82-.4,2-1.08,3.22-1.78,.04-.58,.04-1.16,.04-1.68v-.94l-1.22,.56c-.34-.92-1.16-2.36-1.86-3.44l1.2-.48c.7,1,1.48,2.36,1.88,3.24v-4.84h7.16c-.24-.64-.56-1.44-.84-2.04l1.44-.34c.38,.76,.78,1.7,1.02,2.38h6.26v1.36h-13.56Zm7.54,8.4c-.5,2.18-2.04,4.5-6.44,6.28-.2-.32-.64-.86-.98-1.12,3.9-1.48,5.38-3.38,5.9-5.16h-5.02v-1.36h5.28c.04-.36,.04-.7,.04-1.04v-2.12h-2.58c-.46,1.04-1,1.98-1.56,2.72-.28-.22-.88-.62-1.24-.78,1.16-1.36,2.04-3.44,2.56-5.5l1.4,.3c-.16,.64-.36,1.3-.6,1.92h8.24v1.34h-4.74v2.14c0,.34,0,.66-.04,1.02h5.54v1.36h-5.76Zm1.5,.52c1.56,1.5,3.66,3.56,4.72,4.78l-1.1,.84c-1-1.24-3.06-3.38-4.64-4.9l1.02-.72Z"/><path d="M517.57,69.49v1.34h-13.6v4.58c0,3.1-.42,7.34-3.14,10.08-.22-.28-.78-.8-1.08-1,1.62-1.66,2.3-3.76,2.6-5.8-.9,.54-1.82,1.06-2.64,1.52l-.52-1.36c.9-.36,2.06-1,3.3-1.64,.04-.64,.06-1.24,.06-1.82v-5.9h7.02c-.2-.64-.44-1.4-.68-2l1.56-.32c.3,.74,.64,1.64,.84,2.32h6.28Zm-16.52,5.86c-.22-.98-.88-2.54-1.54-3.72l1.1-.52c.7,1.12,1.4,2.66,1.6,3.64l-1.16,.6Zm3.76-2.78h12.56v1.3h-5.8v2.04h5.24v7.88c0,.76-.16,1.16-.7,1.4-.58,.24-1.48,.24-2.88,.24-.06-.4-.28-.96-.48-1.32,1.06,.04,2,.02,2.26,0,.3,0,.38-.08,.38-.34v-6.56h-3.86c-.02,.36-.08,.72-.16,1.08,1.24,1.1,2.76,2.58,3.54,3.54l-.98,.84c-.64-.84-1.82-2.1-2.96-3.16-.5,1.2-1.46,2.4-3.18,3.32-.2-.28-.62-.76-.9-1.02,2.5-1.18,3.12-3.04,3.26-4.6h-3.54v8.28h-1.36v-9.58h4.94v-2.04h-5.38v-1.3Z"/><path class="h" d="M534.22,83.95h-1.17v-12.81l-3.87,1.44v-1.09l4.84-1.8h.2v14.27Z"/><path class="h" d="M540.66,76.67l.69-6.93h7.11v1.08h-6.1l-.5,4.8c.76-.52,1.65-.78,2.68-.78,1.28,0,2.3,.42,3.07,1.25,.76,.83,1.14,1.94,1.14,3.33,0,1.5-.37,2.66-1.11,3.49-.74,.83-1.79,1.24-3.13,1.24-1.24,0-2.24-.34-3.01-1.04-.77-.69-1.21-1.66-1.32-2.9h1.12c.11,.97,.44,1.7,.99,2.2s1.29,.75,2.22,.75c1.02,0,1.78-.32,2.3-.97s.78-1.56,.78-2.75c0-1.04-.29-1.89-.87-2.55-.58-.66-1.37-.99-2.37-.99-.55,0-1.04,.07-1.45,.21-.41,.14-.84,.41-1.3,.82l-.93-.26Z"/><path class="h" d="M551.03,83.25c0-.23,.07-.42,.22-.58,.15-.16,.35-.24,.61-.24s.47,.08,.62,.24c.15,.16,.22,.35,.22,.58s-.07,.42-.22,.56c-.15,.15-.35,.22-.62,.22s-.46-.07-.61-.22-.22-.33-.22-.56Z"/><path class="h" d="M561.17,83.95h-1.17v-12.81l-3.87,1.44v-1.09l4.84-1.8h.2v14.27Z"/><path class="h" d="M574.11,77.37c-.42,.61-.93,1.09-1.55,1.42-.62,.34-1.29,.5-2.01,.5-.81,0-1.52-.21-2.14-.62-.62-.42-1.1-.99-1.44-1.73-.34-.74-.51-1.54-.51-2.41,0-.94,.18-1.79,.54-2.56,.36-.77,.87-1.37,1.51-1.79,.65-.43,1.39-.64,2.24-.64,1.43,0,2.54,.5,3.33,1.5,.79,1,1.19,2.42,1.19,4.25v1.05c0,2.57-.55,4.49-1.64,5.78s-2.76,1.93-5.01,1.93h-.21v-1.02h.42c1.7-.03,2.99-.51,3.88-1.45s1.35-2.35,1.4-4.23Zm-3.42,.91c.78,0,1.48-.23,2.1-.7,.62-.46,1.06-1.07,1.32-1.81v-.67c0-1.44-.3-2.56-.9-3.36-.6-.79-1.41-1.19-2.44-1.19-.92,0-1.68,.37-2.28,1.12-.59,.74-.89,1.68-.89,2.81s.29,1.99,.85,2.71c.57,.72,1.31,1.09,2.22,1.09Z"/><path class="h" d="M577.62,72.47c0-.85,.26-1.55,.79-2.1s1.19-.83,2-.83,1.47,.28,2,.83,.79,1.28,.79,2.16v.69c0,.83-.26,1.53-.78,2.08s-1.18,.83-1.99,.83-1.47-.27-2-.82-.8-1.27-.8-2.17v-.68Zm.95,.75c0,.61,.17,1.11,.5,1.5s.79,.59,1.35,.59,.99-.2,1.32-.59,.49-.91,.49-1.53v-.71c0-.61-.17-1.11-.51-1.5-.34-.39-.78-.59-1.33-.59s-.98,.2-1.32,.59c-.34,.39-.51,.91-.51,1.57v.69Zm2.23,9.55l-.73-.47,6.94-11.11,.73,.47-6.94,11.11Zm3.98-2.3c0-.85,.26-1.55,.79-2.1,.52-.55,1.19-.83,1.99-.83s1.47,.28,2,.83c.53,.55,.8,1.27,.8,2.17v.69c0,.85-.26,1.55-.79,2.1-.52,.55-1.19,.83-1.99,.83s-1.47-.27-2-.83c-.53-.55-.8-1.27-.8-2.15v-.71Zm.94,.76c0,.61,.17,1.12,.5,1.51s.79,.59,1.35,.59,1-.2,1.33-.59,.49-.91,.49-1.55v-.71c0-.63-.17-1.13-.5-1.51-.33-.38-.78-.57-1.34-.57s-.99,.19-1.33,.58c-.34,.39-.51,.9-.51,1.55v.72Z"/></g><g><path d="M93.49,346.67v1.28h-14.02v5.08c0,3.06-.4,7.28-2.86,10-.18-.28-.74-.78-1.02-.96,1.52-1.72,2.12-3.94,2.36-6.06-.82,.52-1.64,1-2.4,1.44l-.52-1.32c.8-.38,1.88-.94,3.02-1.56,.04-.54,.04-1.04,.04-1.54v-6.36h7.4c-.26-.54-.62-1.16-.96-1.64l1.3-.44c.48,.62,.98,1.44,1.24,2.08h6.42Zm-16.9,6.06c-.14-1.02-.66-2.66-1.26-3.9l1.12-.44c.64,1.22,1.18,2.82,1.32,3.8l-1.18,.54Zm3.76,.76h5.54v3.84h-5.54v-3.84Zm10.86,4.88h1.4v4.62h-1.4v-.7h-10.66v-3.92h1.38v2.68h3.9v-3.42h1.42v3.42h3.96v-2.68Zm-9.72-2.08h3.22v-1.78h-3.22v1.78Zm9.3-3.78h-8.36v-3.62h8.36v3.62Zm-1.32-2.58h-5.76v1.54h5.76v-1.54Zm-2.26,3.56h5.78v3.84h-5.78v-3.84Zm1.14,2.8h3.42v-1.78h-3.42v1.78Z"/><path d="M113.51,346.91v1.36h-13.66v4.62c0,3.1-.42,7.42-3.12,10.18-.22-.28-.78-.8-1.08-1,1.6-1.68,2.28-3.76,2.58-5.82-.9,.54-1.82,1.06-2.64,1.52l-.52-1.36c.9-.4,2.06-1,3.3-1.66,.04-.66,.06-1.28,.06-1.88v-5.96h7.08c-.22-.6-.5-1.3-.76-1.86l1.46-.34c.36,.7,.74,1.56,.94,2.2h6.36Zm-16.6,6c-.2-.98-.86-2.56-1.52-3.72l1.1-.54c.7,1.14,1.4,2.66,1.6,3.64l-1.18,.62Zm10.82,8h5.78v1.38h-13.92v-1.38h2.34v-6.72h1.36v6.72h3v-9.22h-5.3v-1.38h11.94v1.38h-5.2v3.48h4.82v1.34h-4.82v4.4Z"/><path class="j" d="M127.28,353.72h1.21c.67,0,1.26-.12,1.76-.36,.5-.24,.88-.56,1.15-.98,.26-.41,.4-.89,.4-1.43,0-.91-.26-1.62-.77-2.14-.51-.51-1.25-.77-2.22-.77-.91,0-1.66,.27-2.24,.81s-.87,1.25-.87,2.12h-1.17c0-.74,.19-1.41,.56-2.02,.37-.61,.89-1.08,1.54-1.41s1.39-.5,2.19-.5c1.29,0,2.3,.35,3.05,1.05s1.11,1.67,1.11,2.89c0,.68-.22,1.31-.65,1.89s-1.03,1.01-1.78,1.29c.89,.25,1.56,.67,2.01,1.27,.46,.6,.68,1.32,.68,2.15,0,1.22-.4,2.2-1.19,2.94s-1.86,1.11-3.18,1.11c-.85,0-1.62-.17-2.33-.51-.71-.34-1.25-.81-1.64-1.42-.39-.61-.58-1.32-.58-2.12h1.17c0,.91,.32,1.64,.95,2.21,.63,.57,1.44,.85,2.43,.85s1.8-.26,2.36-.78,.84-1.27,.84-2.25-.3-1.68-.91-2.18c-.61-.5-1.51-.75-2.69-.75h-1.17v-1Z"/><path class="j" d="M144.53,347.92l-6.07,13.54h-1.22l6.04-13.22h-8.09v-1h9.35v.67Z"/><path class="j" d="M146.93,360.77c0-.23,.07-.42,.22-.58,.15-.16,.35-.24,.61-.24s.47,.08,.62,.24c.15,.16,.22,.35,.22,.58s-.07,.42-.22,.56-.35,.22-.62,.22-.46-.07-.61-.22-.22-.33-.22-.56Z"/><path class="j" d="M160.53,361.47h-8.91v-.9l4.87-5.53c.81-.93,1.37-1.7,1.68-2.3s.47-1.19,.47-1.77c0-.9-.26-1.61-.79-2.13-.53-.52-1.25-.79-2.18-.79s-1.73,.31-2.32,.92c-.59,.61-.88,1.41-.88,2.38h-1.16c0-.8,.18-1.53,.54-2.19,.36-.66,.88-1.17,1.54-1.55,.67-.37,1.43-.56,2.28-.56,1.3,0,2.32,.34,3.05,1.03s1.1,1.62,1.1,2.79c0,.66-.21,1.39-.62,2.18-.41,.79-1.14,1.77-2.18,2.95l-3.96,4.48h7.47v.99Z"/><path class="j" d="M169.89,356.89h2.22v.99h-2.22v3.59h-1.17v-3.59h-6.69v-.66l6.58-9.96h1.28v9.64Zm-6.43,0h5.25v-8.12l-.52,.9-4.74,7.23Z"/><path class="j" d="M173.52,349.98c0-.85,.26-1.55,.79-2.1s1.19-.83,2-.83,1.47,.28,2,.83,.79,1.28,.79,2.16v.69c0,.83-.26,1.53-.78,2.08s-1.18,.83-1.99,.83-1.47-.27-2-.82-.8-1.27-.8-2.17v-.68Zm.95,.75c0,.61,.17,1.11,.5,1.5s.79,.59,1.35,.59,.99-.2,1.32-.59,.49-.91,.49-1.53v-.71c0-.61-.17-1.11-.51-1.5-.34-.39-.78-.59-1.33-.59s-.98,.2-1.32,.59c-.34,.39-.51,.91-.51,1.57v.69Zm2.23,9.55l-.73-.47,6.94-11.11,.73,.47-6.94,11.11Zm3.98-2.3c0-.85,.26-1.55,.79-2.1,.52-.55,1.19-.83,1.99-.83s1.47,.28,2,.83c.53,.55,.8,1.27,.8,2.17v.69c0,.85-.26,1.55-.79,2.1-.52,.55-1.19,.83-1.99,.83s-1.47-.27-2-.83c-.53-.55-.8-1.27-.8-2.15v-.71Zm.94,.76c0,.61,.17,1.12,.5,1.51s.79,.59,1.35,.59,1-.2,1.33-.59,.49-.91,.49-1.55v-.71c0-.63-.17-1.13-.5-1.51-.34-.38-.78-.57-1.34-.57s-.99,.19-1.33,.58c-.34,.39-.51,.9-.51,1.55v.72Z"/></g><g><path d="M81.63,172.31c0,.76-.18,1.18-.66,1.4-.5,.24-1.28,.26-2.6,.26-.06-.36-.24-.96-.4-1.34,.92,.06,1.76,.04,2,.04,.26-.02,.36-.12,.36-.38v-5.44c-.78,.48-1.54,.92-2.26,1.36l-.54-1.16c-.14,2.46-.54,5.12-1.46,7.1-.26-.24-.84-.58-1.18-.7,1.32-2.8,1.42-6.8,1.42-9.7v-7.18h5.32v15.74Zm-4-8.58c0,.92-.02,1.98-.08,3.06,.76-.3,1.74-.74,2.78-1.22v-2.68l-.8,.68c-.42-.58-1.2-1.46-1.9-2.14v2.3Zm0-5.8v3.08l.66-.48c.72,.64,1.56,1.48,2.04,2.08v-4.68h-2.7Zm11.04,1.9v2.28h4.08v7.48c0,.72-.1,1.18-.62,1.44-.48,.26-1.26,.26-2.36,.26-.06-.42-.26-1.04-.44-1.46,.84,.02,1.52,.02,1.74,0,.24,0,.3-.06,.3-.28v-6.08h-2.7v10.6h-1.46v-10.6h-2.54v7.72h-1.36v-9.08h3.9v-2.28h-4.78v-1.4h4.78v-2.44h1.46v2.44h4.8v1.4h-4.8Z"/><path d="M105.07,163.72c-.06,.62-.1,1.24-.2,1.82,.94,4.28,3.26,6.5,8.52,7.08-.3,.3-.64,.92-.82,1.34-4.56-.68-6.98-2.48-8.3-5.86-.96,2.86-3.02,4.88-7.9,5.98-.14-.4-.5-.96-.78-1.28,6.7-1.34,7.56-4.46,7.94-9.08h1.54Zm6.36,1.26c-1.62-1.18-4.8-2.96-7.44-4.24-1.08,2.16-3.16,3.64-7.3,4.46-.12-.34-.48-.9-.72-1.2,6.32-1.16,7.26-3.82,7.66-8.16h1.5c-.12,1.36-.3,2.58-.64,3.66,2.62,1.2,6,2.94,7.72,4.16l-.78,1.32Zm-11.66,4.54c-.62-.84-1.82-2.26-2.76-3.3l1.08-.74c.96,.98,2.2,2.34,2.82,3.14l-1.14,.9Zm.06-8.6c-.58-.82-1.72-2.18-2.62-3.16l1.1-.78c.9,.94,2.1,2.22,2.68,3.02l-1.16,.92Zm7.52,8.02c.78-.94,1.8-2.42,2.38-3.52l1.42,.52c-.78,1.24-1.8,2.6-2.6,3.5l-1.2-.5Zm3.94-11.4c-.82,1.18-1.86,2.44-2.68,3.26l-1.22-.48c.8-.86,1.86-2.24,2.44-3.26l1.46,.48Z"/><path class="j" d="M130.12,172.57h-1.17v-12.81l-3.87,1.44v-1.09l4.84-1.8h.2v14.27Z"/><path class="j" d="M144.34,166.64c0,2.01-.37,3.53-1.1,4.57-.74,1.04-1.82,1.56-3.25,1.56s-2.48-.51-3.23-1.53c-.75-1.02-1.13-2.5-1.15-4.45v-2.55c0-2,.37-3.51,1.11-4.54,.74-1.03,1.83-1.54,3.25-1.54s2.48,.5,3.22,1.49c.74,.99,1.13,2.46,1.15,4.39v2.61Zm-1.17-2.55c0-1.63-.27-2.86-.8-3.69-.53-.83-1.33-1.25-2.41-1.25s-1.85,.41-2.38,1.22c-.53,.81-.81,2.02-.82,3.6v2.79c0,1.62,.27,2.86,.83,3.72s1.35,1.29,2.4,1.29,1.83-.42,2.37-1.26,.81-2.07,.82-3.69v-2.73Z"/><path class="j" d="M146.93,171.86c0-.23,.07-.42,.22-.58,.15-.16,.35-.24,.61-.24s.47,.08,.62,.24c.15,.16,.22,.35,.22,.58s-.07,.42-.22,.56-.35,.22-.62,.22-.46-.07-.61-.22-.22-.33-.22-.56Z"/><path class="j" d="M160.53,172.57h-8.91v-.9l4.87-5.53c.81-.93,1.37-1.7,1.68-2.3s.47-1.19,.47-1.77c0-.9-.26-1.61-.79-2.13-.53-.52-1.25-.79-2.18-.79s-1.73,.31-2.32,.92c-.59,.61-.88,1.41-.88,2.38h-1.16c0-.8,.18-1.53,.54-2.19,.36-.66,.88-1.17,1.54-1.55,.67-.37,1.43-.56,2.28-.56,1.3,0,2.32,.34,3.05,1.03s1.1,1.62,1.1,2.79c0,.66-.21,1.39-.62,2.18-.41,.79-1.14,1.77-2.18,2.95l-3.96,4.48h7.47v.99Z"/><path class="j" d="M162.44,161.08c0-.85,.26-1.55,.79-2.1s1.19-.83,2-.83,1.47,.28,2,.83,.79,1.28,.79,2.16v.69c0,.83-.26,1.53-.78,2.08s-1.18,.83-1.99,.83-1.47-.27-2-.82-.8-1.27-.8-2.17v-.68Zm.95,.75c0,.61,.17,1.11,.5,1.5s.79,.59,1.35,.59,.99-.2,1.32-.59,.49-.91,.49-1.53v-.71c0-.61-.17-1.11-.51-1.5-.34-.39-.78-.59-1.33-.59s-.98,.2-1.32,.59c-.34,.39-.51,.91-.51,1.57v.69Zm2.23,9.55l-.73-.47,6.94-11.11,.73,.47-6.94,11.11Zm3.98-2.3c0-.85,.26-1.55,.79-2.1,.52-.55,1.19-.83,1.99-.83s1.47,.28,2,.83c.53,.55,.8,1.27,.8,2.17v.69c0,.85-.26,1.55-.79,2.1-.52,.55-1.19,.83-1.99,.83s-1.47-.27-2-.83c-.53-.55-.8-1.27-.8-2.15v-.71Zm.94,.76c0,.61,.17,1.12,.5,1.51s.79,.59,1.35,.59,1-.2,1.33-.59,.49-.91,.49-1.55v-.71c0-.63-.17-1.13-.5-1.51-.34-.38-.78-.57-1.34-.57s-.99,.19-1.33,.58c-.34,.39-.51,.9-.51,1.55v.72Z"/></g><g><path d="M121.22,94.77h-2.06v3.54h-1.48v-.9h-4.8v1.38c0,.92-.28,1.26-.88,1.48-.62,.22-1.66,.24-3.32,.24-.08-.38-.32-.92-.52-1.26,1.2,.04,2.4,.02,2.74,.02,.38-.02,.5-.14,.5-.48v-1.38h-6.46v-1.14h6.46v-1.5h-8.18v-1.18h8.18v-1.4h-6.28v-1.1h6.28v-1.4h-5.72v-3.52h5.72v-1.16h-7.8v-1.22h7.8v-1.6h1.48v1.6h7.96v1.22h-7.96v1.16h5.96v3.52h-5.96v1.4h6.28v2.5h2.06v1.18Zm-9.82-6.12v-1.44h-4.3v1.44h4.3Zm1.48-1.44v1.44h4.48v-1.44h-4.48Zm0,6.38h4.8v-1.4h-4.8v1.4Zm4.8,1.18h-4.8v1.5h4.8v-1.5Z"/><path d="M139.86,87.27c-.54,3.32-1.42,5.96-2.78,8.08,1.14,1.7,2.56,3.02,4.38,3.84-.34,.3-.8,.86-1.02,1.26-1.76-.88-3.16-2.18-4.28-3.84-1.32,1.62-3.02,2.88-5.22,3.86-.16-.36-.6-1.02-.86-1.32,2.3-.92,4-2.18,5.28-3.86-.92-1.68-1.64-3.64-2.16-5.8-.42,.84-.88,1.6-1.4,2.26-.16-.16-.46-.4-.76-.62v7.06h-5.7v1.4h-1.38v-8.5h2.82v-3.64h-3.66v-1.4h3.66v-3.88h1.46v3.88h3.58v1.4h-3.58v3.64h2.74c-.16-.12-.32-.22-.44-.3,1.72-2.02,2.84-5.24,3.48-8.62l1.48,.24c-.22,1.18-.52,2.34-.88,3.44h6.7v1.42h-1.46Zm-10.24,5.22h-4.28v4.3h4.28v-4.3Zm4.5-5.14c.44,2.44,1.14,4.7,2.14,6.6,1.02-1.82,1.68-4.02,2.1-6.68h-4.2l-.04,.08Z"/><path d="M148.92,82.67c-.56,1.48-1.26,2.94-2.06,4.32v13.4h-1.4v-11.22c-.64,.92-1.32,1.74-2.02,2.46-.16-.34-.56-1.12-.84-1.44,1.96-1.92,3.8-4.9,4.94-7.94l1.38,.42Zm3.92,10.64c-.26,.4-.56,.8-.88,1.18h8.88s-.02,.38-.06,.58c-.32,3.14-.68,4.38-1.22,4.92-.3,.3-.62,.4-1.1,.42-.38,.04-1.1,.04-1.86,0,0-.36-.14-.86-.32-1.18,.72,.08,1.36,.08,1.64,.08s.46-.02,.6-.16c.32-.32,.62-1.32,.9-3.58h-1.68c-.84,2.04-2.24,3.8-3.76,5-.22-.22-.72-.62-1-.82,1.44-1,2.66-2.46,3.42-4.18h-2.06c-1.08,1.88-2.76,3.54-4.42,4.64-.18-.2-.66-.66-.94-.86,1.52-.9,2.96-2.24,3.94-3.78h-1.96c-.74,.74-1.54,1.38-2.32,1.9-.2-.22-.68-.7-.94-.9,1.38-.82,2.74-1.98,3.68-3.26h-3.34v-1.16h13.4v1.16h-8.6Zm-2.28-7.06c-.46,.7-.94,1.34-1.42,1.86-.26-.24-.8-.66-1.14-.86,1.3-1.28,2.46-3.2,3.18-5.08l1.34,.36c-.18,.46-.38,.92-.6,1.36h9.02v1.16h-9.64c-.2,.36-.42,.7-.62,1.04h8.86v5.1h-8.98v-4.94Zm1.36,1.94h6.18v-1.16h-6.18v1.16Zm0,2.06h6.18v-1.2h-6.18v1.2Z"/><path d="M181,92.33v1.24h-17.54v-1.24h8.06v-1.46h-6.08v-1.18h6.08v-1.22c-2.06,.12-4.18,.16-6.1,.16-.04-.28-.14-.68-.26-.98h-1.16v-3.5h7.8c-.26-.54-.62-1.2-.94-1.7l1.38-.44c.44,.64,.98,1.54,1.24,2.14h6.98v3.5h-1.32c-1.68,.34-3.88,.58-6.22,.74v1.3h6.22v1.18h-6.22v1.46h8.08Zm-15.54-4.76c1.94-.02,4.06-.08,6.06-.2v-1.48h1.4v1.38c2.12-.14,4.04-.34,5.38-.6l.68,.7v-1.88h-13.52v2.08Zm.82,7.18h12.06v5.62h-1.46v-.64h-9.16v.72h-1.44v-5.7Zm1.44,1.22v2.54h9.16v-2.54h-9.16Z"/><path class="j" d="M193.33,91.63l.69-6.93h7.11v1.08h-6.1l-.5,4.8c.76-.52,1.65-.78,2.68-.78,1.28,0,2.3,.42,3.07,1.25,.76,.83,1.14,1.94,1.14,3.33,0,1.5-.37,2.66-1.11,3.49-.74,.83-1.79,1.24-3.13,1.24-1.24,0-2.24-.34-3.01-1.04-.77-.69-1.21-1.66-1.32-2.9h1.12c.11,.97,.44,1.7,.99,2.2s1.29,.75,2.22,.75c1.02,0,1.78-.32,2.3-.97s.78-1.56,.78-2.75c0-1.04-.29-1.89-.87-2.55-.58-.66-1.37-.99-2.37-.99-.55,0-1.04,.07-1.45,.21-.41,.14-.84,.41-1.3,.82l-.93-.26Z"/><path class="j" d="M203.7,98.21c0-.23,.07-.42,.22-.58,.15-.16,.35-.24,.61-.24s.47,.08,.62,.24c.15,.16,.22,.35,.22,.58s-.07,.42-.22,.56-.35,.22-.62,.22-.46-.07-.61-.22-.22-.33-.22-.56Z"/><path class="j" d="M216.97,92.99c0,2.01-.37,3.53-1.1,4.57-.74,1.04-1.82,1.56-3.25,1.56s-2.48-.51-3.23-1.53c-.75-1.02-1.13-2.5-1.15-4.45v-2.55c0-2,.37-3.51,1.11-4.54,.74-1.03,1.83-1.54,3.25-1.54s2.48,.5,3.22,1.49c.74,.99,1.13,2.46,1.15,4.39v2.61Zm-1.17-2.55c0-1.63-.27-2.86-.8-3.69-.53-.83-1.33-1.25-2.41-1.25s-1.85,.41-2.38,1.22c-.53,.81-.81,2.02-.82,3.6v2.79c0,1.62,.27,2.86,.83,3.72s1.35,1.29,2.4,1.29,1.83-.42,2.37-1.26,.81-2.07,.82-3.69v-2.73Z"/><path class="j" d="M228.39,98.91h-8.91v-.9l4.87-5.53c.81-.93,1.37-1.7,1.68-2.3s.47-1.19,.47-1.77c0-.9-.26-1.61-.79-2.13-.53-.52-1.25-.79-2.18-.79s-1.73,.31-2.32,.92c-.59,.61-.88,1.41-.88,2.38h-1.16c0-.8,.18-1.53,.54-2.19,.36-.66,.88-1.17,1.54-1.55,.67-.37,1.43-.56,2.28-.56,1.3,0,2.32,.34,3.05,1.03s1.1,1.62,1.1,2.79c0,.66-.21,1.39-.62,2.18-.41,.79-1.14,1.77-2.18,2.95l-3.96,4.48h7.47v.99Z"/><path class="j" d="M230.29,87.43c0-.85,.26-1.55,.79-2.1s1.19-.83,2-.83,1.47,.28,2,.83,.79,1.28,.79,2.16v.69c0,.83-.26,1.53-.78,2.08s-1.18,.83-1.99,.83-1.47-.27-2-.82-.8-1.27-.8-2.17v-.68Zm.95,.75c0,.61,.17,1.11,.5,1.5s.79,.59,1.35,.59,.99-.2,1.32-.59,.49-.91,.49-1.53v-.71c0-.61-.17-1.11-.51-1.5-.34-.39-.78-.59-1.33-.59s-.98,.2-1.32,.59c-.34,.39-.51,.91-.51,1.57v.69Zm2.23,9.55l-.73-.47,6.94-11.11,.73,.47-6.94,11.11Zm3.98-2.3c0-.85,.26-1.55,.79-2.1,.52-.55,1.19-.83,1.99-.83s1.47,.28,2,.83c.53,.55,.8,1.27,.8,2.17v.69c0,.85-.26,1.55-.79,2.1-.52,.55-1.19,.83-1.99,.83s-1.47-.27-2-.83c-.53-.55-.8-1.27-.8-2.15v-.71Zm.94,.76c0,.61,.17,1.12,.5,1.51s.79,.59,1.35,.59,1-.2,1.33-.59,.49-.91,.49-1.55v-.71c0-.63-.17-1.13-.5-1.51-.33-.38-.78-.57-1.34-.57s-.99,.19-1.33,.58c-.34,.39-.51,.9-.51,1.55v.72Z"/></g><g><path d="M85.7,47.97c.68-1.2,1-3.36,1.04-5.1l1,.14c0,1.8-.32,4.06-1.06,5.42l-.98-.46Zm2.82-8.94h1.4v18.24h-1.4v-18.24Zm2.8,7.46c-.16-1-.68-2.62-1.24-3.86l.92-.34c.62,1.2,1.16,2.8,1.32,3.76l-1,.44Zm11.98,4.44c-.8,1.64-2.06,2.9-3.62,3.86,1.5,.6,3.18,1.04,4.92,1.3-.3,.3-.72,.88-.92,1.26-1.96-.34-3.84-.94-5.5-1.76-1.9,.88-4.08,1.42-6.3,1.76-.12-.36-.42-.96-.66-1.26,1.94-.22,3.84-.64,5.52-1.3-1.16-.74-2.14-1.6-2.9-2.6l.98-.42h-2.7v-1.24h10l.28-.06,.9,.46Zm.38-1.36h-11.26v-3.68h11.26v3.68Zm-9.1-4.3h-1.3v-5.54h9.56v5.54h-1.38v-4.5h-6.88v4.5Zm1.16,1.62h-2.08v1.7h2.08v-1.7Zm-.54,4.88c.74,.9,1.78,1.7,3.02,2.36,1.2-.64,2.22-1.4,2.96-2.36h-5.98Zm5.66-9.04h-5.62v-.92h5.62v.92Zm-5.62,1.02h5.62v.92h-5.62v-.92Zm3.8,3.14h-2.16v1.7h2.16v-1.7Zm3.34,0h-2.2v1.7h2.2v-1.7Z"/><path d="M105.7,47.93c.54-1.32,.9-3.5,1.04-5.12l1.12,.16c-.1,1.64-.48,3.9-1,5.36l-1.16-.4Zm2.88-8.9h1.48v18.26h-1.48v-18.26Zm2.66,3.2c.6,1.08,1.22,2.5,1.46,3.34l-1.12,.54c-.22-.86-.82-2.3-1.38-3.4l1.04-.48Zm12.74,12.96v1.42h-12.2v-1.42h5.72v-5h-4.24v-1.38h4.24v-4.14h-2.92c-.4,1.2-.86,2.24-1.4,3.1-.3-.2-.96-.52-1.32-.68,1.16-1.74,1.96-4.42,2.42-7.14l1.44,.24c-.2,1.04-.44,2.08-.72,3.06h2.5v-4.14h1.48v4.14h4.52v1.42h-4.52v4.14h4.08v1.38h-4.08v5h5Z"/><path d="M135.48,41.99v3.56l.26-.3c2.38,1.14,5.52,2.94,7.1,4.14l-1.04,1.34c-1.36-1.12-4.04-2.76-6.32-3.98v10.52h-1.58v-15.28h-7.64v-1.48h17.66v1.48h-8.44Z"/><path d="M151.44,51.79h-3.48v1.86h-1.32v-12.54h4.8v10.68Zm-3.48-9.3v7.92h2.14v-7.92h-2.14Zm16.22,7.64h-5.32v5.24c0,.94-.24,1.34-.84,1.6-.62,.24-1.62,.28-3.28,.26-.08-.4-.32-1.02-.56-1.42,1.26,.04,2.42,.02,2.72,.02,.36,0,.5-.12,.5-.46v-5.24h-5.1v-1.42h5.1v-7.02c-1.52,.2-3.1,.34-4.56,.44-.04-.34-.24-.88-.4-1.22,3.48-.28,7.62-.8,9.94-1.48l1.02,1.18c-1.26,.36-2.86,.66-4.54,.9v7.2h5.32v1.42Zm-9.86-7.22c.76,1.48,1.4,3.4,1.6,4.68l-1.32,.44c-.18-1.28-.8-3.24-1.52-4.7l1.24-.42Zm5.72,4.76c.64-1.32,1.46-3.5,1.88-5.06l1.44,.44c-.64,1.68-1.46,3.76-2.14,5.04l-1.18-.42Z"/><path d="M167.94,52.19v1.62h-1.32v-13.14h5.3v11.52h-3.98Zm0-10.12v8.74h2.64v-8.74h-2.64Zm15.92,4.12c-.68,3.04-1.9,5.42-3.5,7.26,1.2,1.14,2.6,2.06,4.16,2.64-.3,.28-.74,.84-.96,1.2-1.56-.66-2.96-1.64-4.16-2.84-1.3,1.24-2.8,2.16-4.4,2.82-.18-.32-.64-.94-.94-1.18,1.62-.62,3.1-1.52,4.38-2.7-1.28-1.54-2.3-3.4-3.06-5.44-.52,3.62-1.58,7.12-3.86,9.36-.24-.26-.74-.78-1.04-1,3.4-3.34,3.84-9.68,3.94-14.7h-1.74v-1.36h8.1l.26-.06,1.04,.16c-.22,1.6-.58,3.72-.92,5.52h1.52l.28-.04,.9,.36Zm-8-4.58c-.04,1.36-.12,2.8-.24,4.26h4.1c.26-1.38,.56-3,.74-4.26h-4.6Zm.6,5.64c.68,1.92,1.66,3.68,2.92,5.16,1.2-1.38,2.16-3.1,2.76-5.16h-5.68Z"/><path d="M191.26,48.81c-.28,1.74-.72,3.24-1.32,4.5,1.34,2.08,3.82,2.38,7.46,2.38,2.08,0,4.98-.1,7.02-.26-.22,.32-.42,1-.5,1.42-1.86,.1-4.34,.16-6.52,.16-4,0-6.48-.42-8.04-2.58-.76,1.26-1.64,2.22-2.66,2.92-.2-.3-.7-.82-.98-1.02,1.9-1.22,3.36-3.42,4-6.54h-2.16c-.52,0-1.04,.12-1.18,.28-.1-.36-.4-1.04-.56-1.36,.3-.08,.62-.2,.96-.58,.48-.46,1.66-2.04,2.52-3.26h-3.2v-1.22h4.14l.26-.1,.98,.46c-.86,1.16-2.36,3.22-3.5,4.56h2.28l.26-.04,.74,.28Zm-1.94-5.9c-.56-.82-1.64-2.2-2.5-3.18l1.1-.66c.9,.96,2,2.22,2.54,3.04l-1.14,.8Zm6.82,1.6c.18-.5,.34-1.08,.46-1.6h-5.26v-1.24h3.34c-.26-.62-.82-1.48-1.3-2.1l1.18-.48c.54,.66,1.18,1.58,1.4,2.18l-.84,.4h3.58c.56-.76,1.2-1.86,1.54-2.62l1.44,.42c-.48,.72-.98,1.54-1.46,2.2h3.72v1.24h-5.72c-.22,.56-.46,1.1-.68,1.6h4.72v9.34h-9.28v-9.34h3.16Zm4.66,1.12h-6.42v1.64h6.42v-1.64Zm0,2.68h-6.42v1.68h6.42v-1.68Zm0,2.72h-6.42v1.68h6.42v-1.68Z"/><path d="M210.56,42.67v4.54c0,3.08-.38,7.32-2.82,10.1-.26-.28-.88-.74-1.24-.9,1.54-1.72,2.16-3.9,2.42-6.02-.88,.56-1.76,1.12-2.56,1.62l-.54-1.34c.82-.4,2-1.08,3.22-1.78,.04-.58,.04-1.16,.04-1.68v-.94l-1.22,.56c-.34-.92-1.16-2.36-1.86-3.44l1.2-.48c.7,1,1.48,2.36,1.88,3.24v-4.84h7.16c-.24-.64-.56-1.44-.84-2.04l1.44-.34c.38,.76,.78,1.7,1.02,2.38h6.26v1.36h-13.56Zm7.54,8.4c-.5,2.18-2.04,4.5-6.44,6.28-.2-.32-.64-.86-.98-1.12,3.9-1.48,5.38-3.38,5.9-5.16h-5.02v-1.36h5.28c.04-.36,.04-.7,.04-1.04v-2.12h-2.58c-.46,1.04-1,1.98-1.56,2.72-.28-.22-.88-.62-1.24-.78,1.16-1.36,2.04-3.44,2.56-5.5l1.4,.3c-.16,.64-.36,1.3-.6,1.92h8.24v1.34h-4.74v2.14c0,.34,0,.66-.04,1.02h5.54v1.36h-5.76Zm1.5,.52c1.56,1.5,3.66,3.56,4.72,4.78l-1.1,.84c-1-1.24-3.06-3.38-4.64-4.9l1.02-.72Z"/><path d="M244.21,41.3v1.34h-13.6v4.58c0,3.1-.42,7.34-3.14,10.08-.22-.28-.78-.8-1.08-1,1.62-1.66,2.3-3.76,2.6-5.8-.9,.54-1.82,1.06-2.64,1.52l-.52-1.36c.9-.36,2.06-1,3.3-1.64,.04-.64,.06-1.24,.06-1.82v-5.9h7.02c-.2-.64-.44-1.4-.68-2l1.56-.32c.3,.74,.64,1.64,.84,2.32h6.28Zm-16.52,5.86c-.22-.98-.88-2.54-1.54-3.72l1.1-.52c.7,1.12,1.4,2.66,1.6,3.64l-1.16,.6Zm3.76-2.78h12.56v1.3h-5.8v2.04h5.24v7.88c0,.76-.16,1.16-.7,1.4-.58,.24-1.48,.24-2.88,.24-.06-.4-.28-.96-.48-1.32,1.06,.04,2,.02,2.26,0,.3,0,.38-.08,.38-.34v-6.56h-3.86c-.02,.36-.08,.72-.16,1.08,1.24,1.1,2.76,2.58,3.54,3.54l-.98,.84c-.64-.84-1.82-2.1-2.96-3.16-.5,1.2-1.46,2.4-3.18,3.32-.2-.28-.62-.76-.9-1.02,2.5-1.18,3.12-3.04,3.26-4.6h-3.54v8.28h-1.36v-9.58h4.94v-2.04h-5.38v-1.3Z"/><path class="j" d="M262.6,51.19h2.22v.99h-2.22v3.59h-1.17v-3.59h-6.69v-.66l6.58-9.96h1.28v9.64Zm-6.43,0h5.25v-8.12l-.52,.9-4.74,7.23Z"/><path class="j" d="M266.58,55.06c0-.23,.07-.42,.22-.58,.15-.16,.35-.24,.61-.24s.47,.08,.62,.24c.15,.16,.22,.35,.22,.58s-.08,.42-.22,.56-.35,.22-.62,.22-.46-.07-.61-.22-.22-.33-.22-.56Z"/><path class="j" d="M280.19,55.77h-8.91v-.9l4.87-5.53c.81-.93,1.37-1.7,1.68-2.3s.47-1.19,.47-1.77c0-.9-.26-1.61-.79-2.13-.53-.52-1.25-.79-2.18-.79s-1.73,.31-2.32,.92c-.59,.61-.88,1.41-.88,2.38h-1.16c0-.8,.18-1.53,.54-2.19,.36-.66,.88-1.17,1.54-1.55,.67-.37,1.43-.56,2.28-.56,1.3,0,2.32,.34,3.05,1.03s1.1,1.62,1.1,2.79c0,.66-.21,1.39-.62,2.18-.41,.79-1.14,1.77-2.18,2.95l-3.96,4.48h7.47v.99Z"/><path class="j" d="M282.09,44.28c0-.85,.26-1.55,.79-2.1s1.19-.83,2-.83,1.47,.28,2,.83,.79,1.28,.79,2.16v.69c0,.83-.26,1.53-.78,2.08s-1.18,.83-1.99,.83-1.47-.27-2-.82-.8-1.27-.8-2.17v-.68Zm.95,.75c0,.61,.17,1.11,.5,1.5s.79,.59,1.35,.59,.99-.2,1.32-.59,.49-.91,.49-1.53v-.71c0-.61-.17-1.11-.51-1.5-.34-.39-.78-.59-1.33-.59s-.98,.2-1.32,.59c-.34,.39-.51,.91-.51,1.57v.69Zm2.23,9.55l-.73-.47,6.94-11.11,.73,.47-6.94,11.11Zm3.98-2.3c0-.85,.26-1.55,.79-2.1,.52-.55,1.19-.83,1.99-.83s1.47,.28,2,.83c.53,.55,.8,1.27,.8,2.17v.69c0,.85-.26,1.55-.79,2.1-.52,.55-1.19,.83-1.99,.83s-1.47-.27-2-.83c-.53-.55-.8-1.27-.8-2.15v-.71Zm.94,.76c0,.61,.17,1.12,.5,1.51s.79,.59,1.35,.59,1-.2,1.33-.59,.49-.91,.49-1.55v-.71c0-.63-.17-1.13-.5-1.51-.33-.38-.78-.57-1.34-.57s-.99,.19-1.33,.58c-.34,.39-.51,.9-.51,1.55v.72Z"/></g><g><path d="M131.03,9.8c.68-1.2,1-3.36,1.04-5.1l1,.14c0,1.8-.32,4.06-1.06,5.42l-.98-.46Zm2.82-8.94h1.4V19.1h-1.4V.86Zm2.8,7.46c-.16-1-.68-2.62-1.24-3.86l.92-.34c.62,1.2,1.16,2.8,1.32,3.76l-1,.44Zm11.98,4.44c-.8,1.64-2.06,2.9-3.62,3.86,1.5,.6,3.18,1.04,4.92,1.3-.3,.3-.72,.88-.92,1.26-1.96-.34-3.84-.94-5.5-1.76-1.9,.88-4.08,1.42-6.3,1.76-.12-.36-.42-.96-.66-1.26,1.94-.22,3.84-.64,5.52-1.3-1.16-.74-2.14-1.6-2.9-2.6l.98-.42h-2.7v-1.24h10l.28-.06,.9,.46Zm.38-1.36h-11.26v-3.68h11.26v3.68Zm-9.1-4.3h-1.3V1.56h9.56V7.1h-1.38V2.6h-6.88V7.1Zm1.16,1.62h-2.08v1.7h2.08v-1.7Zm-.54,4.88c.74,.9,1.78,1.7,3.02,2.36,1.2-.64,2.22-1.4,2.96-2.36h-5.98Zm5.66-9.04h-5.62v-.92h5.62v.92Zm-5.62,1.02h5.62v.92h-5.62v-.92Zm3.8,3.14h-2.16v1.7h2.16v-1.7Zm3.34,0h-2.2v1.7h2.2v-1.7Z"/><path d="M151.03,9.76c.54-1.32,.9-3.5,1.04-5.12l1.12,.16c-.1,1.64-.48,3.9-1,5.36l-1.16-.4Zm2.88-8.9h1.48V19.12h-1.48V.86Zm2.66,3.2c.6,1.08,1.22,2.5,1.46,3.34l-1.12,.54c-.22-.86-.82-2.3-1.38-3.4l1.04-.48Zm12.74,12.96v1.42h-12.2v-1.42h5.72v-5h-4.24v-1.38h4.24V6.5h-2.92c-.4,1.2-.86,2.24-1.4,3.1-.3-.2-.96-.52-1.32-.68,1.16-1.74,1.96-4.42,2.42-7.14l1.44,.24c-.2,1.04-.44,2.08-.72,3.06h2.5V.94h1.48V5.08h4.52v1.42h-4.52v4.14h4.08v1.38h-4.08v5h5Z"/><path d="M178.47,17.18c0,.8-.18,1.24-.68,1.5-.52,.24-1.3,.28-2.66,.28-.04-.38-.22-1.04-.42-1.42,.94,.04,1.76,.02,2,.02,.28-.02,.38-.12,.38-.38v-5.96c-.86,.66-1.72,1.32-2.5,1.88l-.7-1.16c-.14,2.5-.56,5.2-1.52,7.22-.26-.24-.86-.58-1.22-.72,1.38-2.8,1.48-6.78,1.48-9.68V1.6h5.84v15.58Zm-4.48-8.42c0,.94-.02,2-.08,3.12,.82-.44,2-1.18,3.18-1.96v-1.86l-.8,.68c-.48-.66-1.48-1.74-2.3-2.5v2.52Zm0-5.78v3.12l.8-.62c.82,.72,1.76,1.66,2.3,2.34V2.98h-3.1Zm15.56,7.28h-4.56v8.86h-1.52V10.26h-4.44v-1.48h4.44V3.4h-3.82V1.92h9.26v1.48h-3.92v5.38h4.56v1.48Z"/><path d="M209.53,3.14v1.34h-13.6v4.58c0,3.1-.42,7.34-3.14,10.08-.22-.28-.78-.8-1.08-1,1.62-1.66,2.3-3.76,2.6-5.8-.9,.54-1.82,1.06-2.64,1.52l-.52-1.36c.9-.36,2.06-1,3.3-1.64,.04-.64,.06-1.24,.06-1.82V3.14h7.02c-.2-.64-.44-1.4-.68-2l1.56-.32c.3,.74,.64,1.64,.84,2.32h6.28Zm-16.52,5.86c-.22-.98-.88-2.54-1.54-3.72l1.1-.52c.7,1.12,1.4,2.66,1.6,3.64l-1.16,.6Zm3.76-2.78h12.56v1.3h-5.8v2.04h5.24v7.88c0,.76-.16,1.16-.7,1.4-.58,.24-1.48,.24-2.88,.24-.06-.4-.28-.96-.48-1.32,1.06,.04,2,.02,2.26,0,.3,0,.38-.08,.38-.34v-6.56h-3.86c-.02,.36-.08,.72-.16,1.08,1.24,1.1,2.76,2.58,3.54,3.54l-.98,.84c-.64-.84-1.82-2.1-2.96-3.16-.5,1.2-1.46,2.4-3.18,3.32-.2-.28-.62-.76-.9-1.02,2.5-1.18,3.12-3.04,3.26-4.6h-3.54v8.28h-1.36V9.56h4.94v-2.04h-5.38v-1.3Z"/><path d="M228.61,7.88c-.84,3.24-2.38,5.66-4.4,7.48,1.52,1.08,3.34,1.88,5.4,2.38-.34,.34-.8,.96-1.02,1.4-2.18-.6-4.04-1.52-5.62-2.78-1.86,1.38-4.04,2.3-6.34,2.92-.18-.42-.54-1.06-.84-1.36,2.16-.5,4.22-1.34,6-2.6-1.74-1.7-3.04-3.88-3.96-6.42h-.74c-.4,3.24-1.56,6.82-4.8,9.88-.22-.4-.76-.98-1.08-1.26,4.24-3.94,4.58-8.92,4.58-12.46v-1.8h-3.5V1.8h12.26c-.4,1.84-.92,4.1-1.36,5.7h4.1l.28-.08,1.04,.46Zm-11.32-2.82c0,.76-.02,1.58-.08,2.44h4.38c.36-1.24,.76-2.8,1.08-4.24h-5.38v1.8Zm1.98,3.84c.82,2.16,2.08,4,3.72,5.48,1.62-1.4,2.88-3.22,3.66-5.48h-7.38Z"/><path d="M238.47,17.18c0,.8-.18,1.24-.68,1.5-.52,.24-1.3,.28-2.66,.28-.04-.38-.22-1.04-.42-1.42,.94,.04,1.76,.02,2,.02,.28-.02,.38-.12,.38-.38v-5.96c-.86,.66-1.72,1.32-2.5,1.88l-.7-1.16c-.14,2.5-.56,5.2-1.52,7.22-.26-.24-.86-.58-1.22-.72,1.38-2.8,1.48-6.78,1.48-9.68V1.6h5.84v15.58Zm-4.48-8.42c0,.94-.02,2-.08,3.12,.82-.44,2-1.18,3.18-1.96v-1.86l-.8,.68c-.48-.66-1.48-1.74-2.3-2.5v2.52Zm0-5.78v3.12l.8-.62c.82,.72,1.76,1.66,2.3,2.34V2.98h-3.1Zm15.56,7.28h-4.56v8.86h-1.52V10.26h-4.44v-1.48h4.44V3.4h-3.82V1.92h9.26v1.48h-3.92v5.38h4.56v1.48Z"/><path d="M254.15,16.62v1.6h-1.28v-7.24c-.34,.62-.68,1.16-1.08,1.68-.1-.36-.42-1.24-.66-1.62,1.4-1.9,2.32-4.7,2.86-7.74h-2.52V1.92h6.74v1.38h-2.8c-.32,1.66-.74,3.28-1.26,4.76h3.9v8.56h-3.9Zm2.64-7.24h-2.64v5.9h2.64v-5.9Zm7.68,3.1c-.18,1.28-.56,2.48-1.34,3.58,1.68,1,3.86,1.6,6.56,1.82-.32,.32-.7,.92-.86,1.3-2.68-.34-4.88-1-6.58-2.12-.88,.84-2.1,1.58-3.74,2.12-.18-.32-.6-.88-.88-1.18,1.58-.44,2.72-1.04,3.54-1.76-.9-.78-1.6-1.74-2.14-2.88l1.26-.32c.4,.88,1,1.62,1.74,2.24,.58-.86,.88-1.82,1.02-2.8h-4.04V4.98h4.16v-1.88h-4.56V1.74h10.76v1.36h-4.78v1.88h4.36v7.5h-4.48Zm-4.14-4.32h2.84v-2h-2.84v2Zm2.82,3.14c.02-.34,.02-.66,.02-1v-1.02h-2.84v2.02h2.82Zm4.42-2.02h-2.98v1.02c0,.34,0,.66-.02,1h3v-2.02Zm-2.98-3.12v2h2.98v-2h-2.98Z"/><path d="M278.05,1.4c-.58,1.3-1.24,2.58-2,3.78v13.96h-1.44V7.3c-.86,1.14-1.78,2.18-2.7,3.04-.16-.36-.58-1.12-.84-1.48,2.18-1.88,4.32-4.86,5.6-7.92l1.38,.46Zm8.44,15.7c1.12,0,1.28-.88,1.44-4.3,.38,.3,.96,.58,1.38,.68-.24,3.7-.64,4.98-2.74,4.98h-3.8c-1.98,0-2.6-.58-2.6-2.7V1.18h1.44V6.62h7.1v1.44h-7.1v7.74c0,1.06,.22,1.3,1.26,1.3h3.62Z"/><path class="j" d="M309.65,17.6h-8.91v-.9l4.87-5.53c.81-.93,1.37-1.7,1.68-2.3s.47-1.2,.47-1.77c0-.9-.26-1.61-.79-2.13-.53-.52-1.25-.79-2.18-.79s-1.73,.31-2.32,.92c-.59,.61-.88,1.41-.88,2.38h-1.16c0-.8,.18-1.53,.54-2.19,.36-.66,.88-1.17,1.54-1.55,.67-.38,1.43-.56,2.28-.56,1.3,0,2.32,.34,3.05,1.03s1.1,1.61,1.1,2.79c0,.66-.21,1.39-.62,2.18-.41,.79-1.14,1.77-2.18,2.95l-3.96,4.48h7.47v.99Z"/><path class="j" d="M311.91,16.9c0-.23,.07-.42,.22-.58,.15-.16,.35-.24,.61-.24s.47,.08,.62,.24c.15,.16,.22,.35,.22,.58s-.08,.42-.22,.56-.35,.22-.62,.22-.46-.07-.61-.22-.22-.33-.22-.56Z"/><path class="j" d="M323.9,11.02c-.42,.61-.93,1.08-1.55,1.42-.62,.33-1.29,.5-2.01,.5-.81,0-1.52-.21-2.14-.62-.62-.42-1.1-.99-1.44-1.73-.34-.74-.51-1.54-.51-2.41,0-.94,.18-1.79,.54-2.56,.36-.77,.87-1.37,1.51-1.79,.65-.43,1.39-.64,2.24-.64,1.43,0,2.54,.5,3.33,1.5,.79,1,1.19,2.42,1.19,4.25v1.05c0,2.56-.55,4.49-1.64,5.78s-2.76,1.93-5.01,1.93h-.21v-1.02h.42c1.7-.03,2.99-.51,3.88-1.45s1.35-2.35,1.4-4.23Zm-3.42,.91c.78,0,1.48-.23,2.1-.7,.62-.46,1.06-1.07,1.32-1.81v-.67c0-1.44-.3-2.56-.9-3.36-.6-.8-1.41-1.19-2.44-1.19-.92,0-1.68,.37-2.28,1.12s-.89,1.68-.89,2.81,.29,1.99,.85,2.71c.57,.72,1.31,1.09,2.22,1.09Z"/><path class="j" d="M334.87,13.02h2.22v.99h-2.22v3.59h-1.17v-3.59h-6.69v-.66l6.58-9.96h1.28V13.02Zm-6.43,0h5.25V4.9l-.52,.9-4.74,7.23Z"/><path class="j" d="M338.5,6.12c0-.85,.26-1.55,.79-2.1s1.19-.83,2-.83,1.47,.28,2,.83,.79,1.28,.79,2.16v.69c0,.83-.26,1.53-.78,2.08s-1.18,.83-1.99,.83-1.47-.27-2-.82-.8-1.27-.8-2.17v-.68Zm.95,.75c0,.61,.17,1.11,.5,1.5,.33,.39,.79,.59,1.35,.59s.99-.2,1.32-.59,.49-.91,.49-1.53v-.71c0-.61-.17-1.11-.51-1.5s-.78-.59-1.33-.59-.98,.2-1.32,.59-.51,.91-.51,1.57v.7Zm2.23,9.55l-.73-.47,6.94-11.11,.73,.47-6.94,11.11Zm3.98-2.3c0-.85,.26-1.55,.79-2.1,.52-.55,1.19-.83,1.99-.83s1.47,.27,2,.83c.53,.55,.8,1.27,.8,2.17v.69c0,.85-.26,1.55-.79,2.1-.52,.55-1.19,.83-1.99,.83s-1.47-.28-2-.83c-.53-.55-.8-1.27-.8-2.15v-.71Zm.94,.76c0,.61,.17,1.12,.5,1.51,.33,.39,.79,.59,1.35,.59s1-.2,1.33-.59,.49-.91,.49-1.55v-.71c0-.63-.17-1.13-.5-1.51s-.78-.57-1.34-.57-.99,.19-1.33,.58-.51,.9-.51,1.55v.72Z"/></g><g><path d="M528.53,195.08c0,.8-.18,1.2-.64,1.44-.52,.24-1.3,.26-2.62,.26-.04-.38-.24-.98-.42-1.34,.92,.04,1.78,.02,2.04,.02s.36-.1,.36-.38v-5.84c-.66,.54-1.3,1.1-1.96,1.62l-.58-1.16c-.16,2.48-.58,5.16-1.52,7.22-.2-.28-.74-.74-1.02-.88,1.26-2.82,1.36-6.76,1.36-9.64v-7.06h5v15.74Zm-3.72-8.68c0,.98-.02,2.08-.1,3.24,.66-.4,1.58-1.02,2.54-1.7v-2.26l-.74,.5c-.36-.58-1.08-1.56-1.7-2.26v2.48Zm0-5.7v3.16l.8-.52c.58,.62,1.24,1.4,1.64,1.98v-4.62h-2.44Zm6.92,5.64c-.48-1.04-1.48-2.6-2.56-4,.82-1.18,1.68-2.7,2.12-3.66l1.3,.34c-.56,1.02-1.32,2.28-1.96,3.3,.92,1.16,1.84,2.56,2.3,3.46l-1.2,.56Zm3.64-.36c-.26,.48-.56,.94-.86,1.38h5.44v9.42h-1.38v-.76h-7.4v.84h-1.34v-9.5h3.24c.3-.58,.62-1.28,.8-1.76l1.5,.36c-.52-1-1.48-2.38-2.54-3.62,.82-1.18,1.7-2.58,2.18-3.5l1.28,.32c-.54,.98-1.3,2.18-1.98,3.14,.94,1.08,1.88,2.4,2.34,3.24l-1.2,.58-.08-.14Zm3.2,2.62h-7.4v6.16h7.4v-6.16Zm-1.28,5.66c-.5-.56-1.28-1.24-2.14-1.96-.88,.74-1.84,1.44-2.84,2-.2-.26-.54-.62-.82-.82,.98-.5,1.92-1.16,2.74-1.88-.74-.56-1.52-1.12-2.26-1.58l.82-.78c.72,.48,1.52,1,2.28,1.58,.64-.64,1.16-1.28,1.56-1.92l1.08,.56c-.48,.7-1.04,1.4-1.72,2.06,.86,.66,1.66,1.34,2.16,1.88l-.86,.86Zm2.02-8.14c-.52-.98-1.64-2.48-2.84-3.78,.88-1.16,1.82-2.62,2.34-3.52l1.34,.34c-.6,.96-1.44,2.18-2.14,3.14,.96,1.06,2,2.4,2.5,3.22l-1.2,.6Z"/><path d="M560.61,194.34v1.44h-18.26v-1.44h2v-11.84h4.56c.54-1.16,1.12-2.74,1.44-3.9l1.72,.42c-.48,1.14-1.04,2.42-1.58,3.48h8.28v11.84h1.84Zm-14.8,0h2.86v-10.42h-2.86v10.42Zm7.14-10.42h-2.92v10.42h2.92v-10.42Zm1.4,0v10.42h2.92v-10.42h-2.92Z"/><path d="M565.51,181.24c-.64,1-1.36,1.9-2.08,2.58-.2-.24-.72-.74-1.04-.98,1.24-1.1,2.38-2.7,3.06-4.36l1.32,.36c-.18,.4-.36,.8-.58,1.2h5.16v1.2h-3.78c.62,.54,1.36,1.28,1.74,1.74l-.98,.82c-.4-.52-1.22-1.36-1.86-1.98l.76-.58h-1.72Zm6.1,1.42c.28,.46,.62,1.04,.8,1.54h7.28v3.26h-1.48v-2.08h-13.22v2.08h-1.44v-3.26h7.34c-.18-.42-.38-.88-.6-1.26l1.32-.28Zm-4.38,9.3h11.08v4.88h-1.46v-.64h-9.62v.68h-1.48v-10.28h11.52v3.98h-10.04v1.38Zm0-4.22v1.7h8.58v-1.7h-8.58Zm0,5.38v1.92h9.62v-1.92h-9.62Zm13.26-13.06v1.18h-4.3c.72,.58,1.6,1.34,2.06,1.86l-1,.88c-.46-.56-1.38-1.42-2.12-2.04l.86-.7h-2.28c-.46,.62-.94,1.2-1.46,1.64-.24-.22-.78-.68-1.12-.88,1.08-.86,1.98-2.16,2.48-3.52l1.36,.34c-.16,.42-.34,.84-.56,1.24h6.08Z"/><path d="M586.95,182.24v4.54c0,3.08-.38,7.32-2.82,10.1-.26-.28-.88-.74-1.24-.9,1.54-1.72,2.16-3.9,2.42-6.02-.88,.56-1.76,1.12-2.56,1.62l-.54-1.34c.82-.4,2-1.08,3.22-1.78,.04-.58,.04-1.16,.04-1.68v-.94l-1.22,.56c-.34-.92-1.16-2.36-1.86-3.44l1.2-.48c.7,1,1.48,2.36,1.88,3.24v-4.84h7.16c-.24-.64-.56-1.44-.84-2.04l1.44-.34c.38,.76,.78,1.7,1.02,2.38h6.26v1.36h-13.56Zm7.54,8.4c-.5,2.18-2.04,4.5-6.44,6.28-.2-.32-.64-.86-.98-1.12,3.9-1.48,5.38-3.38,5.9-5.16h-5.02v-1.36h5.28c.04-.36,.04-.7,.04-1.04v-2.12h-2.58c-.46,1.04-1,1.98-1.56,2.72-.28-.22-.88-.62-1.24-.78,1.16-1.36,2.04-3.44,2.56-5.5l1.4,.3c-.16,.64-.36,1.3-.6,1.92h8.24v1.34h-4.74v2.14c0,.34,0,.66-.04,1.02h5.54v1.36h-5.76Zm1.5,.52c1.56,1.5,3.66,3.56,4.72,4.78l-1.1,.84c-1-1.24-3.06-3.38-4.64-4.9l1.02-.72Z"/><path d="M620.59,180.88v1.34h-13.6v4.58c0,3.1-.42,7.34-3.14,10.08-.22-.28-.78-.8-1.08-1,1.62-1.66,2.3-3.76,2.6-5.8-.9,.54-1.82,1.06-2.64,1.52l-.52-1.36c.9-.36,2.06-1,3.3-1.64,.04-.64,.06-1.24,.06-1.82v-5.9h7.02c-.2-.64-.44-1.4-.68-2l1.56-.32c.3,.74,.64,1.64,.84,2.32h6.28Zm-16.52,5.86c-.22-.98-.88-2.54-1.54-3.72l1.1-.52c.7,1.12,1.4,2.66,1.6,3.64l-1.16,.6Zm3.76-2.78h12.56v1.3h-5.8v2.04h5.24v7.88c0,.76-.16,1.16-.7,1.4-.58,.24-1.48,.24-2.88,.24-.06-.4-.28-.96-.48-1.32,1.06,.04,2,.02,2.26,0,.3,0,.38-.08,.38-.34v-6.56h-3.86c-.02,.36-.08,.72-.16,1.08,1.24,1.1,2.76,2.58,3.54,3.54l-.98,.84c-.64-.84-1.82-2.1-2.96-3.16-.5,1.2-1.46,2.4-3.18,3.32-.2-.28-.62-.76-.9-1.02,2.5-1.18,3.12-3.04,3.26-4.6h-3.54v8.28h-1.36v-9.58h4.94v-2.04h-5.38v-1.3Z"/><path class="h" d="M640.18,184.78c0,.74-.21,1.4-.64,1.98-.43,.58-1,1.01-1.7,1.28,.82,.28,1.48,.73,1.97,1.36,.5,.62,.74,1.35,.74,2.17,0,1.22-.41,2.18-1.24,2.9-.83,.71-1.92,1.07-3.28,1.07s-2.47-.35-3.3-1.06c-.82-.71-1.24-1.68-1.24-2.9,0-.81,.24-1.53,.71-2.16,.48-.63,1.13-1.09,1.95-1.37-.7-.27-1.26-.7-1.68-1.28-.42-.58-.62-1.24-.62-1.98,0-1.18,.38-2.12,1.14-2.81,.76-.7,1.76-1.04,3.01-1.04s2.26,.35,3.02,1.05c.77,.7,1.15,1.64,1.15,2.8Zm-.8,6.8c0-.88-.32-1.61-.95-2.18-.63-.57-1.44-.86-2.42-.86s-1.79,.28-2.41,.84c-.62,.56-.94,1.29-.94,2.2s.3,1.63,.91,2.16,1.43,.8,2.46,.8,1.82-.27,2.43-.8c.61-.53,.92-1.26,.92-2.17Zm-.37-6.81c0-.81-.28-1.49-.84-2.04-.56-.54-1.28-.82-2.15-.82s-1.6,.26-2.15,.79c-.55,.52-.83,1.21-.83,2.06s.28,1.5,.83,2.01c.55,.51,1.27,.76,2.16,.76s1.6-.25,2.15-.77c.56-.51,.83-1.18,.83-2.01Z"/><path class="h" d="M642.97,194.63c0-.23,.07-.42,.22-.58,.15-.16,.35-.24,.61-.24s.47,.08,.62,.24c.15,.16,.22,.35,.22,.58s-.07,.42-.22,.56c-.15,.15-.35,.22-.62,.22s-.46-.07-.61-.22-.22-.33-.22-.56Z"/><path class="h" d="M656.42,181.79l-6.07,13.54h-1.22l6.04-13.22h-8.09v-1h9.35v.67Z"/><path class="h" d="M667.13,184.78c0,.74-.21,1.4-.64,1.98-.43,.58-1,1.01-1.7,1.28,.82,.28,1.48,.73,1.97,1.36s.74,1.35,.74,2.17c0,1.22-.41,2.18-1.24,2.9s-1.92,1.07-3.28,1.07-2.47-.35-3.3-1.06c-.82-.71-1.24-1.68-1.24-2.9,0-.81,.24-1.53,.71-2.16,.48-.63,1.13-1.09,1.95-1.37-.7-.27-1.26-.7-1.68-1.28-.42-.58-.62-1.24-.62-1.98,0-1.18,.38-2.12,1.14-2.81,.76-.7,1.76-1.04,3.01-1.04s2.26,.35,3.02,1.05,1.15,1.64,1.15,2.8Zm-.8,6.8c0-.88-.32-1.61-.95-2.18-.63-.57-1.44-.86-2.42-.86s-1.79,.28-2.41,.84c-.62,.56-.94,1.29-.94,2.2s.3,1.63,.91,2.16,1.43,.8,2.46,.8,1.82-.27,2.43-.8c.61-.53,.92-1.26,.92-2.17Zm-.37-6.81c0-.81-.28-1.49-.84-2.04-.56-.54-1.28-.82-2.15-.82s-1.6,.26-2.15,.79c-.55,.52-.83,1.21-.83,2.06s.28,1.5,.83,2.01,1.27,.76,2.16,.76,1.6-.25,2.15-.77c.56-.51,.83-1.18,.83-2.01Z"/><path class="h" d="M669.56,183.85c0-.85,.26-1.55,.79-2.1s1.19-.84,2-.84,1.47,.28,2,.84,.79,1.28,.79,2.16v.69c0,.83-.26,1.53-.78,2.09s-1.18,.83-1.99,.83-1.47-.27-2-.82-.8-1.27-.8-2.17v-.68Zm.95,.75c0,.61,.17,1.11,.5,1.5,.33,.39,.79,.59,1.35,.59s.99-.2,1.32-.59,.49-.9,.49-1.53v-.71c0-.61-.17-1.11-.51-1.5-.34-.39-.78-.59-1.33-.59s-.98,.2-1.32,.59c-.34,.39-.51,.91-.51,1.57v.69Zm2.23,9.55l-.73-.47,6.94-11.11,.73,.47-6.94,11.11Zm3.98-2.3c0-.85,.26-1.55,.79-2.1,.52-.55,1.19-.83,1.99-.83s1.47,.28,2,.83c.53,.55,.8,1.27,.8,2.17v.69c0,.85-.26,1.55-.79,2.1-.52,.55-1.19,.83-1.99,.83s-1.47-.27-2-.82c-.53-.55-.8-1.27-.8-2.15v-.71Zm.94,.76c0,.61,.17,1.12,.5,1.51,.33,.39,.79,.59,1.35,.59s1-.2,1.33-.59,.49-.91,.49-1.55v-.71c0-.62-.17-1.13-.5-1.51-.33-.38-.78-.57-1.34-.57s-.99,.19-1.33,.58-.51,.9-.51,1.55v.72Z"/></g><g><path d="M531.5,271.75c-.36,2.1-1.16,4.9-2.06,6.34-.14-.4-.44-.96-.68-1.3,.74-1.2,1.52-3.54,1.84-5.32l.9,.28Zm1.42-1.5v10.18h-1.2v-10.18h-2.66v-1.4h2.66v-6.66h1.2v6.66h2.32v1.4h-2.32Zm-2.78-2.32c-.16-1.14-.56-2.9-.94-4.24l.96-.22c.42,1.34,.84,3.08,1.02,4.22l-1.04,.24Zm4.48,7.86c-.28-.92-1.16-3.08-1.52-3.82l.78-.52c.3,.5,1.46,2.8,1.72,3.36l-.98,.98Zm1.04-12.02c-.46,1.42-1,3.18-1.46,4.24l-.88-.3c.4-1.1,.94-2.98,1.18-4.28l1.16,.34Zm11.6,.5v1.3h-9.54v4.38c0,3.1-.32,7.46-2.38,10.42-.24-.26-.78-.64-1.12-.76,1.98-2.84,2.18-6.76,2.18-9.66v-5.68h4.86c-.18-.6-.4-1.3-.62-1.84l1.46-.3c.28,.66,.58,1.52,.76,2.14h4.4Zm-1.06,5.3h1.06v1.28h-1.06v2.42h-3.36v1.38h3.56v5.74h-1.34v-.74h-5.24v.78h-1.28v-5.78h2.98v-1.38h-3.12v-1.1h3.12v-1.42h-3.72v-1.08h3.72v-1.42h-3.06v-1.1h3.06v-1.32h1.32v1.32h3.36v2.42Zm-1.14,6.3h-5.24v2.62h5.24v-2.62Zm-2.22-6.2h2.1v-1.42h-2.1v1.42Zm2.1,2.5v-1.42h-2.1v1.42h2.1Z"/><path d="M552.34,268.75c0,3.34-.26,8.18-2.18,11.42-.28-.24-.94-.6-1.32-.74,1.86-3.12,2.02-7.5,2.02-10.68v-5.78h14.82v5.24h-13.34v.54Zm5.66,2.48c-.74,4.1-2.54,6.5-4.96,7.82-.18-.3-.72-.84-1.04-1.04,2.06-1.02,3.62-2.84,4.36-5.68h-3.46v-1.32h4l.26-.04,.84,.26Zm-5.66-6.88v2.48h11.86v-2.48h-11.86Zm14,6.46c-1.16,1.18-2.64,2.48-3.9,3.44,1.24,1.62,2.86,2.9,4.72,3.58-.34,.3-.78,.86-1,1.26-2.5-1.1-4.46-3.2-5.84-5.8v5.36c0,.84-.18,1.22-.74,1.46-.54,.24-1.44,.26-2.8,.26-.08-.42-.3-1-.52-1.4,1,.04,1.96,.04,2.2,.02,.3-.02,.38-.08,.38-.36v-10.16h1.48v1.9c.36,1.02,.82,2,1.4,2.88,1.18-.98,2.54-2.28,3.38-3.3l1.24,.86Z"/><path d="M587.24,264.45v1.34h-13.6v4.58c0,3.1-.42,7.34-3.14,10.08-.22-.28-.78-.8-1.08-1,1.62-1.66,2.3-3.76,2.6-5.8-.9,.54-1.82,1.06-2.64,1.52l-.52-1.36c.9-.36,2.06-1,3.3-1.64,.04-.64,.06-1.24,.06-1.82v-5.9h7.02c-.2-.64-.44-1.4-.68-2l1.56-.32c.3,.74,.64,1.64,.84,2.32h6.28Zm-16.52,5.86c-.22-.98-.88-2.54-1.54-3.72l1.1-.52c.7,1.12,1.4,2.66,1.6,3.64l-1.16,.6Zm3.76-2.78h12.56v1.3h-5.8v2.04h5.24v7.88c0,.76-.16,1.16-.7,1.4-.58,.24-1.48,.24-2.88,.24-.06-.4-.28-.96-.48-1.32,1.06,.04,2,.02,2.26,0,.3,0,.38-.08,.38-.34v-6.56h-3.86c-.02,.36-.08,.72-.16,1.08,1.24,1.1,2.76,2.58,3.54,3.54l-.98,.84c-.64-.84-1.82-2.1-2.96-3.16-.5,1.2-1.46,2.4-3.18,3.32-.2-.28-.62-.76-.9-1.02,2.5-1.18,3.12-3.04,3.26-4.6h-3.54v8.28h-1.36v-9.58h4.94v-2.04h-5.38v-1.3Z"/><path class="h" d="M607.22,265.37l-6.07,13.54h-1.22l6.04-13.22h-8.09v-1h9.35v.67Z"/><path class="h" d="M609.62,278.21c0-.23,.07-.42,.22-.58,.15-.16,.35-.24,.61-.24s.47,.08,.62,.24c.15,.16,.22,.35,.22,.58s-.07,.42-.22,.56c-.15,.15-.35,.22-.62,.22s-.46-.07-.61-.22-.22-.33-.22-.56Z"/><path class="h" d="M621.21,264.59v1.02h-.14c-1.7,0-3.04,.5-4.01,1.5s-1.52,2.39-1.62,4.17c.39-.54,.89-.96,1.49-1.25,.61-.3,1.28-.44,2.03-.44,1.25,0,2.25,.43,2.98,1.29,.74,.86,1.11,1.99,1.11,3.38,0,.92-.17,1.76-.52,2.5-.34,.74-.84,1.32-1.48,1.73-.64,.41-1.38,.62-2.21,.62-1.36,0-2.47-.49-3.32-1.48-.85-.99-1.28-2.26-1.28-3.82v-1.17c0-2.54,.58-4.52,1.74-5.91,1.16-1.4,2.8-2.11,4.93-2.13h.29Zm-2.43,6.01c-.74,0-1.43,.22-2.08,.66-.64,.44-1.07,1-1.28,1.67v1c0,1.24,.32,2.24,.95,3.02s1.46,1.17,2.48,1.17c.91,0,1.65-.36,2.21-1.08,.56-.72,.84-1.63,.84-2.73s-.28-2.02-.84-2.69c-.56-.68-1.32-1.01-2.28-1.01Z"/><path class="h" d="M632.29,264.59v1.02h-.14c-1.7,0-3.04,.5-4.01,1.5s-1.52,2.39-1.62,4.17c.39-.54,.89-.96,1.49-1.25,.61-.3,1.28-.44,2.03-.44,1.25,0,2.25,.43,2.98,1.29,.74,.86,1.11,1.99,1.11,3.38,0,.92-.17,1.76-.52,2.5-.34,.74-.84,1.32-1.48,1.73-.64,.41-1.38,.62-2.21,.62-1.36,0-2.47-.49-3.32-1.48-.85-.99-1.28-2.26-1.28-3.82v-1.17c0-2.54,.58-4.52,1.74-5.91,1.16-1.4,2.8-2.11,4.93-2.13h.29Zm-2.43,6.01c-.74,0-1.43,.22-2.08,.66-.64,.44-1.07,1-1.28,1.67v1c0,1.24,.32,2.24,.95,3.02s1.46,1.17,2.48,1.17c.91,0,1.65-.36,2.21-1.08,.56-.72,.84-1.63,.84-2.73s-.28-2.02-.84-2.69c-.56-.68-1.32-1.01-2.28-1.01Z"/><path class="h" d="M636.21,267.43c0-.85,.26-1.55,.79-2.1,.52-.56,1.19-.83,2-.83s1.47,.28,2,.83c.52,.56,.79,1.28,.79,2.16v.69c0,.83-.26,1.53-.78,2.08s-1.18,.83-1.99,.83-1.47-.27-2-.82c-.53-.55-.8-1.27-.8-2.17v-.68Zm.95,.75c0,.61,.17,1.11,.5,1.5,.34,.39,.79,.59,1.35,.59s1-.2,1.32-.59c.33-.39,.49-.91,.49-1.53v-.71c0-.61-.17-1.11-.51-1.5-.34-.39-.78-.59-1.33-.59s-.98,.2-1.32,.59c-.34,.39-.51,.91-.51,1.57v.69Zm2.23,9.55l-.73-.47,6.94-11.11,.73,.47-6.94,11.11Zm3.98-2.3c0-.85,.26-1.55,.79-2.1,.52-.55,1.19-.83,1.99-.83s1.47,.28,2,.83c.53,.55,.8,1.27,.8,2.17v.69c0,.85-.26,1.55-.79,2.1-.52,.55-1.19,.83-1.99,.83s-1.47-.27-2-.83c-.53-.55-.8-1.27-.8-2.15v-.71Zm.94,.76c0,.61,.17,1.12,.5,1.51,.34,.39,.79,.59,1.35,.59s1-.2,1.33-.59c.33-.39,.49-.91,.49-1.55v-.71c0-.63-.17-1.13-.5-1.51-.33-.38-.78-.57-1.34-.57s-.99,.19-1.33,.58c-.34,.39-.51,.9-.51,1.55v.72Z"/></g><g><path d="M522.98,333.24v1.28h-17.42v-1.28h8.18c-.18-.58-.42-1.26-.62-1.82l1.44-.34c.28,.68,.58,1.52,.8,2.16h7.62Zm-.64,14.6c0,.72-.18,1.02-.72,1.22-.52,.18-1.38,.2-2.64,.18-.08-.34-.3-.8-.48-1.1,.86,.04,1.78,.02,2.02,.02,.26-.02,.34-.08,.34-.32v-5.86h-13.14v7.42h-1.44v-8.68h16.06v7.12Zm-2.16-12.2v4h-11.6v-4h11.6Zm-1.8,11.62h-7.04v.98h-1.38v-5.08h8.42v4.1Zm.28-10.52h-8.62v1.8h8.62v-1.8Zm-7.32,7.54v1.86h5.7v-1.86h-5.7Z"/><path d="M543.44,346.88v1.44h-18.26v-1.44h2v-11.84h4.56c.54-1.16,1.12-2.74,1.44-3.9l1.72,.42c-.48,1.14-1.04,2.42-1.58,3.48h8.28v11.84h1.84Zm-14.8,0h2.86v-10.42h-2.86v10.42Zm7.14-10.42h-2.92v10.42h2.92v-10.42Zm1.4,0v10.42h2.92v-10.42h-2.92Z"/><path d="M547.79,339.02c0,2.96-.2,7.18-1.66,9.96-.24-.22-.84-.54-1.14-.7,1.36-2.64,1.48-6.42,1.48-9.24v-7h16.46v1.14h-15.14v5.84Zm8.38,8.7h6.92v1.14h-15.46v-1.14h7.1v-1.6h-5.74v-1.14h5.74v-1.08h1.44v1.08h5.62v1.14h-5.62v1.6Zm3.66-9.82c.54,2.24,1.66,4.1,3.44,4.9-.32,.26-.7,.7-.88,1.06-1.56-.86-2.58-2.42-3.24-4.38-.4,1.54-1.3,3.04-3.24,4.3-.18-.22-.48-.54-.76-.76-.06,.32-.22,.46-.54,.58-.44,.16-1.16,.16-2.3,.16-.08-.28-.24-.6-.38-.86,.82,.02,1.56,.02,1.76,.02,.22-.02,.28-.08,.28-.28v-1c-1.42,.36-2.86,.74-4.06,1l-.28-.62c-.1,.68-.32,1.34-.72,1.9-.22-.22-.76-.58-1.02-.68,.62-.84,.66-1.86,.66-2.76v-2.26h6.62v4.66c2.24-1.46,2.9-3.3,3.1-4.98h-2.68v-1.22h2.74v-2.94h1.14v2.94h3.36v1.22h-3Zm-4.96-.4h-5.98v-3.6h5.98v3.6Zm-5.14,3.02c0,.36-.02,.8-.06,1.22,1.16-.24,2.7-.56,4.3-.94v-1.7h-4.24v1.42Zm4-5.88h-3.74v.68h3.74v-.68Zm0,1.4h-3.74v.72h3.74v-.72Zm-3.4,3.4c1.06,.18,2.42,.5,3.18,.74l-.3,.72c-.76-.26-2.14-.6-3.18-.82l.3-.64Zm11.38-3c-.32-.58-1.04-1.44-1.68-2.04l.86-.5c.66,.56,1.4,1.38,1.74,1.94l-.92,.6Z"/><path d="M564.91,340.04c.54-1.32,.9-3.5,1.04-5.12l1.12,.16c-.1,1.64-.48,3.9-1,5.36l-1.16-.4Zm2.88-8.9h1.48v18.26h-1.48v-18.26Zm2.66,3.2c.6,1.08,1.22,2.5,1.46,3.34l-1.12,.54c-.22-.86-.82-2.3-1.38-3.4l1.04-.48Zm12.74,12.96v1.42h-12.2v-1.42h5.72v-5h-4.24v-1.38h4.24v-4.14h-2.92c-.4,1.2-.86,2.24-1.4,3.1-.3-.2-.96-.52-1.32-.68,1.16-1.74,1.96-4.42,2.42-7.14l1.44,.24c-.2,1.04-.44,2.08-.72,3.06h2.5v-4.14h1.48v4.14h4.52v1.42h-4.52v4.14h4.08v1.38h-4.08v5h5Z"/><path d="M589.77,334.78v4.54c0,3.08-.38,7.32-2.82,10.1-.26-.28-.88-.74-1.24-.9,1.54-1.72,2.16-3.9,2.42-6.02-.88,.56-1.76,1.12-2.56,1.62l-.54-1.34c.82-.4,2-1.08,3.22-1.78,.04-.58,.04-1.16,.04-1.68v-.94l-1.22,.56c-.34-.92-1.16-2.36-1.86-3.44l1.2-.48c.7,1,1.48,2.36,1.88,3.24v-4.84h7.16c-.24-.64-.56-1.44-.84-2.04l1.44-.34c.38,.76,.78,1.7,1.02,2.38h6.26v1.36h-13.56Zm7.54,8.4c-.5,2.18-2.04,4.5-6.44,6.28-.2-.32-.64-.86-.98-1.12,3.9-1.48,5.38-3.38,5.9-5.16h-5.02v-1.36h5.28c.04-.36,.04-.7,.04-1.04v-2.12h-2.58c-.46,1.04-1,1.98-1.56,2.72-.28-.22-.88-.62-1.24-.78,1.16-1.36,2.04-3.44,2.56-5.5l1.4,.3c-.16,.64-.36,1.3-.6,1.92h8.24v1.34h-4.74v2.14c0,.34,0,.66-.04,1.02h5.54v1.36h-5.76Zm1.5,.52c1.56,1.5,3.66,3.56,4.72,4.78l-1.1,.84c-1-1.24-3.06-3.38-4.64-4.9l1.02-.72Z"/><path d="M623.42,333.42v1.34h-13.6v4.58c0,3.1-.42,7.34-3.14,10.08-.22-.28-.78-.8-1.08-1,1.62-1.66,2.3-3.76,2.6-5.8-.9,.54-1.82,1.06-2.64,1.52l-.52-1.36c.9-.36,2.06-1,3.3-1.64,.04-.64,.06-1.24,.06-1.82v-5.9h7.02c-.2-.64-.44-1.4-.68-2l1.56-.32c.3,.74,.64,1.64,.84,2.32h6.28Zm-16.52,5.86c-.22-.98-.88-2.54-1.54-3.72l1.1-.52c.7,1.12,1.4,2.66,1.6,3.64l-1.16,.6Zm3.76-2.78h12.56v1.3h-5.8v2.04h5.24v7.88c0,.76-.16,1.16-.7,1.4-.58,.24-1.48,.24-2.88,.24-.06-.4-.28-.96-.48-1.32,1.06,.04,2,.02,2.26,0,.3,0,.38-.08,.38-.34v-6.56h-3.86c-.02,.36-.08,.72-.16,1.08,1.24,1.1,2.76,2.58,3.54,3.54l-.98,.84c-.64-.84-1.82-2.1-2.96-3.16-.5,1.2-1.46,2.4-3.18,3.32-.2-.28-.62-.76-.9-1.02,2.5-1.18,3.12-3.04,3.26-4.6h-3.54v8.28h-1.36v-9.58h4.94v-2.04h-5.38v-1.3Z"/><path class="h" d="M641.81,343.3h2.22v.99h-2.22v3.59h-1.17v-3.59h-6.69v-.66l6.58-9.96h1.28v9.64Zm-6.43,0h5.25v-8.12l-.52,.9-4.74,7.23Z"/><path class="h" d="M645.79,347.18c0-.23,.07-.42,.22-.58s.35-.24,.61-.24,.47,.08,.62,.24,.22,.35,.22,.58-.08,.42-.22,.56-.35,.22-.62,.22-.46-.07-.61-.22-.22-.33-.22-.56Z"/><path class="h" d="M657.78,341.3c-.42,.61-.93,1.09-1.55,1.42s-1.29,.5-2.01,.5c-.81,0-1.52-.21-2.14-.62s-1.1-.99-1.44-1.73-.51-1.54-.51-2.41c0-.94,.18-1.79,.54-2.56s.87-1.37,1.51-1.79,1.39-.64,2.24-.64c1.43,0,2.54,.5,3.33,1.5s1.19,2.42,1.19,4.25v1.05c0,2.56-.55,4.49-1.64,5.78s-2.76,1.93-5.01,1.93h-.21v-1.02h.42c1.7-.03,2.99-.51,3.88-1.45s1.35-2.35,1.4-4.23Zm-3.42,.91c.78,0,1.48-.23,2.1-.7s1.06-1.07,1.32-1.81v-.67c0-1.44-.3-2.56-.9-3.36s-1.41-1.19-2.44-1.19c-.92,0-1.68,.37-2.28,1.12-.59,.74-.89,1.68-.89,2.81s.29,1.99,.85,2.71,1.31,1.09,2.22,1.09Z"/><path class="h" d="M669.95,337.33c0,.74-.21,1.39-.64,1.98s-1,1.01-1.7,1.28c.82,.28,1.48,.73,1.97,1.36s.74,1.35,.74,2.17c0,1.22-.41,2.18-1.24,2.9s-1.92,1.07-3.28,1.07-2.47-.36-3.3-1.06-1.24-1.68-1.24-2.9c0-.81,.24-1.53,.71-2.16s1.13-1.09,1.95-1.37c-.7-.27-1.26-.7-1.68-1.28s-.62-1.24-.62-1.98c0-1.18,.38-2.12,1.14-2.81s1.76-1.04,3.01-1.04,2.26,.35,3.02,1.05,1.15,1.64,1.15,2.8Zm-.8,6.8c0-.88-.32-1.61-.95-2.18s-1.44-.85-2.42-.85-1.79,.28-2.41,.84-.94,1.29-.94,2.2,.3,1.63,.91,2.16,1.43,.81,2.46,.81,1.82-.27,2.43-.8,.92-1.26,.92-2.17Zm-.37-6.81c0-.81-.28-1.49-.84-2.04s-1.28-.82-2.15-.82-1.6,.26-2.15,.79-.83,1.21-.83,2.07,.28,1.5,.83,2.01,1.27,.76,2.16,.76,1.6-.26,2.15-.77,.83-1.18,.83-2.01Z"/><path class="h" d="M672.38,336.4c0-.85,.26-1.55,.79-2.1s1.19-.83,2-.83,1.47,.28,2,.83,.79,1.28,.79,2.16v.69c0,.83-.26,1.53-.78,2.08s-1.18,.83-1.99,.83-1.47-.27-2-.82-.8-1.27-.8-2.17v-.68Zm.95,.75c0,.61,.17,1.11,.5,1.5s.79,.59,1.35,.59,.99-.2,1.32-.59,.49-.91,.49-1.53v-.71c0-.61-.17-1.11-.51-1.5s-.78-.59-1.33-.59-.98,.2-1.32,.59-.51,.91-.51,1.57v.7Zm2.23,9.55l-.73-.47,6.94-11.11,.73,.47-6.94,11.11Zm3.98-2.3c0-.85,.26-1.55,.79-2.1s1.19-.83,1.99-.83,1.47,.28,2,.83,.8,1.27,.8,2.17v.69c0,.85-.26,1.55-.79,2.1s-1.19,.83-1.99,.83-1.47-.28-2-.83-.8-1.27-.8-2.15v-.71Zm.94,.76c0,.61,.17,1.12,.5,1.51s.79,.59,1.35,.59,1-.2,1.33-.59,.49-.91,.49-1.55v-.71c0-.63-.17-1.13-.5-1.51-.33-.38-.78-.57-1.34-.57s-.99,.19-1.33,.58c-.34,.39-.51,.9-.51,1.55v.72Z"/></g><g><path d="M505.6,382.36h-8.12v-7.66h7.8v1.06h-2.68v1.16h2.6v3.1h-2.6v1.22h3v1.12Zm6.14,8.2c0,.78-.18,1.14-.76,1.36-.62,.2-1.58,.22-3.14,.2-.06-.38-.28-.86-.46-1.22,1.16,.02,2.24,.02,2.52,0,.32-.02,.42-.1,.42-.36v-1.96c-3.2,.8-6.54,1.58-9,2.12l-.42-1.4c1.98-.34,5-.92,8.06-1.52-1.88-.58-5.08-1.44-7.54-2l.52-.94c2.54,.52,6.02,1.38,7.86,1.96l-.42,.88,.94-.16v-3.16h-9.38v2.42c0,1.78-.3,4.02-1.9,5.52-.18-.34-.74-.94-1.04-1.14,1.34-1.26,1.48-2.96,1.48-4.4v-3.6h12.26v7.4Zm-12.9-14.8v1.16h2.46v-1.16h-2.46Zm5,2.04h-5v1.32h5v-1.32Zm-5,3.44h2.46v-1.22h-2.46v1.22Zm15.02-6.16c-.64,1.88-1.64,3.44-2.92,4.64,1.08,.84,2.3,1.46,3.68,1.84-.32,.28-.68,.8-.88,1.16-1.44-.48-2.7-1.18-3.82-2.12-1.08,.86-2.28,1.5-3.54,1.98-.16-.32-.5-.8-.76-1.06,1.18-.4,2.34-1,3.36-1.82-1-1.06-1.84-2.3-2.42-3.72h-.48v-1.2h6.62l.28-.06,.88,.36Zm-6,.9c.52,1.08,1.22,2.06,2.08,2.9,.88-.84,1.6-1.8,2.12-2.9h-4.2Z"/><path d="M526.34,381.82c-.06,.62-.1,1.24-.2,1.82,.94,4.28,3.26,6.5,8.52,7.08-.3,.3-.64,.92-.82,1.34-4.56-.68-6.98-2.48-8.3-5.86-.96,2.86-3.02,4.88-7.9,5.98-.14-.4-.5-.96-.78-1.28,6.7-1.34,7.56-4.46,7.94-9.08h1.54Zm6.36,1.26c-1.62-1.18-4.8-2.96-7.44-4.24-1.08,2.16-3.16,3.64-7.3,4.46-.12-.34-.48-.9-.72-1.2,6.32-1.16,7.26-3.82,7.66-8.16h1.5c-.12,1.36-.3,2.58-.64,3.66,2.62,1.2,6,2.94,7.72,4.16l-.78,1.32Zm-11.66,4.54c-.62-.84-1.82-2.26-2.76-3.3l1.08-.74c.96,.98,2.2,2.34,2.82,3.14l-1.14,.9Zm.06-8.6c-.58-.82-1.72-2.18-2.62-3.16l1.1-.78c.9,.94,2.1,2.22,2.68,3.02l-1.16,.92Zm7.52,8.02c.78-.94,1.8-2.42,2.38-3.52l1.42,.52c-.78,1.24-1.8,2.6-2.6,3.5l-1.2-.5Zm3.94-11.4c-.82,1.18-1.86,2.44-2.68,3.26l-1.22-.48c.8-.86,1.86-2.24,2.44-3.26l1.46,.48Z"/><path d="M543.52,384.82l-1.36,1.14c-1.3-1.58-3-3.28-4.42-4.44l1.3-1.14c1.42,1.16,3.24,2.96,4.48,4.44Z"/><path d="M555.6,382.36h-8.12v-7.66h7.8v1.06h-2.68v1.16h2.6v3.1h-2.6v1.22h3v1.12Zm6.14,8.2c0,.78-.18,1.14-.76,1.36-.62,.2-1.58,.22-3.14,.2-.06-.38-.28-.86-.46-1.22,1.16,.02,2.24,.02,2.52,0,.32-.02,.42-.1,.42-.36v-1.96c-3.2,.8-6.54,1.58-9,2.12l-.42-1.4c1.98-.34,5-.92,8.06-1.52-1.88-.58-5.08-1.44-7.54-2l.52-.94c2.54,.52,6.02,1.38,7.86,1.96l-.42,.88,.94-.16v-3.16h-9.38v2.42c0,1.78-.3,4.02-1.9,5.52-.18-.34-.74-.94-1.04-1.14,1.34-1.26,1.48-2.96,1.48-4.4v-3.6h12.26v7.4Zm-12.9-14.8v1.16h2.46v-1.16h-2.46Zm5,2.04h-5v1.32h5v-1.32Zm-5,3.44h2.46v-1.22h-2.46v1.22Zm15.02-6.16c-.64,1.88-1.64,3.44-2.92,4.64,1.08,.84,2.3,1.46,3.68,1.84-.32,.28-.68,.8-.88,1.16-1.44-.48-2.7-1.18-3.82-2.12-1.08,.86-2.28,1.5-3.54,1.98-.16-.32-.5-.8-.76-1.06,1.18-.4,2.34-1,3.36-1.82-1-1.06-1.84-2.3-2.42-3.72h-.48v-1.2h6.62l.28-.06,.88,.36Zm-6,.9c.52,1.08,1.22,2.06,2.08,2.9,.88-.84,1.6-1.8,2.12-2.9h-4.2Z"/><path d="M584.74,376.19v1.34h-13.6v4.58c0,3.1-.42,7.34-3.14,10.08-.22-.28-.78-.8-1.08-1,1.62-1.66,2.3-3.76,2.6-5.8-.9,.54-1.82,1.06-2.64,1.52l-.52-1.36c.9-.36,2.06-1,3.3-1.64,.04-.64,.06-1.24,.06-1.82v-5.9h7.02c-.2-.64-.44-1.4-.68-2l1.56-.32c.3,.74,.64,1.64,.84,2.32h6.28Zm-16.52,5.86c-.22-.98-.88-2.54-1.54-3.72l1.1-.52c.7,1.12,1.4,2.66,1.6,3.64l-1.16,.6Zm3.76-2.78h12.56v1.3h-5.8v2.04h5.24v7.88c0,.76-.16,1.16-.7,1.4-.58,.24-1.48,.24-2.88,.24-.06-.4-.28-.96-.48-1.32,1.06,.04,2,.02,2.26,0,.3,0,.38-.08,.38-.34v-6.56h-3.86c-.02,.36-.08,.72-.16,1.08,1.24,1.1,2.76,2.58,3.54,3.54l-.98,.84c-.64-.84-1.82-2.1-2.96-3.16-.5,1.2-1.46,2.4-3.18,3.32-.2-.28-.62-.76-.9-1.02,2.5-1.18,3.12-3.04,3.26-4.6h-3.54v8.28h-1.36v-9.58h4.94v-2.04h-5.38v-1.3Z"/><path d="M604.78,376.09v1.36h-13.66v4.62c0,3.1-.42,7.42-3.12,10.18-.22-.28-.78-.8-1.08-1,1.6-1.68,2.28-3.76,2.58-5.82-.9,.54-1.82,1.06-2.64,1.52l-.52-1.36c.9-.4,2.06-1,3.3-1.66,.04-.66,.06-1.28,.06-1.88v-5.96h7.08c-.22-.6-.5-1.3-.76-1.86l1.46-.34c.36,.7,.74,1.56,.94,2.2h6.36Zm-16.6,6c-.2-.98-.86-2.56-1.52-3.72l1.1-.54c.7,1.14,1.4,2.66,1.6,3.64l-1.18,.62Zm10.82,8h5.78v1.38h-13.92v-1.38h2.34v-6.72h1.36v6.72h3v-9.22h-5.3v-1.38h11.94v1.38h-5.2v3.48h4.82v1.34h-4.82v4.4Z"/><path d="M611.64,374.41c-.44,1.5-1,2.98-1.64,4.4v13.4h-1.42v-10.68c-.46,.8-.94,1.5-1.44,2.12-.12-.32-.52-1.14-.8-1.48,1.64-2.02,3.06-5.06,3.94-8.14l1.36,.38Zm-.04,3.88h1.32v10.02h-1.32v-10.02Zm8.08,8.68c-.4,1.84-1.76,3.84-5.64,5.26-.2-.32-.64-.84-.96-1.1,3.48-1.14,4.7-2.7,5.12-4.16h-4.46v-1.28h4.66v-2.6h-2.18c-.44,.84-.96,1.58-1.48,2.18-.26-.2-.82-.58-1.16-.78,1.08-1.1,1.96-2.82,2.48-4.56l1.34,.32c-.16,.54-.36,1.08-.58,1.58h7.18v1.26h-4.14v2.6h4.8v1.28h-4.98Zm4.96-7.16h-10.94v-1.28h7.18c.16-.78,.28-1.64,.4-2.38h-6.46v-1.26h6.74l.24-.08,1.02,.12c-.14,1.16-.34,2.46-.52,3.6h2.34v1.28Zm-3.88,7.54c1.38,1.18,3.22,2.86,4.18,3.86l-1.1,.88c-.88-1.02-2.7-2.74-4.1-4l1.02-.74Z"/><path d="M635.12,384.8v6.3h-5.12v1.08h-1.36v-5.28c-.4,.62-.86,1.2-1.38,1.74-.18-.3-.7-.88-1-1.16,1.26-1.2,2.1-2.8,2.68-4.72h-1.46v-1.3h1.8c.14-.64,.26-1.3,.36-1.98h-3.08v-1.26h3.26c.06-.64,.14-1.32,.18-2h-2.42v-1.3h7.26v3.3h1.18v1.26h-1.18v3.28h-4.46c-.18,.72-.42,1.4-.68,2.04h5.42Zm-5.12,1.3v3.7h3.66v-3.7h-3.66Zm1.06-6.62c-.1,.68-.22,1.34-.36,1.98h2.74v-1.98h-2.38Zm.36-3.26c-.06,.68-.12,1.36-.2,2h2.22v-2h-2.02Zm13.42,11.3h-3.9v4.68h-1.44v-4.68h-3.74v-1.4h3.74v-2.9h-3v-1.36h3v-2.7h-3.28v-1.36h8.16v1.36h-3.44v2.7h3.08v1.36h-3.08v2.9h3.9v1.4Zm-7-9.74c-.18-.92-.76-2.28-1.36-3.3l1.18-.4c.66,1,1.26,2.32,1.44,3.22l-1.26,.48Zm6.16-3.52c-.52,1.18-1.12,2.54-1.66,3.44l-1.22-.34c.52-.92,1.14-2.42,1.46-3.46l1.42,.36Z"/><path d="M513.82,404.94c-.84,3.24-2.38,5.66-4.4,7.48,1.52,1.08,3.34,1.88,5.4,2.38-.34,.34-.8,.96-1.02,1.4-2.18-.6-4.04-1.52-5.62-2.78-1.86,1.38-4.04,2.3-6.34,2.92-.18-.42-.54-1.06-.84-1.36,2.16-.5,4.22-1.34,6-2.6-1.74-1.7-3.04-3.88-3.96-6.42h-.74c-.4,3.24-1.56,6.82-4.8,9.88-.22-.4-.76-.98-1.08-1.26,4.24-3.94,4.58-8.92,4.58-12.46v-1.8h-3.5v-1.46h12.26c-.4,1.84-.92,4.1-1.36,5.7h4.1l.28-.08,1.04,.46Zm-11.32-2.82c0,.76-.02,1.58-.08,2.44h4.38c.36-1.24,.76-2.8,1.08-4.24h-5.38v1.8Zm1.98,3.84c.82,2.16,2.08,4,3.72,5.48,1.62-1.4,2.88-3.22,3.66-5.48h-7.38Z"/><path d="M525.6,406.36h-8.12v-7.66h7.8v1.06h-2.68v1.16h2.6v3.1h-2.6v1.22h3v1.12Zm6.14,8.2c0,.78-.18,1.14-.76,1.36-.62,.2-1.58,.22-3.14,.2-.06-.38-.28-.86-.46-1.22,1.16,.02,2.24,.02,2.52,0,.32-.02,.42-.1,.42-.36v-1.96c-3.2,.8-6.54,1.58-9,2.12l-.42-1.4c1.98-.34,5-.92,8.06-1.52-1.88-.58-5.08-1.44-7.54-2l.52-.94c2.54,.52,6.02,1.38,7.86,1.96l-.42,.88,.94-.16v-3.16h-9.38v2.42c0,1.78-.3,4.02-1.9,5.52-.18-.34-.74-.94-1.04-1.14,1.34-1.26,1.48-2.96,1.48-4.4v-3.6h12.26v7.4Zm-12.9-14.8v1.16h2.46v-1.16h-2.46Zm5,2.04h-5v1.32h5v-1.32Zm-5,3.44h2.46v-1.22h-2.46v1.22Zm15.02-6.16c-.64,1.88-1.64,3.44-2.92,4.64,1.08,.84,2.3,1.46,3.68,1.84-.32,.28-.68,.8-.88,1.16-1.44-.48-2.7-1.18-3.82-2.12-1.08,.86-2.28,1.5-3.54,1.98-.16-.32-.5-.8-.76-1.06,1.18-.4,2.34-1,3.36-1.82-1-1.06-1.84-2.3-2.42-3.72h-.48v-1.2h6.62l.28-.06,.88,.36Zm-6,.9c.52,1.08,1.22,2.06,2.08,2.9,.88-.84,1.6-1.8,2.12-2.9h-4.2Z"/><path d="M554.74,400.19v1.34h-13.6v4.58c0,3.1-.42,7.34-3.14,10.08-.22-.28-.78-.8-1.08-1,1.62-1.66,2.3-3.76,2.6-5.8-.9,.54-1.82,1.06-2.64,1.52l-.52-1.36c.9-.36,2.06-1,3.3-1.64,.04-.64,.06-1.24,.06-1.82v-5.9h7.02c-.2-.64-.44-1.4-.68-2l1.56-.32c.3,.74,.64,1.64,.84,2.32h6.28Zm-16.52,5.86c-.22-.98-.88-2.54-1.54-3.72l1.1-.52c.7,1.12,1.4,2.66,1.6,3.64l-1.16,.6Zm3.76-2.78h12.56v1.3h-5.8v2.04h5.24v7.88c0,.76-.16,1.16-.7,1.4-.58,.24-1.48,.24-2.88,.24-.06-.4-.28-.96-.48-1.32,1.06,.04,2,.02,2.26,0,.3,0,.38-.08,.38-.34v-6.56h-3.86c-.02,.36-.08,.72-.16,1.08,1.24,1.1,2.76,2.58,3.54,3.54l-.98,.84c-.64-.84-1.82-2.1-2.96-3.16-.5,1.2-1.46,2.4-3.18,3.32-.2-.28-.62-.76-.9-1.02,2.5-1.18,3.12-3.04,3.26-4.6h-3.54v8.28h-1.36v-9.58h4.94v-2.04h-5.38v-1.3Z"/><path d="M571.36,411.12c-.96,1.1-2.26,1.98-3.74,2.68,2.2,.62,4.72,1,7.18,1.22-.26,.32-.6,.84-.76,1.22-2.82-.3-5.66-.86-8.16-1.72-2.62,.92-5.7,1.44-8.72,1.8-.14-.34-.46-.94-.7-1.26,2.66-.22,5.34-.6,7.66-1.26-1.3-.56-2.48-1.24-3.44-2.04-.96,.76-2.02,1.36-3.06,1.82-.16-.26-.62-.86-.88-1.1,2.08-.84,4.18-2.18,5.26-3.84l1.3,.4c-.2,.32-.44,.62-.66,.92h11.38v1.16h-2.66Zm-13.14-4.88c-.16,1.16-.42,2.46-.74,3.34-.2-.12-.62-.4-.86-.52,.32-.84,.48-1.96,.6-3.02l1,.2Zm3.4-.56c-.04-.24-.12-.52-.2-.82-3.48,.52-4,.62-4.3,.78-.06-.24-.24-.8-.36-1.1,.34-.04,.74-.36,1.2-.82,.24-.22,.74-.76,1.32-1.44-1.56,.12-1.94,.2-2.16,.28-.06-.24-.24-.8-.38-1.08,.28-.06,.54-.28,.82-.62,.28-.32,1.26-1.66,1.8-2.96l1.12,.4c-.6,1.12-1.32,2.22-2,3.06l1.6-.08c.38-.5,.78-1.02,1.08-1.54l1.08,.48c-1.06,1.52-2.28,2.96-3.46,4.08l2.38-.28c-.14-.42-.32-.86-.5-1.22l.9-.24c.44,.92,.86,2.12,1,2.82l-.94,.3Zm-2.34,3.36c0-.76-.18-1.92-.36-2.82l.92-.2c.22,.9,.4,2.06,.44,2.8l-1,.22Zm2.12-.42c-.1-.68-.36-1.72-.62-2.52l.88-.24c.28,.8,.58,1.82,.68,2.48l-.94,.28Zm.3,2.5c1.06,.84,2.48,1.54,4.14,2.14,1.48-.58,2.74-1.26,3.7-2.14h-7.84Zm6.98-10.56h-6.18v-.92h2.62c-.18-.46-.42-.96-.68-1.4l1.12-.36c.36,.5,.7,1.24,.88,1.76h2.24v.92Zm-.42,1.78h-5.34v-.88h5.34v.88Zm-.02,1.82h-5.32v-.92h5.32v.92Zm-5.22,4.58v-3.58h5.12v3.58h-5.12Zm.98-.9h3.12v-1.78h-3.12v1.78Zm9.64-2.2c-.04-.24-.1-.56-.2-.88-3.56,.48-4.08,.6-4.38,.76-.06-.24-.22-.78-.36-1.06,.36-.06,.74-.38,1.2-.82,.24-.22,.74-.76,1.3-1.44-1.6,.14-1.98,.22-2.2,.32-.06-.26-.24-.8-.36-1.08,.26-.06,.52-.28,.8-.6,.28-.34,1.26-1.66,1.82-2.94l1.1,.4c-.58,1.12-1.32,2.22-2.04,3.04l1.64-.08c.4-.48,.78-1.04,1.1-1.56l1.06,.46c-1.06,1.48-2.22,2.9-3.36,4.02l2.4-.28c-.14-.42-.32-.86-.5-1.24l.94-.22c.44,.92,.88,2.16,1,2.92l-.96,.28Zm-3.4,.56c-.16,1.04-.42,2.28-.68,3.08-.2-.14-.66-.4-.9-.52,.28-.82,.44-1.86,.56-2.82l1.02,.26Zm1.12,2.76c0-.76-.14-1.94-.36-2.84l.92-.16c.24,.88,.4,2.06,.42,2.8l-.98,.2Zm2.24-.14c-.12-.78-.44-1.98-.72-2.9l.88-.24c.34,.92,.64,2.12,.78,2.88l-.94,.26Z"/><path class="h" d="M588.55,406.91h1.21c.67,0,1.26-.12,1.76-.36,.5-.24,.88-.56,1.15-.98s.4-.89,.4-1.43c0-.91-.26-1.62-.77-2.14-.51-.51-1.25-.77-2.22-.77-.91,0-1.66,.27-2.24,.81-.58,.54-.87,1.25-.87,2.12h-1.17c0-.74,.19-1.41,.56-2.02s.89-1.08,1.54-1.41c.66-.33,1.39-.5,2.19-.5,1.29,0,2.3,.35,3.05,1.05s1.11,1.67,1.11,2.89c0,.68-.22,1.31-.65,1.89-.43,.58-1.03,1.01-1.78,1.29,.89,.25,1.56,.67,2.01,1.27,.46,.6,.68,1.32,.68,2.15,0,1.22-.4,2.2-1.19,2.94-.79,.74-1.86,1.11-3.18,1.11-.85,0-1.62-.17-2.33-.51-.71-.34-1.25-.81-1.64-1.42-.39-.61-.58-1.32-.58-2.12h1.17c0,.91,.32,1.64,.95,2.21,.63,.57,1.44,.85,2.43,.85s1.8-.26,2.36-.78c.56-.52,.84-1.27,.84-2.25s-.3-1.68-.91-2.18c-.61-.5-1.5-.75-2.69-.75h-1.17v-1Z"/><path class="h" d="M597.11,413.95c0-.23,.07-.42,.22-.58s.35-.24,.61-.24,.47,.08,.62,.24c.15,.16,.22,.35,.22,.58s-.07,.42-.22,.56c-.15,.15-.35,.22-.62,.22s-.46-.07-.61-.22-.22-.33-.22-.56Z"/><path class="h" d="M610.57,401.11l-6.07,13.54h-1.22l6.04-13.22h-8.09v-1h9.35v.67Z"/><path class="h" d="M621.27,404.1c0,.74-.21,1.4-.64,1.98s-1,1.01-1.7,1.28c.82,.28,1.48,.73,1.97,1.36s.74,1.35,.74,2.17c0,1.22-.41,2.18-1.24,2.9s-1.92,1.07-3.28,1.07-2.47-.35-3.3-1.06c-.82-.71-1.24-1.68-1.24-2.9,0-.81,.24-1.53,.71-2.16,.48-.63,1.13-1.09,1.95-1.37-.7-.27-1.26-.7-1.68-1.28-.42-.58-.62-1.24-.62-1.98,0-1.18,.38-2.12,1.14-2.81,.76-.7,1.76-1.04,3.01-1.04s2.26,.35,3.02,1.05,1.15,1.64,1.15,2.8Zm-.8,6.8c0-.89-.32-1.61-.95-2.18-.63-.57-1.44-.85-2.42-.85s-1.79,.28-2.41,.84-.94,1.29-.94,2.2,.3,1.63,.91,2.16,1.43,.81,2.46,.81,1.82-.27,2.43-.8c.61-.53,.92-1.26,.92-2.17Zm-.37-6.81c0-.81-.28-1.49-.84-2.04-.56-.54-1.28-.82-2.15-.82s-1.6,.26-2.15,.79c-.55,.52-.83,1.21-.83,2.07s.28,1.5,.83,2.01c.55,.51,1.27,.76,2.16,.76s1.6-.25,2.15-.77,.83-1.18,.83-2.01Z"/><path class="h" d="M623.71,403.17c0-.85,.26-1.55,.79-2.1s1.19-.83,2-.83,1.47,.28,2,.83,.79,1.28,.79,2.16v.69c0,.83-.26,1.53-.78,2.08s-1.18,.83-1.99,.83-1.47-.27-2-.82-.8-1.27-.8-2.17v-.68Zm.95,.75c0,.61,.17,1.11,.5,1.5,.33,.39,.79,.59,1.35,.59s.99-.2,1.32-.59,.49-.91,.49-1.53v-.71c0-.61-.17-1.11-.51-1.5-.34-.39-.78-.59-1.33-.59s-.98,.2-1.32,.59c-.34,.39-.51,.91-.51,1.57v.69Zm2.23,9.55l-.73-.47,6.94-11.11,.73,.47-6.94,11.11Zm3.98-2.3c0-.85,.26-1.55,.79-2.1s1.19-.83,1.99-.83,1.47,.27,2,.83,.8,1.27,.8,2.17v.69c0,.85-.26,1.55-.79,2.1s-1.19,.83-1.99,.83-1.47-.27-2-.83-.8-1.27-.8-2.15v-.71Zm.94,.76c0,.61,.17,1.12,.5,1.51,.33,.39,.79,.59,1.35,.59s1-.2,1.33-.59,.49-.91,.49-1.55v-.71c0-.63-.17-1.13-.5-1.51s-.78-.57-1.34-.57-.99,.19-1.33,.58-.51,.9-.51,1.55v.72Z"/></g><path class="p" d="M333.78,80.59V30.95"/><line class="p" x1="485.91" y1="386.67" x2="459.62" y2="365.84"/><path class="p" d="M285.83,92.26v-29.93"/></g><g id="b"/><g id="c"/></svg>