<?xml version="1.0" encoding="UTF-8"?><svg id="a" xmlns="http://www.w3.org/2000/svg" xmlns:xlink="http://www.w3.org/1999/xlink" viewBox="0 0 344.66 113.39"><defs><style>.f{fill:url(#e);}.g{fill:url(#d);}.h{fill:url(#c);}.i{fill:url(#b);}.j{fill:#e61673;}.k{fill:#f39800;}</style><linearGradient id="b" x1="20.82" y1="23.04" x2="20.82" y2="110.76" gradientTransform="matrix(1, 0, 0, 1, 0, 0)" gradientUnits="userSpaceOnUse"><stop offset=".17" stop-color="#f39800"/><stop offset=".85" stop-color="#e61673"/></linearGradient><linearGradient id="c" x1="46.18" y1="23.04" x2="46.18" y2="110.76" xlink:href="#b"/><linearGradient id="d" x1="52.77" y1="23.04" x2="52.77" y2="110.76" xlink:href="#b"/><linearGradient id="e" x1="71.25" y1="23.04" x2="71.25" y2="110.77" xlink:href="#b"/></defs><g><g><path class="j" d="M117.33,107.1c.09-.17,.2-.28,.34-.33,.14-.04,.28-.02,.42,.05,.16,.08,.26,.18,.29,.31,.04,.14,.02,.29-.06,.46-.24,.5-.61,1.04-1.1,1.63-.13,.15-.27,.23-.4,.24-.14,.02-.28-.03-.42-.13-.13-.12-.19-.24-.2-.38,0-.14,.05-.29,.18-.45,.45-.56,.77-1.02,.96-1.4Zm3.24-.62h-3.04c-.22,0-.39-.09-.52-.25-.15-.19-.22-.39-.21-.62v-7.06c0-.19,.08-.37,.21-.52,.14-.15,.32-.22,.52-.22h3.04c.26,0,.47,.07,.63,.23,.14,.12,.22,.3,.23,.5v7.06c0,.23-.09,.43-.28,.61-.18,.17-.37,.26-.58,.26Zm-2.67-6.04h2.44v-1.15c0-.14-.03-.24-.09-.3-.08-.08-.19-.12-.33-.12h-1.6c-.16,0-.26,.04-.32,.1-.08,.08-.11,.19-.1,.33v1.15Zm0,2.47h2.44v-1.42h-2.44v1.42Zm2.44,1.05h-2.44v1.06c0,.14,.04,.24,.1,.3,.08,.08,.18,.11,.32,.11h1.6c.13,0,.24-.04,.33-.11,.05-.07,.08-.17,.09-.3v-1.06Zm-.24,3.73c-.11-.13-.16-.28-.15-.43,.02-.13,.08-.26,.19-.37,.13-.09,.26-.14,.39-.14,.16,.03,.29,.12,.4,.25,.73,.95,1.07,1.58,1.01,1.88-.04,.13-.13,.24-.27,.33-.13,.07-.27,.08-.4,.05-.15-.05-.27-.16-.35-.32-.13-.26-.41-.68-.82-1.26Zm5.69-7.24h-3.24c-.17,0-.3-.05-.4-.15-.1-.11-.15-.24-.15-.4s.05-.28,.15-.39c.11-.1,.24-.15,.4-.15h3.49v-1.47c0-.19,.05-.33,.15-.44,.1-.1,.23-.16,.39-.16,.15,0,.28,.05,.39,.15,.11,.12,.16,.27,.16,.46v1.47h.66c.16,0,.29,.06,.39,.14,.1,.11,.15,.24,.15,.4,0,.15-.05,.28-.15,.39-.1,.11-.23,.16-.39,.16h-.66v7.52c0,.49-.2,.86-.58,1.11-.38,.26-1.06,.33-2.04,.19-.86-.09-1.36-.28-1.51-.57-.05-.13-.06-.27-.03-.42,.07-.16,.17-.27,.3-.33,.08-.05,.34-.03,.81,.08,.98,.24,1.59,.25,1.84,.01,.08-.08,.11-.21,.11-.37v-5.4c-.42,.75-.84,1.4-1.25,1.96-.81,1.09-1.59,1.96-2.36,2.59-.14,.12-.29,.17-.44,.16-.14-.03-.26-.09-.36-.2-.21-.31-.17-.58,.11-.81,1.78-1.58,3.13-3.42,4.05-5.53Z"/><path class="j" d="M141.07,109.08h-9.25c-.25,0-.47-.1-.66-.28-.2-.2-.3-.42-.29-.68v-9.47c0-.26,.09-.49,.28-.69,.18-.18,.41-.26,.67-.26h9.25c.29,0,.52,.09,.69,.29,.16,.19,.24,.42,.25,.67v9.47c0,.26-.1,.48-.28,.67-.19,.19-.41,.28-.67,.29Zm-6.84-2.77s.04-.07,.08-.08h-1.55c-.13,0-.24-.04-.32-.13-.08-.08-.11-.18-.11-.3,0-.12,.04-.22,.11-.3,.08-.08,.18-.12,.32-.12h5.56v-.64l-5.35,.19c-.15,0-.27-.03-.35-.1-.09-.08-.14-.19-.15-.31,0-.14,.04-.26,.1-.34,.09-.08,.21-.13,.37-.14l3.07-.1v-.61h-2.6c-.18,0-.32-.08-.42-.2-.12-.14-.17-.31-.16-.49v-1.74c0-.17,.05-.3,.16-.42,.12-.12,.26-.17,.42-.16h2.6v-.47h-3.24c-.13,0-.23-.04-.29-.11-.08-.08-.11-.18-.11-.29s.04-.2,.11-.28c.07-.08,.16-.11,.29-.11h3.24v-.47h-3.7c-.1,0-.19,.04-.26,.13-.08,.07-.11,.16-.11,.26v8.84c0,.11,.04,.19,.1,.25,.08,.08,.18,.11,.28,.11h8.31c.11-.02,.19-.05,.25-.11,.06-.07,.09-.15,.1-.25v-8.84c0-.11-.04-.2-.1-.28-.07-.08-.15-.12-.25-.12h-3.62v.47h3.03c.13,0,.22,.04,.28,.1,.08,.08,.11,.18,.11,.29s-.04,.2-.11,.28c-.07,.09-.17,.13-.28,.13h-3.03v.47h2.4c.2,0,.37,.05,.5,.18,.11,.11,.17,.24,.18,.4v1.74c0,.18-.08,.34-.21,.49,0,0-.02,0-.03,.01,.69,.76,1,1.31,.95,1.64-.04,.12-.12,.21-.23,.29-.12,.06-.23,.07-.34,.04-.12-.04-.21-.13-.29-.27-.03-.08-.07-.12-.1-.13h-.52s.01,.02,.01,.03v.64h1.11c.13,0,.23,.04,.3,.12,.08,.08,.11,.18,.11,.3s-.04,.22-.11,.3c-.08,.08-.18,.13-.3,.13h-1.11v.79c-.04,.46-.23,.77-.57,.96-.43,.2-.97,.21-1.63,.03-.19-.05-.32-.13-.38-.24-.06-.13-.07-.26-.04-.39,.08-.35,.3-.47,.66-.37,.41,.08,.68,.1,.81,.05,.1-.04,.15-.13,.15-.27v-.57h-3.48l.03,.02c.65,.5,.96,.9,.93,1.17,0,.13-.07,.23-.18,.32-.11,.08-.22,.11-.33,.1-.12-.03-.23-.11-.33-.21-.24-.29-.46-.52-.64-.67-.13-.09-.19-.2-.2-.33,0-.11,.03-.22,.11-.33Zm1.77-4.83v-.47h-1.85c-.13,0-.22,.02-.25,.07-.06,.07-.08,.16-.08,.27v.13h2.18Zm0,1.16v-.47h-2.18v.14c0,.1,.03,.18,.08,.24,.06,.06,.14,.09,.25,.09h1.85Zm1-1.63v.47h2.08v-.13c0-.11-.03-.19-.08-.24-.06-.07-.14-.1-.25-.1h-1.75Zm0,1.16v.47h1.75c.11,0,.19-.03,.25-.09,.04-.05,.07-.13,.08-.24v-.14h-2.08Zm2.02,1.21v-.05h-2.02v.57l2.23-.08c-.14-.22-.22-.37-.22-.44Z"/><path class="j" d="M146.89,104.58c.05-.18,.14-.3,.28-.38,.13-.06,.27-.07,.43-.04,.14,.06,.25,.14,.33,.25,.07,.14,.07,.3,.01,.48-.33,1.02-.68,1.85-1.06,2.48-.71,1.25-1.26,1.89-1.66,1.92-.16,0-.3-.06-.4-.16-.26-.29-.25-.58,.02-.86,.99-1.1,1.68-2.33,2.06-3.7Zm-1.66-2.51c-.16-.09-.26-.21-.32-.34-.04-.13-.03-.28,.05-.43,.07-.15,.18-.24,.31-.28,.15-.04,.31-.02,.47,.06,.5,.26,1.06,.65,1.68,1.16,.14,.13,.22,.26,.23,.39,.02,.15-.03,.29-.13,.42-.12,.12-.24,.19-.38,.2-.15,0-.3-.05-.45-.18-.57-.47-1.06-.81-1.46-1.01Zm.43-3.35c-.17-.09-.27-.22-.3-.37-.03-.14,0-.28,.08-.42,.09-.13,.21-.22,.34-.25,.14-.03,.29,0,.45,.1,.49,.3,1.01,.72,1.58,1.26,.14,.13,.2,.27,.2,.42,0,.14-.05,.28-.16,.4-.12,.12-.24,.18-.38,.18-.16,0-.31-.08-.44-.21-.55-.51-1-.88-1.36-1.11Zm9.67,9.7l-7.3,.71c-.23,0-.39-.03-.5-.11-.13-.12-.19-.26-.2-.42,0-.18,.04-.33,.13-.46,.11-.13,.27-.21,.47-.21l.82-.05c.79-1.34,1.51-2.77,2.17-4.29h-2.42c-.17,0-.3-.05-.4-.15-.1-.11-.15-.24-.15-.41,0-.15,.05-.28,.15-.39,.11-.1,.24-.15,.4-.15h3.04v-2.33h-2.74c-.17,0-.3-.05-.4-.15-.1-.11-.15-.24-.15-.4,0-.15,.05-.28,.15-.39,.11-.1,.24-.15,.4-.15h2.74v-1.32c0-.17,.05-.3,.14-.4,.11-.1,.24-.15,.4-.15,.15,0,.28,.05,.38,.15,.12,.11,.18,.24,.18,.4v1.32h3.13c.16,0,.29,.05,.39,.14,.1,.11,.15,.24,.15,.4,0,.15-.05,.28-.15,.39-.1,.11-.23,.17-.39,.17h-3.13v2.33h3.53c.16,0,.29,.05,.39,.14,.1,.11,.15,.24,.15,.4s-.05,.28-.15,.39c-.1,.11-.23,.16-.39,.16h-4.01c-.44,1.13-1.13,2.53-2.07,4.17l4.76-.38c-.38-.72-.74-1.32-1.07-1.8-.09-.15-.14-.3-.13-.45,.02-.13,.09-.25,.23-.35,.14-.09,.28-.13,.42-.1,.14,.03,.27,.12,.38,.27,.7,.96,1.37,2.2,2,3.72,.07,.17,.08,.32,.02,.45-.05,.15-.15,.26-.3,.32-.15,.07-.29,.07-.43,.01-.14-.06-.24-.18-.32-.37-.1-.24-.2-.45-.3-.66Z"/><path class="j" d="M164.9,102.42c-.6,2-1.51,3.65-2.72,4.93-.03,.03-.06,.07-.09,.1-1.35,1.34-2.28,1.96-2.79,1.85-.16-.04-.29-.14-.39-.29-.08-.16-.1-.32-.06-.48,.05-.17,.17-.3,.35-.4,.27-.15,.57-.36,.91-.62,.03-.03,.05-.05,.08-.06,2.74-2.17,4.11-5.26,4.11-9.27v-.2c0-.21,.07-.38,.18-.5,.11-.12,.26-.18,.44-.19,.18,0,.33,.07,.44,.18,.13,.13,.19,.31,.19,.52v.2c-.07,1.51,.1,2.91,.52,4.2,.7,2.2,2.21,4.13,4.54,5.78,.17,.14,.26,.29,.29,.47,.03,.16-.02,.32-.13,.48-.12,.14-.26,.23-.42,.25-.19,.02-.37-.04-.54-.18-2.54-2.01-4.18-4.26-4.91-6.76Z"/><path class="j" d="M174.83,106.25l-1.15-1.21c-.33-.32-.41-.68-.25-1.08,.35-.84,.64-2.07,.87-3.7h-.53c-.17,0-.3-.05-.4-.16-.1-.11-.15-.24-.15-.39,0-.17,.05-.3,.15-.4,.11-.09,.24-.14,.4-.14h.66c.04-.45,.06-.86,.06-1.22,0-.22,.05-.37,.18-.45,.12-.08,.27-.11,.45-.07,.19,.03,.31,.12,.37,.25,.07,.13,.06,.63-.01,1.5h.85c.27,0,.48,.08,.64,.25,.16,.17,.24,.42,.23,.75-.12,2.37-.51,4.3-1.15,5.79l1.25,1.3c.13,.13,.19,.28,.19,.43,0,.14-.07,.27-.18,.38-.12,.1-.24,.16-.38,.16-.16-.02-.3-.09-.43-.23l-.95-.98c-.5,.91-1.02,1.64-1.55,2.2-.13,.12-.27,.17-.42,.16-.15-.03-.28-.09-.39-.2-.12-.14-.17-.27-.16-.4,0-.16,.07-.29,.2-.4,.64-.61,1.17-1.32,1.6-2.11Zm1.12-5.99h-.63c-.19,1.38-.46,2.56-.79,3.56-.04,.18-.06,.32-.05,.4,.02,.1,.09,.21,.23,.31l.61,.64c.26-.64,.47-1.4,.62-2.28,.27-1.6,.34-2.46,.21-2.59-.05-.04-.11-.06-.19-.05Zm4.57,3.25h-2.04c-.1,0-.18,.03-.24,.09-.08,.09-.11,.17-.1,.25v.95c0,.18-.05,.32-.16,.43-.11,.08-.23,.13-.37,.14-.16-.02-.28-.07-.37-.15-.1-.12-.15-.26-.15-.42v-1.31c0-.23,.08-.45,.26-.65,.19-.19,.41-.27,.64-.27h6.17c.16,0,.32,.04,.47,.11,.13,.12,.23,.24,.29,.38,.17,.4,.15,.95-.06,1.65-.06,.18-.16,.29-.29,.35-.12,.05-.26,.06-.39,.02-.1-.04-.18-.09-.23-.14,.18,.18,.28,.39,.29,.63v2.19c0,.4-.18,.69-.52,.87-.29,.14-.73,.2-1.31,.16-.19-.03-.33-.11-.42-.21-.07-.12-.1-.25-.09-.4,.06-.35,.28-.5,.67-.45,.19,.02,.32,.02,.37,0,.17-.08,.25-.22,.25-.43v-1.36c-.02-.08-.06-.15-.11-.23-.06-.06-.13-.09-.22-.09h-1.3v3.26c0,.17-.06,.3-.16,.42-.09,.09-.21,.14-.37,.15-.14,0-.26-.05-.37-.14-.1-.11-.15-.25-.15-.43v-3.26h-1.05c-.11,0-.2,.04-.28,.11-.07,.08-.1,.16-.1,.26v2.47c0,.17-.06,.3-.14,.4-.1,.1-.23,.15-.39,.15-.14,0-.26-.04-.37-.13-.1-.11-.15-.25-.15-.43v-2.91c0-.24,.09-.44,.27-.62,.18-.19,.4-.27,.63-.27h1.58v-1.17Zm3.44-3.18v.54c0,.34-.09,.6-.25,.78-.19,.18-.46,.28-.82,.29h-4.33c-.18,0-.31-.05-.39-.14-.08-.09-.13-.21-.14-.34,0-.14,.06-.25,.14-.33,.1-.09,.23-.14,.39-.14h3.85c.18,0,.29-.04,.35-.11,.07-.06,.1-.17,.1-.33v-.23h-5.01c-.15,0-.27-.06-.35-.14-.08-.09-.13-.21-.13-.34s.04-.24,.13-.33c.08-.09,.2-.14,.35-.14h5.01v-.3c0-.12-.02-.21-.08-.26-.07-.08-.17-.11-.3-.1h-3.92c-.17,0-.29-.04-.38-.13-.1-.08-.15-.2-.15-.35,0-.14,.06-.26,.14-.34,.1-.09,.23-.13,.39-.13h4.54c.31,0,.53,.09,.67,.25,.13,.17,.19,.37,.19,.61v.76h.71c.14,0,.26,.04,.34,.13,.08,.09,.12,.21,.12,.34s-.04,.25-.12,.33c-.09,.1-.21,.15-.34,.15h-.71Zm-2.4,3.18v1.17h1.77c.23,0,.43,.08,.59,.24-.12-.19-.14-.37-.06-.56,.13-.34,.17-.56,.14-.67-.04-.13-.13-.2-.26-.19h-2.17Z"/><path class="j" d="M196.97,100.89s0,.06,0,.11c-.12,2.16-.77,3.88-1.96,5.17l3.88,1.97c.19,.09,.32,.23,.38,.4,.06,.14,.05,.31-.03,.49-.08,.16-.2,.27-.35,.33-.18,.05-.37,.03-.57-.05l-4.26-2.27c-1.44,1.04-3.44,1.78-6.02,2.21-.24,.03-.41-.03-.52-.15-.13-.13-.19-.27-.2-.43,0-.42,.23-.64,.66-.67,2.08-.31,3.75-.82,4.98-1.54l-3.43-1.84c-.25-.14-.4-.29-.43-.48-.03-.22,.04-.46,.21-.72,.35-.55,.76-1.35,1.25-2.42,0-.04,.03-.08,.05-.11h-2.8c-.18,0-.32-.05-.43-.17-.1-.1-.15-.24-.15-.42,0-.16,.05-.29,.15-.4,.11-.11,.25-.16,.43-.16h3.24c.21-.62,.4-1.28,.58-1.97,.07-.21,.17-.36,.3-.44,.13-.08,.29-.1,.48-.06,.18,.05,.31,.14,.39,.28,.08,.15,.1,.33,.05,.54-.14,.54-.31,1.09-.49,1.65h6.39c.17,0,.31,.05,.42,.15,.1,.1,.15,.24,.15,.42,0,.16-.05,.29-.15,.4-.12,.12-.26,.18-.42,.18h-1.8Zm-1.15,0h-3.88c-.46,1.04-.91,1.93-1.35,2.66-.06,.13-.07,.22-.04,.28,.03,.06,.1,.12,.2,.18l3.25,1.65c.05-.04,.09-.08,.11-.1,1.1-1.24,1.67-2.8,1.7-4.67Z"/><path class="j" d="M203.9,102.52v6.41c0,.16-.05,.29-.15,.39-.08,.09-.2,.14-.35,.15-.15,0-.27-.05-.35-.14-.09-.11-.14-.24-.14-.4v-5.27c-.4,1.01-.69,1.54-.87,1.59-.12,.04-.24,.03-.38-.03-.13-.08-.22-.18-.25-.29-.04-.13-.03-.28,.05-.43,.67-1.27,1.13-2.53,1.39-3.8h-.81c-.16,0-.28-.05-.37-.14-.09-.09-.14-.21-.14-.37,0-.13,.05-.25,.14-.35,.08-.09,.21-.14,.37-.14h.87v-1.88c0-.16,.04-.28,.13-.37,.09-.09,.21-.14,.37-.14,.13,0,.25,.04,.35,.12,.1,.09,.15,.22,.15,.38v1.88h.46c.15,0,.27,.04,.35,.13,.09,.09,.14,.21,.14,.37,0,.13-.06,.25-.14,.35-.08,.1-.2,.15-.35,.15h-.46v.2c.53,.79,.97,1.47,1.33,2.03,.06,.12,.07,.25,.04,.4-.03,.13-.11,.22-.24,.28-.13,.06-.26,.07-.37,.04-.13-.04-.23-.14-.3-.3-.14-.27-.29-.55-.46-.83Zm6.11,5.71h3.08c.15,0,.27,.04,.35,.13,.08,.07,.13,.18,.14,.31,0,.13-.05,.23-.13,.32-.09,.09-.21,.14-.37,.14h-6.45c-.34,0-.6-.1-.78-.3-.18-.2-.28-.45-.28-.76v-3.05c-.38,.32-.65,.47-.81,.44-.12-.02-.23-.09-.32-.2-.07-.11-.1-.23-.09-.35,.03-.14,.1-.26,.24-.34,.69-.51,1.26-1.19,1.71-2.02,.08-.15,.18-.24,.3-.28,.12-.04,.24-.04,.37,.02,.12,.08,.2,.17,.25,.28,.03,.14,.01,.28-.06,.42-.07,.09-.13,.19-.19,.3h2.04c.02-.07,.05-.13,.1-.19,.13-.21,.23-.38,.28-.52,.06-.13,.14-.23,.25-.29,.11-.04,.23-.04,.35,.01,.12,.05,.2,.13,.25,.24,.03,.14-.03,.38-.19,.75h2.8c.15,0,.27,.04,.35,.13,.08,.08,.13,.18,.14,.31,0,.13-.05,.23-.13,.32-.09,.09-.21,.14-.37,.14h-2.87v.72h2.67c.14,0,.24,.04,.32,.11,.08,.08,.13,.19,.13,.33,0,.13-.04,.23-.13,.31-.08,.09-.18,.14-.32,.14h-2.67v.77h2.67c.14,0,.24,.04,.32,.11,.08,.08,.13,.19,.13,.33,0,.13-.04,.23-.13,.32-.08,.09-.18,.14-.32,.14h-2.67v.77Zm2.53-6.19h-2.24c-.19,0-.34-.08-.44-.21-.13-.17-.2-.34-.19-.53v-1.19c0-.17,.07-.32,.18-.44,.13-.13,.28-.2,.46-.19h.43c-.17-.13-.25-.31-.25-.54h-2.38c0,.24-.1,.42-.28,.54h.34c.23,0,.41,.05,.54,.19,.13,.11,.19,.26,.2,.44v1.24c0,.19-.08,.37-.24,.52-.15,.15-.32,.23-.5,.23h-2.35c-.19,0-.34-.08-.44-.21-.14-.17-.2-.34-.19-.53v-1.24c0-.17,.07-.32,.18-.44,.13-.13,.28-.2,.45-.19h1.54c-.17-.13-.25-.31-.25-.54h-1.63c-.14,0-.25-.04-.33-.12-.08-.08-.12-.19-.12-.33,0-.13,.04-.23,.12-.32,.08-.08,.19-.12,.33-.12h1.63c0-.31,.04-.5,.13-.58,.09-.09,.21-.14,.37-.14,.13,0,.25,.04,.35,.12,.1,.09,.15,.29,.15,.59h2.38c0-.31,.04-.5,.13-.58,.09-.09,.21-.14,.37-.14,.13,0,.25,.04,.35,.12,.1,.09,.15,.29,.15,.59h1.67c.13,0,.24,.04,.32,.11,.08,.08,.13,.19,.13,.33,0,.12-.04,.23-.13,.31-.08,.09-.18,.14-.32,.14h-1.67c0,.19-.1,.37-.28,.54h1.35c.23,0,.41,.05,.54,.19,.13,.11,.19,.26,.2,.44v1.19c0,.19-.08,.37-.24,.52-.15,.15-.32,.23-.5,.23Zm-4.99-1.71h-1.01c-.15,0-.24,.02-.28,.08-.07,.08-.1,.18-.09,.29v.19c0,.13,.03,.22,.09,.28,.06,.06,.15,.09,.28,.09h1.01c.12,0,.22-.04,.28-.1,.05-.07,.07-.16,.07-.27v-.19c0-.11-.02-.19-.07-.25-.06-.08-.15-.11-.28-.11Zm1.46,4.58v-.72h-1.85c-.16,0-.29,.05-.4,.15-.13,.11-.19,.25-.18,.43v.14h2.44Zm0,1.67v-.77h-2.44v.77h2.44Zm0,1.66v-.77h-2.44v.15c0,.25,.06,.42,.16,.5,.12,.08,.27,.11,.46,.11h1.82Zm2.93-7.91h-.91c-.15,0-.24,.02-.28,.08-.07,.08-.1,.18-.09,.29v.14c0,.13,.03,.22,.09,.28,.06,.06,.15,.09,.28,.09h.91c.13,0,.22-.04,.28-.1,.05-.07,.08-.16,.08-.26v-.14c0-.11-.03-.19-.08-.25-.06-.08-.15-.11-.28-.11Z"/><path class="j" d="M216.96,107.86v-3.57c-.45,.29-.76,.42-.93,.39-.12-.03-.22-.12-.3-.25-.09-.15-.12-.29-.09-.43,.03-.13,.12-.24,.25-.33,1.33-.81,2.4-1.88,3.22-3.22h-2.66c-.17,0-.3-.05-.4-.15-.1-.11-.15-.24-.15-.4s.05-.28,.15-.39c.11-.1,.24-.15,.4-.15h2.76c-.29-.52-.53-.91-.74-1.17-.12-.14-.17-.29-.16-.44,.02-.13,.09-.26,.21-.36,.12-.09,.25-.14,.4-.13,.14,0,.28,.09,.4,.24,.71,.88,1.03,1.5,.95,1.85,0,0-.01,0-.01,.01h3.06c-.06-.18-.01-.37,.14-.57,.35-.46,.61-.85,.77-1.16,.08-.16,.18-.27,.32-.32,.13-.03,.27-.02,.4,.04,.13,.07,.23,.17,.28,.3,.06,.28-.23,.84-.87,1.7h2.58c.16,0,.29,.06,.39,.14,.1,.11,.15,.24,.15,.4,0,.15-.05,.28-.15,.39-.1,.11-.23,.16-.39,.16h-2.52c.63,1.2,1.64,2.22,3.04,3.05,.16,.1,.26,.22,.31,.35,.02,.14,0,.28-.06,.42-.09,.14-.21,.23-.34,.25-.18,.04-.47-.08-.88-.34v3.67h.76c.17,0,.29,.05,.38,.14,.09,.09,.14,.22,.14,.38,0,.14-.05,.27-.14,.37-.09,.11-.22,.16-.38,.16h-10.9c-.18,0-.31-.05-.39-.15-.09-.09-.14-.22-.14-.38,0-.14,.05-.27,.14-.37,.1-.1,.23-.15,.39-.15h.62Zm1.1,0h1.73v-4.1h-1.34c-.11,0-.2,.03-.28,.09-.08,.07-.11,.17-.11,.3v3.71Zm.66-5.15h6.12s-.04-.05-.05-.06c-.52-.57-1.03-1.3-1.54-2.2h-2.95c-.37,.72-.9,1.48-1.58,2.26Zm2.17,5.15h1.63v-4.1h-1.63v4.1Zm2.72,0h1.78v-3.68c0-.16-.05-.27-.12-.33-.09-.07-.19-.1-.3-.09h-1.35v4.1Z"/><path class="j" d="M231.07,102.88c-.28,.4-.48,.61-.61,.64-.14,.02-.28-.02-.4-.1-.14-.1-.21-.22-.24-.35-.03-.15,.02-.3,.13-.45,.96-1.54,1.51-3.14,1.66-4.81,.03-.19,.1-.33,.23-.42,.11-.08,.24-.12,.4-.11,.16,.03,.28,.09,.37,.2,.2,.29,.05,1.28-.45,2.95,0,.03,.01,.08,.01,.13v8.33c0,.18-.05,.32-.16,.43-.1,.1-.23,.16-.39,.16-.15,0-.28-.05-.39-.15-.1-.11-.15-.26-.15-.44v-6.01Zm2.59,2.02s0-.01,0-.01c.07-.48,.1-.97,.1-1.48,.02-.19,.08-.34,.19-.45,.1-.1,.24-.16,.42-.16,.16,.02,.29,.08,.39,.18,.11,.13,.16,.29,.15,.48-.04,.53-.09,1.03-.15,1.49,.08,.17,.14,.33,.2,.48,.41,.96,.98,1.67,1.72,2.13v-5.37h-2.58c-.23,0-.41-.09-.53-.25-.15-.19-.22-.4-.21-.63v-2.74c0-.2,.06-.38,.21-.53,.14-.15,.32-.23,.53-.23h6.38c.26,0,.48,.07,.66,.23,.14,.14,.22,.32,.23,.53v2.74c0,.23-.09,.43-.28,.62-.18,.17-.38,.26-.61,.27h-2.7v1.98h3.33c.16,0,.29,.05,.39,.14,.1,.11,.15,.24,.15,.4s-.05,.28-.15,.39c-.1,.11-.23,.17-.39,.17h-3.33v2.64c.34,.03,.78,.05,1.34,.05h2.29c.2,0,.35,.05,.48,.16,.11,.11,.17,.25,.18,.43,0,.18-.06,.32-.16,.43-.13,.12-.29,.18-.49,.18h-1.85c-.77,0-1.5-.08-2.19-.2-.11-.03-.2-.04-.28-.05-1.28-.35-2.17-1.06-2.69-2.12-.46,1.56-.87,2.4-1.24,2.52-.16,.03-.31,.01-.44-.06-.14-.09-.23-.21-.26-.34-.03-.17,0-.33,.08-.49,.4-.78,.7-1.54,.88-2.27,.07-.36,.14-.71,.23-1.05,0-.04,0-.07,0-.08,0-.02,.02-.05,.03-.1Zm6.17-6.01h-4.96c-.16,0-.27,.04-.33,.1-.08,.09-.11,.21-.1,.34v1.31c0,.13,.04,.24,.1,.32,.08,.07,.19,.11,.33,.11h4.96c.14,0,.25-.04,.33-.11,.06-.08,.09-.18,.1-.32v-1.31c0-.14-.03-.24-.09-.3-.08-.09-.19-.14-.34-.14Z"/><path class="j" d="M245.83,106.65v-1.99c0-.1-.04-.18-.1-.24-.08-.08-.17-.11-.25-.1h-.67c-.19,0-.33-.05-.44-.16-.08-.11-.13-.23-.14-.37,.02-.16,.07-.28,.15-.37,.11-.1,.25-.15,.43-.15h1.2c.29,0,.52,.08,.68,.26,.14,.17,.23,.38,.25,.64v1.99c0,.08,.01,.16,.04,.27,.24,.83,.98,1.32,2.2,1.48,.09,0,2.21-.02,6.34-.05,.21,0,.38,.04,.51,.15,.12,.1,.19,.24,.2,.43,0,.17-.05,.32-.15,.44-.12,.12-.28,.19-.49,.2h-5.94c-.78,0-1.48-.16-2.09-.49-.48-.25-.82-.57-1.03-.95-.31,.71-.81,1.24-1.49,1.56-.17,.08-.33,.11-.48,.08-.13-.05-.24-.14-.31-.26-.17-.35-.08-.61,.25-.78,.28-.17,.51-.32,.69-.45,.36-.32,.58-.7,.66-1.14Zm-1.22-5.44c-.17-.08-.28-.19-.34-.33-.03-.13-.02-.28,.04-.43,.08-.14,.18-.24,.32-.29,.34-.09,1.03,.28,2.09,1.11,.15,.13,.23,.26,.24,.39,.02,.14-.03,.28-.13,.42-.11,.14-.23,.21-.37,.21-.14,0-.29-.05-.45-.16-.56-.43-1.02-.74-1.4-.92Zm.48-2.52c-.16-.1-.27-.22-.32-.35-.04-.14-.02-.28,.05-.42,.08-.15,.19-.24,.33-.28,.14-.04,.29-.02,.45,.06,.44,.24,.91,.57,1.43,1.01,.14,.13,.22,.27,.23,.4,.02,.14-.03,.28-.14,.42-.12,.13-.24,.19-.38,.19-.14,0-.29-.05-.44-.18-.48-.39-.88-.68-1.21-.86Zm7.74,7.48h2.47c.16,0,.29,.05,.39,.14,.09,.08,.14,.2,.15,.35,0,.15-.05,.27-.14,.35-.11,.1-.24,.15-.4,.15h-5.84c-.37,0-.66-.12-.86-.33-.2-.23-.3-.51-.3-.84v-4.97c-.41,.36-.69,.53-.85,.5-.13,0-.25-.07-.35-.2-.09-.12-.13-.24-.13-.38,.03-.15,.12-.28,.25-.39,.88-.73,1.64-1.71,2.27-2.95,.08-.16,.18-.27,.32-.32,.13-.05,.27-.05,.4,.01,.14,.07,.23,.16,.28,.29,.07,.22-.15,.72-.66,1.51h2.08c.34-.52,.58-.95,.72-1.29,.08-.18,.18-.31,.32-.37,.13-.05,.26-.05,.42,.01,.15,.06,.26,.16,.32,.29,.09,.22-.06,.67-.47,1.35h2.03c.16,0,.29,.06,.39,.14,.09,.09,.14,.2,.15,.35,0,.15-.05,.27-.14,.35-.11,.1-.24,.15-.4,.15h-2.42v1.43h2.27c.15,0,.27,.04,.35,.13,.09,.09,.14,.21,.14,.37,0,.13-.05,.25-.14,.35-.09,.1-.2,.15-.35,.15h-2.27v1.28h2.27c.15,0,.27,.04,.35,.13,.09,.09,.14,.21,.14,.37,0,.13-.05,.25-.14,.35-.09,.1-.2,.15-.35,.15h-2.27v1.38Zm-1.1,0v-1.38h-2.33v.68c0,.29,.05,.47,.18,.56,.13,.09,.29,.14,.5,.14h1.65Zm0-4.64v-1.43h-1.69c-.17,0-.32,.06-.45,.16-.13,.12-.2,.28-.19,.48v.78h2.33Zm0,2.27v-1.28h-2.33v1.28h2.33Z"/><path class="j" d="M260.47,101.77c-.49,.18-1.03,.33-1.64,.47-.16,.02-.29-.02-.39-.1-.11-.1-.18-.22-.2-.36-.02-.16,.01-.29,.09-.39,.08-.11,.21-.18,.37-.2,.61-.14,1.24-.32,1.89-.52-.44-.37-.66-.55-.67-.55-.51-.38-.77-.62-.8-.72-.03-.13-.01-.26,.06-.39,.09-.13,.19-.21,.32-.24,.14-.02,.29,.02,.44,.1,.98,.7,1.51,1.14,1.59,1.32,.02-.03,.04-.04,.06-.05,.58-.39,.98-.76,1.21-1.12,.03-.07,.03-.12,0-.15-.03-.05-.12-.08-.25-.08h-1.77c-.16,0-.28-.05-.37-.15-.09-.1-.14-.22-.14-.35,0-.16,.05-.28,.14-.37s.21-.13,.37-.13h2.62c.21,0,.38,.07,.5,.18,.13,.12,.2,.26,.23,.42,.03,.13,0,.3-.1,.5-.38,.64-.93,1.27-1.67,1.88h.2c.21,0,.39,.08,.55,.24,.14,.18,.22,.36,.23,.54v1.5c0,.2-.08,.38-.21,.54-.18,.19-.38,.28-.62,.29h-1.69c-.21,0-.31,.1-.3,.3v.45c0,.21,.11,.32,.31,.32h1.69c.24,0,.45,.09,.63,.25,.16,.17,.24,.4,.24,.68-.03,.45-.04,.81-.04,1.1-.05,1.06-.23,1.73-.53,2.01-.34,.22-.87,.3-1.58,.25-1.07-.13-1.68-.32-1.83-.57-.07-.14-.08-.28-.05-.42,.07-.17,.16-.28,.26-.34,.14-.07,.29-.08,.47-.02,.69,.19,1.23,.29,1.61,.28,.19,0,.33-.08,.44-.2,.12-.12,.18-.26,.19-.39,.03-.92,.02-1.44-.04-1.55-.04-.05-.11-.08-.19-.08h-1.85c-.22-.02-.4-.09-.53-.23-.14-.14-.21-.32-.21-.52v-1.59c0-.22,.06-.4,.21-.53,.13-.13,.31-.2,.52-.2h1.82c.19,0,.28-.1,.28-.28v-.57c0-.18-.09-.28-.28-.28h-1.62Zm6.07,6.43c-.92,.53-1.79,.9-2.64,1.11-.18,.03-.32,0-.43-.08-.13-.08-.21-.2-.21-.35-.02-.18,0-.32,.09-.43s.21-.18,.37-.21c.59-.17,1.25-.4,1.98-.71l-.04-.03c-.92-.93-1.36-1.53-1.34-1.78,.03-.13,.09-.24,.2-.34,.05-.05,.11-.08,.19-.09h-.34c-.16,0-.28-.05-.37-.15-.09-.1-.14-.22-.14-.35,0-.16,.05-.28,.14-.37,.08-.08,.2-.13,.37-.13h4.06c.26,0,.46,.11,.59,.32,.15,.22,.16,.48,.04,.78-.34,.82-.89,1.54-1.63,2.17,.59,.32,1.35,.52,2.28,.61,.19,.03,.33,.11,.43,.21,.08,.11,.12,.24,.11,.4-.03,.16-.09,.28-.2,.37-.12,.08-.27,.12-.46,.11-1.18-.11-2.2-.47-3.06-1.07Zm-.64-6.48c-.23,0-.35,.12-.34,.35v.34c-.04,.67-.46,1.21-1.25,1.64-.14,.07-.28,.08-.41,.05-.13-.04-.23-.14-.29-.3-.14-.31-.04-.54,.31-.69,.46-.27,.7-.62,.7-1.05v-.38c0-.25,.07-.46,.2-.62,.14-.16,.36-.24,.64-.24h1.73c.1,0,.19,0,.28,.04-.11-.08-.21-.14-.31-.2-.89-.6-1.71-1.27-2.45-2.01-.13-.13-.19-.27-.19-.42,0-.13,.05-.26,.15-.37,.11-.1,.23-.16,.37-.16,.15,0,.29,.08,.42,.2,.23,.24,.45,.47,.68,.68,.39-.34,.69-.63,.92-.89,.11-.13,.23-.21,.37-.21,.12,0,.24,.03,.37,.11,.11,.09,.17,.21,.18,.34,0,.25-.35,.68-1.06,1.31,.24,.18,.43,.32,.58,.42,.38-.35,.67-.65,.87-.88,.1-.13,.22-.21,.35-.24,.13-.02,.26,.02,.37,.1,.13,.08,.19,.2,.2,.33,.02,.26-.28,.67-.88,1.22,.5,.25,1.08,.5,1.74,.76,.18,.08,.29,.18,.35,.32,.05,.13,.05,.28,0,.43-.08,.14-.18,.24-.3,.29-.24,.09-1.02-.21-2.33-.9,.15,.16,.23,.37,.24,.62v.97c0,.09,.03,.17,.07,.23,.07,.06,.14,.09,.23,.09h.11c.12-.02,.21-.06,.26-.12,.07-.07,.1-.15,.1-.26h0c0-.16,.04-.28,.13-.37,.08-.08,.19-.11,.33-.11s.24,.04,.31,.12c.09,.08,.14,.21,.14,.37v.1c-.02,.46-.2,.81-.55,1.03-.16,.08-.36,.13-.59,.13h-.54c-.2,0-.35-.04-.48-.13-.34-.24-.49-.52-.47-.82v-.87c0-.11-.04-.19-.1-.25-.06-.07-.14-.1-.25-.1h-.88Zm.35,4.97c.13,.11,.24,.21,.35,.31,0,0,0-.01,.01-.01,.63-.49,1.07-1,1.33-1.53,.03-.06,.03-.1,0-.13-.04-.02-.11-.04-.19-.04h-2.76c.12,.05,.22,.13,.3,.24,.34,.48,.66,.86,.96,1.15Z"/><path class="j" d="M280.57,106.51s.01-.02,.04-.02c.99-.39,1.75-.76,2.28-1.11,.16-.11,.32-.15,.47-.12,.14,.03,.26,.12,.34,.25,.09,.12,.12,.26,.09,.42-.1,.33-.82,.78-2.16,1.36,.54,.25,1.15,.48,1.84,.68,.66,.16,1.03,.31,1.11,.44,.07,.13,.09,.28,.05,.44-.06,.17-.15,.28-.28,.34-.12,.06-.29,.07-.49,.04-.04-.02-.08-.03-.1-.03-2.63-.64-4.49-2.05-5.58-4.23h-1.07v3.07c.69-.13,1.28-.26,1.77-.39,.18-.04,.33-.03,.47,.03,.12,.07,.2,.18,.25,.33,.03,.15,.02,.29-.04,.42-.08,.14-.21,.23-.39,.28-1.11,.34-2.49,.57-4.14,.68-.19,.02-.35-.02-.46-.12-.12-.09-.18-.22-.19-.38,0-.16,.03-.29,.11-.4,.11-.12,.26-.18,.44-.19,.36-.03,.72-.07,1.07-.1v-3.21h-1.53c-.05,.67-.17,1.34-.35,1.99-.26,1.13-.59,1.78-.97,1.96-.15,.02-.29,0-.43-.05-.33-.2-.4-.47-.21-.81,.63-1.19,.95-2.59,.95-4.18v-5.25c0-.19,.08-.38,.26-.57,.17-.17,.36-.26,.57-.25h8.82c.29,0,.53,.11,.72,.32,.18,.18,.26,.41,.26,.67v1.08c0,.25-.09,.48-.28,.68-.21,.21-.45,.32-.71,.32h-1.46v1.02h1.92c.17,0,.29,.05,.38,.14,.09,.09,.14,.22,.14,.38,0,.14-.05,.26-.14,.37-.09,.11-.22,.16-.38,.16h-1.92v.97h2.42c.17,0,.29,.05,.38,.14,.09,.09,.14,.22,.14,.38,0,.14-.05,.26-.14,.37-.09,.11-.22,.16-.38,.16h-4.67c.23,.49,.62,1,1.16,1.54Zm-6.05-7.31v.64h8.25c.19,0,.28-.11,.29-.29v-.4c0-.19-.11-.29-.29-.28h-7.92c-.22,0-.33,.12-.33,.33Zm0,4.73h2.21v-.97h-1.43c-.18,0-.31-.05-.39-.15-.09-.09-.14-.22-.14-.38,0-.14,.05-.27,.14-.37,.1-.1,.23-.15,.39-.15h1.43v-1.02h-2.21v3.04Zm6.04-2.02v-1.02h-2.74v1.02h2.74Zm-2.74,2.02h2.74v-.97h-2.74v.97Z"/><path class="j" d="M294.53,104.39h-3.67c-.63,.71-1.2,1.27-1.71,1.68-1.06,.82-1.77,1.18-2.12,1.07-.13-.06-.23-.15-.29-.29-.06-.15-.06-.29-.01-.42,.07-.14,.18-.25,.34-.33,.87-.43,1.66-1,2.4-1.72h-2.22c-.16,0-.28-.05-.37-.14-.09-.09-.14-.21-.14-.37,0-.13,.05-.25,.14-.35,.08-.09,.21-.14,.37-.14h1.83v-4.23h-1.58c-.15,0-.27-.05-.35-.14-.08-.09-.13-.21-.13-.34s.04-.24,.13-.33c.08-.09,.2-.14,.35-.14h1.58c0-.43,.05-.69,.14-.8,.11-.1,.24-.15,.4-.15,.15,0,.28,.05,.38,.15,.12,.1,.18,.37,.18,.8h5.21c0-.43,.05-.69,.14-.8,.11-.1,.24-.15,.4-.15,.15,0,.28,.05,.38,.15,.12,.1,.18,.37,.18,.8h1.62c.14,0,.26,.04,.34,.13,.08,.09,.13,.21,.13,.34s-.04,.24-.13,.33c-.09,.1-.21,.15-.34,.15h-1.62v4.23h1.82c.15,0,.27,.04,.35,.13,.09,.09,.14,.21,.14,.37,0,.13-.05,.25-.14,.35-.08,.1-.2,.15-.35,.15h-2.41c.64,.63,1.49,1.2,2.56,1.7,.18,.09,.29,.21,.35,.36,.03,.15,0,.29-.05,.43-.09,.16-.2,.26-.34,.29-.16,.04-.32,.02-.48-.06-1.25-.62-2.38-1.53-3.39-2.72Zm-2.33,3.65v-1.27h-2.38c-.16,0-.28-.05-.37-.14-.09-.09-.14-.21-.14-.37,0-.13,.05-.25,.14-.35,.08-.09,.21-.14,.37-.14h2.38c0-.58,.06-.92,.14-1.02,.11-.1,.25-.15,.4-.15s.28,.05,.38,.15c.12,.1,.18,.44,.18,1.02h2.37c.15,0,.27,.04,.35,.13,.09,.09,.14,.21,.14,.37,0,.13-.05,.25-.14,.35-.09,.1-.2,.15-.35,.15h-2.37v1.27h4.59c.15,0,.27,.04,.35,.13,.09,.09,.14,.21,.14,.37,0,.13-.05,.25-.14,.35-.08,.1-.2,.15-.35,.15h-9.94c-.16,0-.28-.05-.37-.14-.09-.09-.14-.21-.14-.37,0-.13,.05-.25,.14-.35,.08-.09,.21-.14,.37-.14h4.25Zm-2.03-8.07h5.21v-.8h-5.21v.8Zm0,1.76h5.21v-.87h-5.21v.87Zm0,1.67h5.21v-.77h-5.21v.77Z"/><path class="j" d="M309.05,107.89c.25-.43,.52-.91,.79-1.45,.29-.61,.47-1,.55-1.19,.06-.17,.16-.28,.29-.34,.12-.07,.27-.08,.42-.03,.14,.06,.24,.15,.3,.28,0,.02,.02,.04,.03,.06,.04,.29-.34,1.17-1.15,2.66h1.8c.16,0,.29,.05,.39,.14,.1,.11,.15,.24,.15,.4,0,.15-.05,.28-.15,.39-.1,.11-.23,.16-.39,.16h-10.24c-.17,0-.3-.05-.4-.15-.1-.11-.15-.24-.15-.4,0-.15,.05-.28,.15-.39,.11-.1,.24-.15,.4-.15h1.94c-.11-.08-.19-.19-.25-.33-.34-.79-.65-1.4-.96-1.83-.09-.15-.13-.3-.13-.46,.03-.15,.11-.27,.24-.35,.13-.1,.27-.13,.42-.1,.14,.02,.27,.11,.38,.26,.37,.53,.73,1.21,1.09,2.06,.07,.18,.07,.33,.03,.47-.05,.11-.13,.2-.24,.28h2.09v-3.34h-4.76c-.17,0-.3-.05-.4-.15-.1-.11-.15-.24-.15-.4,0-.15,.05-.28,.15-.39,.11-.1,.24-.15,.4-.15h4.76v-1.43h-2.79c-.17,0-.3-.05-.4-.15-.1-.11-.15-.24-.15-.4,0-.11,.03-.21,.07-.29-.54,.28-1.03,.5-1.46,.68-.19,.08-.35,.08-.5,0-.16-.08-.27-.2-.33-.37-.07-.19-.07-.35-.01-.5,.07-.16,.19-.27,.38-.33,1.24-.49,2.2-.96,2.88-1.41,.79-.5,1.51-1.06,2.14-1.68,.21-.2,.43-.3,.67-.3,.25,0,.46,.08,.62,.21,1.35,1.28,3.03,2.28,5.06,3.02,.19,.08,.32,.19,.38,.35,.06,.17,.06,.33,0,.49-.07,.19-.19,.32-.34,.38-.24,.08-.83-.11-1.79-.59,.07,.09,.1,.21,.1,.34,0,.15-.05,.28-.15,.39-.1,.11-.23,.16-.39,.16h-2.87v1.43h4.69c.16,0,.29,.05,.39,.14,.1,.11,.15,.24,.15,.4s-.05,.28-.15,.39c-.1,.11-.23,.16-.39,.16h-4.69v3.34h1.5Zm1.37-6.96s.05,0,.08,.01c-1.5-.85-2.56-1.58-3.18-2.18-.13-.1-.25-.15-.38-.15s-.45,.24-.98,.72c-.09,.07-.87,.61-2.33,1.62,.02,0,.03-.01,.04-.01h6.76Z"/><path class="j" d="M323.6,99.45c.03,.06,.04,.12,.04,.2,0,.13-.04,.24-.12,.33-.09,.1-.21,.15-.34,.15h-3.99c-.15,0-.27-.05-.35-.14-.08-.09-.12-.24-.12-.44-.04,0-.07,.02-.08,.03-1.9,.74-2.97,1.02-3.2,.83-.12-.1-.19-.22-.21-.35-.03-.17-.01-.31,.06-.42,.08-.12,.21-.19,.37-.23,1.98-.5,3.62-1.15,4.9-1.94,.2-.13,.42-.19,.66-.19,.25,0,.45,.05,.6,.14,1.36,.82,3.03,1.46,5,1.94,.17,.04,.29,.12,.37,.24,.08,.12,.1,.25,.06,.4-.04,.17-.12,.29-.23,.37-.03,0-.04,.02-.05,.03-.26,.1-1.38-.21-3.36-.95Zm1.73,4.64h-8.52c-.19,0-.34-.08-.45-.21-.13-.17-.2-.35-.19-.55v-1.99c0-.18,.05-.33,.18-.47,.12-.13,.28-.19,.46-.19h8.52c.22,0,.41,.07,.57,.2,.12,.12,.19,.27,.2,.46v1.99c0,.2-.09,.38-.25,.54-.16,.15-.33,.23-.52,.23Zm-.64,5.15h-7.23c-.21-.02-.37-.09-.48-.23-.14-.18-.21-.37-.2-.58v-2.94c0-.19,.06-.34,.19-.48,.14-.14,.31-.21,.49-.2h7.23c.23,0,.43,.07,.59,.2,.13,.13,.21,.29,.21,.48v2.94c0,.22-.09,.41-.25,.57-.16,.16-.34,.24-.55,.24Zm-5.37-6.08s-.05,.03-.06,.04h1.46v-1.63h-3.18c-.13,0-.23,.03-.28,.09-.07,.08-.1,.18-.09,.29v.88c0,.12,.03,.21,.09,.26,.06,.07,.15,.1,.28,.1h1.37c-.11-.05-.21-.16-.29-.32-.09-.18-.18-.31-.25-.39-.1-.13-.15-.27-.14-.4,.02-.13,.08-.24,.19-.33,.11-.09,.23-.12,.37-.11,.13,.02,.26,.09,.37,.21,.34,.44,.49,.78,.43,1.01-.04,.13-.13,.23-.26,.29Zm-1.44,3.42h6.52v-.48c0-.13-.03-.22-.09-.28-.07-.08-.17-.11-.3-.11h-5.74c-.15,0-.25,.03-.3,.09-.07,.08-.1,.18-.09,.3v.48Zm6.52,.89h-6.52v.48c0,.13,.04,.23,.1,.29,.06,.07,.16,.1,.29,.1h5.74c.13,0,.23-.04,.3-.1,.05-.07,.08-.16,.09-.29v-.48Zm-2.8-8.97c-.3-.14-.56-.14-.78,.01-.35,.22-.77,.44-1.26,.67h3.39c-.55-.24-1-.47-1.35-.68Zm2.41,3.91c-.12,.24-.27,.5-.44,.78h1.17c.12,0,.22-.04,.28-.1,.05-.07,.08-.16,.09-.26v-.88c0-.12-.03-.21-.08-.26-.07-.08-.16-.12-.29-.12h-3.03v1.63h.64s.02-.03,.03-.04c.34-.46,.59-.85,.72-1.16,.07-.15,.17-.25,.3-.3,.12-.04,.24-.03,.38,.03,.14,.06,.23,.15,.26,.28,.05,.13,.04,.26-.04,.42Z"/></g><g><path class="k" d="M118.38,49.51c-.12,.61-.17,1.05-.21,1.38-.06,.59-.69,1.07-1.45,1.07h-.34c-.67,0-1.2-.5-1.05-1.01,.17-.48,.32-1.21,.46-1.99l1.26-6.75c.25-1.26,.33-2.05,.34-2.58,0-.55,.5-1.09,1.26-1.07h.88c.29,0,1.21,0,2.05-.02,.48,0,.94-.02,1.24-.02h.33c.54-.02,.86-.04,1.15-.06,.61,.02,1.15,.55,1.07,1.01-.12,.52-.92,.77-1.61,.65-.44-.1-.98-.13-1.53-.13-.42,0-.52,0-2.07,.06-.27,.98-.5,2.22-.71,3.4-.02,.13-.06,.27-.08,.42-.02,.15-.06,.27-.06,.42h.17c.4,.02,.71,.02,.99,.02,.57,0,1.05-.02,1.53-.08,.17-.02,.33-.04,.46-.06,.04,0,.1-.02,.12-.02h.06c.61-.08,1.28,.33,1.24,.78-.15,.59-.82,1.01-1.64,.88-.4-.08-.84-.1-1.61-.1h-1.59l-.67,3.79Z"/><path class="k" d="M135.24,42.28c.99,1,1.03,2.1,1.03,2.64,0,2.98-1.93,7.29-6.31,7.29-1.11,0-2.2-.31-2.95-.97-.46-.44-1.19-1.28-1.19-2.96,0-3.08,2.05-6.98,6.35-6.98,1.36,0,2.43,.33,3.06,.99Zm-2.18,.8c-.23-.21-.61-.5-1.17-.5-2.73,0-3.41,4.42-3.41,5.91,0,1.8,.77,2.43,1.64,2.43,3.02,0,3.44-5.16,3.44-6.08,0-.48-.02-1.3-.52-1.76Z"/><path class="k" d="M141.07,47.4c-.21,.98-.29,1.42-.29,1.84,0,.71,.25,1.3,.99,1.3,.33,0,1.32-.15,2.12-1.43h-.02c.4-.71,.86-2.49,1.13-3.96,.21-1.11,.31-1.85,.33-2.33,.02-.56,.48-1.07,1.19-1.21,.02,0,.1,0,.13-.02l-.04,.04c.1-.06,.27-.1,.36-.1,.59-.08,1.24,.34,1.17,.77-.27,.96-.55,2.2-.86,3.96-.48,2.64-.65,3.92-.65,4.63v.15c.02,.52-.59,.94-1.28,.94-.73,0-1.36-.48-1.32-1.03v-.27c-.23,.32-.48,.59-.82,.84-.86,.57-2.05,.67-2.35,.67-1.45,0-2.75-.69-2.75-2.08,0-.27,.04-.54,.15-1.24l.96-5.07c.08-.36,.11-.67,.13-.9,.04-.5,.32-1.07,1.07-1.2h-.04s.11-.02,.19-.02c.02,0,.08-.02,.1-.02h-.04c.06-.02,.15-.04,.25-.04,.65-.08,1.32,.38,1.22,.88-.19,.76-.29,1.13-.42,1.78-.02,.09-.06,.23-.08,.34l-.54,2.79Z"/><path class="k" d="M150.88,45.17c.13-.78,.29-1.74,.29-2.47v-.12c-.02-.44,.25-.94,.92-1.01,.19-.02,.34-.04,.54-.08,.02,0,.08-.02,.1-.02,.61-.08,1.26,.33,1.2,.78-.04,.23,.06-.17-.04,.31,.1-.11,.23-.25,.36-.36,.77-.59,1.78-.96,2.89-.96,1.2,0,2.83,.42,2.83,2.03,0,.34-.06,.76-.21,1.64-.08,.4-.15,.9-.23,1.34-.08,.46-.17,.88-.25,1.32-.15,.82-.42,2.37-.48,3.33-.04,.57-.71,.99-1.45,.99h-.17c-.63,.02-1.2-.42-1.07-.9,.19-.61,.4-1.53,.69-3.37l.23-1.26c.17-.94,.29-1.68,.29-2.24,0-.92-.29-1.3-1.13-1.3-.73,0-1.61,.59-2.16,1.28-.59,.76-.82,2.18-.99,3.21l-.34,2.24c-.1,.59-.13,1.01-.15,1.38-.04,.55-.73,.94-1.45,.94h-.15c-.65,.02-1.21-.44-1.11-.88,.19-.69,.32-1.4,.46-2.26l.61-3.58Z"/><path class="k" d="M171.02,47.38c-.02,.17-.04,.33-.08,.5-.17,1.01-.38,2.24-.38,3.06-.02,.52-.5,.99-1.22,1.01-.73,0-1.4-.46-1.32-1.03,.02-.19,0-.13,.1-.67-.71,.98-1.57,1.91-2.98,1.91-1.72,0-3.21-1.09-3.21-3.27,0-.52,.27-3.17,1.99-5.35,1.07-1.3,2.77-2.2,4.61-2.2,.44,0,.78,.06,1.07,.11,.17-.9,.25-1.43,.21-1.84-.02-.5,.36-1.01,1.05-1.11,.06-.02,.19-.04,.27-.06,.75-.13,1.51,.19,1.4,.73-.08,.21-.1,.48-.15,.8-.04,.19-.08,.4-.12,.65-.02,.13-.06,.29-.08,.44-.04,.17-.08,.36-.12,.57l-1.03,5.74Zm-6.44,.88c0,1.32,.46,2.28,1.28,2.28,.54,0,1.34-.42,2.01-1.76,.5-.98,.73-2.14,1.47-6.01-.36-.1-.67-.17-1.01-.17-3.02,0-3.75,4.46-3.75,5.66Z"/><path class="k" d="M182.71,41.59c.69-.21,1.3,.32,1.2,.84-.13,.63-.34,1.61-.67,3.37l-.35,1.87c-.27,1.57-.42,2.89-.42,3.44,0,.48-.63,.82-1.28,.84-.67,.02-1.24-.38-1.21-.86,.02-.33,.08-.77,.15-1.17-.78,1.07-1.8,2.24-3.29,2.24-1.59,0-3.15-1.03-3.15-3.21,0-.88,.51-4.36,3.31-6.58,.46-.34,1.57-1.07,3.35-1.07,.9,0,1.49,.19,2.05,.4l.31-.11Zm-1.45,1.24c-.34-.12-.76-.25-1.22-.25-2.91,0-3.67,4.09-3.67,5.66,0,1.3,.36,2.24,1.32,2.24,.55,0,1.26-.31,1.91-1.26,.52-.71,.84-1.82,1.17-3.73l.5-2.66Z"/><path class="k" d="M190.04,41.3c.1,0,.19-.02,.29-.02,.25,0,.48,0,.67-.02,.57-.06,1.03,.32,.96,.71-.11,.42-.67,.69-1.3,.69-.36-.02-.67-.02-.94-.02-.02,.09-.04,.15-.06,.27-.09,.46-.21,1.03-.33,1.61-.09,.52-.21,1.09-.31,1.61-.08,.44-.17,.84-.23,1.13-.21,.99-.36,1.85-.36,2.41,0,.71,.31,.99,.73,.99,.11,0,.25-.02,.4-.06,.51-.08,1.01,.25,.96,.57-.11,.48-.61,.9-1.3,.99-.13,.02-.36,.02-.5,.02-1.28,0-2.1-.36-2.39-.76-.29-.42-.44-.77-.44-1.15,0-.36,.08-.78,.17-1.32l1.21-6.35c-.38-.08-.69-.34-.63-.65,.06-.38,.42-.69,.92-.69,.1-.48,.13-.88,.17-1.26,.06-.61,.63-1.15,1.45-1.34,.67-.13,1.38,.23,1.24,.73-.19,.63-.31,1.09-.44,1.91h.06Z"/><path class="k" d="M195.81,47.27c-.34,1.91-.5,3.04-.55,3.69-.04,.55-.73,.94-1.45,.94h-.15c-.61,.02-1.09-.52-1.03-.99,0-.02,.02-.06,.02-.1,.1-.4,.23-.94,.36-1.72l.32-1.87c.46-2.52,.63-3.77,.61-4.46-.02-.46,.19-1.01,.92-1.05,.27-.04,.46-.08,.67-.11,.65-.13,1.21,.34,1.17,.84-.02,.08-.04,.21-.04,.31-.08,.34-.17,.8-.29,1.43l-.55,3.1Zm1.53-8.4c0,.63-.57,1.61-1.68,1.61-.65,0-1.32-.31-1.32-1.01,0-.59,.54-1.57,1.72-1.57,.67,0,1.28,.33,1.28,.98Z"/><path class="k" d="M207.84,42.28c.99,1,1.03,2.1,1.03,2.64,0,2.98-1.93,7.29-6.31,7.29-1.11,0-2.2-.31-2.95-.97-.46-.44-1.19-1.28-1.19-2.96,0-3.08,2.05-6.98,6.35-6.98,1.36,0,2.43,.33,3.06,.99Zm-2.18,.8c-.23-.21-.61-.5-1.17-.5-2.74,0-3.4,4.42-3.4,5.91,0,1.8,.76,2.43,1.64,2.43,3.02,0,3.44-5.16,3.44-6.08,0-.48-.02-1.3-.52-1.76Z"/><path class="k" d="M211.69,45.17c.13-.78,.29-1.74,.29-2.47v-.12c-.02-.44,.25-.94,.92-1.01,.19-.02,.34-.04,.54-.08,.02,0,.08-.02,.09-.02,.61-.08,1.26,.33,1.2,.78-.04,.23,.06-.17-.04,.31,.1-.11,.23-.25,.36-.36,.77-.59,1.78-.96,2.89-.96,1.21,0,2.83,.42,2.83,2.03,0,.34-.06,.76-.21,1.64-.08,.4-.15,.9-.23,1.34-.08,.46-.17,.88-.25,1.32-.15,.82-.42,2.37-.48,3.33-.04,.57-.71,.99-1.45,.99h-.17c-.63,.02-1.21-.42-1.07-.9,.19-.61,.4-1.53,.69-3.37l.23-1.26c.17-.94,.29-1.68,.29-2.24,0-.92-.29-1.3-1.13-1.3-.73,0-1.61,.59-2.16,1.28-.59,.76-.82,2.18-.99,3.21l-.34,2.24c-.1,.59-.13,1.01-.15,1.38-.04,.55-.73,.94-1.45,.94h-.15c-.65,.02-1.21-.44-1.11-.88,.19-.69,.33-1.4,.46-2.26l.61-3.58Z"/><path class="k" d="M229.56,41.8c.06-.31,.5-.5,.94-.54,.36-2.05,.94-3.04,2.01-3.88,.88-.61,1.86-.78,2.74-.82,.59-.02,1.05,.44,.88,.88-.21,.42-.86,.57-1.43,.59-.94,.06-1.38,1.55-1.72,3.25h.59c.08,0,.15-.02,.21-.02h.48c.54,0,1.01,.32,.94,.69-.06,.38-.61,.59-1.16,.59-.25-.02-.82-.02-1.03-.02h-.25c-.17,1-.34,1.97-.5,3.02-.17,1.05-.34,2.08-.52,3.08-.02,.15-.04,.31-.08,.46-.04,.15-.06,.33-.1,.48-.06,.29-.12,.63-.17,.92-.33,1.84-1.36,5.74-5.26,5.97-.57-.02-.94-.52-.82-.9,.17-.42,.76-.61,1.32-.63,.56-.08,.98-.55,1.15-.78,.57-.69,.98-2.68,1.38-5.01,.19-1.07,.36-2.22,.55-3.33,.19-1.13,.36-2.22,.5-3.29-.42-.08-.69-.4-.63-.71Z"/><path class="k" d="M244.65,42.28c.99,1,1.03,2.1,1.03,2.64,0,2.98-1.93,7.29-6.31,7.29-1.11,0-2.2-.31-2.94-.97-.46-.44-1.19-1.28-1.19-2.96,0-3.08,2.05-6.98,6.35-6.98,1.36,0,2.43,.33,3.06,.99Zm-2.18,.8c-.23-.21-.61-.5-1.17-.5-2.74,0-3.41,4.42-3.41,5.91,0,1.8,.76,2.43,1.64,2.43,3.02,0,3.44-5.16,3.44-6.08,0-.48-.02-1.3-.52-1.76Z"/><path class="k" d="M248.57,44.86c.19-1.03,.25-1.66,.23-2.1-.04-.48,.29-.96,.96-1.05,.19-.02,.36-.04,.5-.06h-.02c.69-.13,1.34,.25,1.3,.71-.02,.06-.02,.25-.06,.38-.02,.1-.06,.15-.08,.25,.3-.4,.67-.78,1.11-1.09,.33-.21,.73-.38,1.11-.52,.71-.21,1.28,.33,1.11,.86-.17,.5-.9,.84-1.63,1.01h.02c-.73,.19-1.7,.99-2.22,2.89-.29,.99-.73,3.5-.82,4.74-.06,.57-.69,1.03-1.43,1.01h-.1c-.67,0-1.28-.44-1.15-.96,.1-.33,.19-.67,.23-.92l.94-5.16Z"/><path class="k" d="M270.01,44.13c-.11,.23-.21,.46-.34,.73-.1,.21-.21,.42-.31,.61-.09,.23-.19,.44-.27,.61-.02,.04-.08,.15-.12,.21h.02c-.56,1.07-.98,1.91-1.59,3.42-.02,.02-.04,.11-.06,.15l-.46,1.13c-.25,.61-1.05,.98-1.93,.96-.08-.02-.1-.02-.13-.02h-.27s-.06,.02-.1,.02c-.75-.02-1.42-.54-1.42-1.09,.02-.42,0-.94-.04-1.57l-.42-7.19c0-.08-.02-.15-.02-.21-.08-1.07-.12-1.85-.25-2.41-.08-.52,.52-.97,1.21-.96h.36c.75-.02,1.36,.48,1.32,1.03-.02,.23-.02,.5-.02,.8,0,.25,0,.52,.02,.82l.25,5.34c.02,.71,.06,1.09,.1,1.66,0,.15,.02,.36,.04,.59,.36-.84,.73-1.68,1.13-2.51,.5-1.07,.98-2.12,1.45-3.17,.5-1.13,.8-1.91,1.09-2.75,.19-.61,1.01-.9,1.86-.92,.78-.02,1.36,.4,1.34,.96v.29c0,.11-.02,.23-.02,.36,0,.56,.04,1.26,.1,2.28,.1,1.07,.13,2.12,.21,3.1,.08,.98,.11,1.26,.19,2.41,.04-.08,.06-.19,.1-.27,1.66-3.86,2.87-6.79,3.46-9.05,.17-.59,.88-.96,1.7-.94h.23c.08,0,.15,0,.25-.02,.61,0,1.07,.48,.84,.84-.23,.4-.46,.88-.77,1.51-.06,.11-.13,.25-.19,.38-.46,1.05-.99,2.24-1.55,3.42-.55,1.21-1.07,2.37-1.55,3.42-.04,.08-.06,.15-.1,.23-.29,.65-.54,1.19-.82,1.95-.04,.1-.08,.19-.12,.29-.06,.13-.09,.25-.13,.36-.23,.65-1.03,1.01-1.87,.99-.02,0-.04-.02-.12-.02h-.36s-.06,.02-.09,.02c-.71-.02-1.44-.44-1.44-.99s-.02-1.28-.1-2.41c-.04-.54-.08-1.07-.12-1.61-.04-.55-.08-1.11-.11-1.62-.04-.5-.06-.86-.08-1.19Zm-4.45,4.7c-.29-1.89-.31-.76-.31,.46h.1c.08-.15,.15-.31,.21-.46Z"/><path class="k" d="M289.16,42.28c.99,1,1.03,2.1,1.03,2.64,0,2.98-1.93,7.29-6.31,7.29-1.11,0-2.2-.31-2.95-.97-.46-.44-1.19-1.28-1.19-2.96,0-3.08,2.04-6.98,6.35-6.98,1.36,0,2.43,.33,3.06,.99Zm-2.18,.8c-.23-.21-.61-.5-1.17-.5-2.74,0-3.41,4.42-3.41,5.91,0,1.8,.77,2.43,1.64,2.43,3.02,0,3.44-5.16,3.44-6.08,0-.48-.02-1.3-.52-1.76Z"/><path class="k" d="M304.27,41.25c.73,0,2.39,.25,2.39,1.99,0,.44-.08,.9-.21,1.57-.1,.5-.19,1.09-.29,1.62-.09,.54-.21,1.09-.3,1.63-.25,1.34-.34,2.22-.38,2.77-.04,.61-.73,1.07-1.47,1.07h-.15c-.71,.02-1.17-.5-1.05-.97,.12-.36,.25-1,.38-1.66,.1-.55,.21-1.13,.31-1.7,.1-.57,.19-1.13,.29-1.66,.12-.65,.23-1.42,.23-1.8,0-.98-.13-1.2-.4-1.2-.75,0-1.86,.71-2.58,2.6-.48,1.53-.88,4.32-.97,5.39-.06,.57-.75,.99-1.49,.99s-1.28-.48-1.17-.97c.17-.59,.33-1.45,.57-2.85,.08-.42,.15-.92,.23-1.32,.21-1.19,.34-2.16,.34-2.64,0-.88-.02-1.22-.48-1.22-.88,0-1.84,.94-2.43,2.47-.42,1.28-.9,4.3-1.02,5.53-.04,.57-.71,1.01-1.45,1.01h-.15c-.65,.02-1.15-.48-1.05-.94,.11-.44,.19-.8,.3-1.43,.02-.06,.06-.23,.08-.29l-.02,.02c.09-.52,.19-1.05,.29-1.61,.19-1.05,.38-2.16,.56-3.17,.15-.8,.19-1.32,.17-1.68-.02-.5,.21-.97,.88-1.09,.06-.02,.13-.02,.21-.02,.06,0,.08-.02,.12-.02,.06-.02,.17-.04,.25-.04,.63-.1,1.41,.25,1.3,.8-.02,.08-.04,.17-.06,.27,.13-.19,.31-.36,.5-.55,.19-.21,1.01-.88,2.18-.88,1.59,0,2.16,1.22,2.33,2.18,.29-.44,.65-.92,1.03-1.3,.21-.21,1.01-.88,2.2-.88Z"/><path class="k" d="M313.41,50.9c.69,0,1.26-.19,1.72-.38,.48-.21,1.05,.08,.94,.5-.13,.42-.54,.84-1.22,1.03-.48,.1-1.07,.19-1.87,.19-3.33-.09-4.15-1.87-4.19-4.26,0-2.05,1.03-3.77,1.68-4.55,1.32-1.64,3.19-2.18,4.57-2.18,2.05,0,3.08,1.01,3.08,2.33,0,.54-.27,1.28-.69,1.93-.46,.69-1.3,1.24-1.97,1.57-1.21,.61-2.49,.69-3.94,.75-.02,.08-.04,.33-.04,.69,0,.92,.27,2.41,1.93,2.39Zm-1.82-3.61c1.05-.15,2.16-.84,3.12-1.74,.44-.44,.78-1.11,.78-1.89s-.4-1.2-.88-1.2c-.29,0-.94,.13-1.76,1.09-.59,.71-1.11,2.16-1.26,3.75Z"/><path class="k" d="M320.45,45.17c.13-.78,.29-1.74,.29-2.47v-.12c-.02-.44,.25-.94,.92-1.01,.19-.02,.34-.04,.54-.08,.02,0,.08-.02,.1-.02,.61-.08,1.26,.33,1.21,.78-.04,.23,.06-.17-.04,.31,.1-.11,.23-.25,.36-.36,.77-.59,1.78-.96,2.89-.96,1.21,0,2.83,.42,2.83,2.03,0,.34-.06,.76-.21,1.64-.08,.4-.15,.9-.23,1.34-.08,.46-.17,.88-.25,1.32-.15,.82-.42,2.37-.48,3.33-.04,.57-.71,.99-1.45,.99h-.17c-.63,.02-1.21-.42-1.07-.9,.19-.61,.4-1.53,.69-3.37l.23-1.26c.17-.94,.29-1.68,.29-2.24,0-.92-.29-1.3-1.13-1.3-.73,0-1.61,.59-2.16,1.28-.59,.76-.82,2.18-1,3.21l-.34,2.24c-.09,.59-.13,1.01-.15,1.38-.04,.55-.73,.94-1.45,.94h-.15c-.65,.02-1.2-.44-1.11-.88,.19-.69,.32-1.4,.46-2.26l.61-3.58Z"/><path class="k" d="M334.9,41.07c-.25,.29-.71,.44-1.22,.44-.36,0-.71-.27-.55-.48,.61-.82,1.01-1.64,1.2-2.5,.04-.15,.37-.17,.63-.13h.08s.06,.02,.13,.02h.15c.11,0,.32,0,.5-.02,.46,.02,.96,.38,.8,.67-.32,.55-.86,1.13-1.72,2.01Z"/><path class="k" d="M339.37,47.13c-.59-.34-1.72-1.03-1.72-2.26,0-1.03,.7-1.99,1.64-2.73,.97-.73,2.47-.86,3.25-.86,.57,0,.97,.04,1.32,.13h-.02c.63,.13,.95,.69,.76,1.13-.13,.31-.52,.46-.94,.46-.25,0-.48-.04-.65-.13h.02c-.29-.13-.61-.23-.94-.23-1.22,0-1.87,.92-1.87,1.64,0,.9,.61,1.24,1.24,1.61l.96,.59c.61,.36,1.55,.94,1.55,2.07,0,.82-.42,1.91-1.63,2.79-1.13,.82-2.54,.88-3.42,.88-.52,0-1.05-.06-1.42-.13-.67-.17-1.13-.67-1.01-1.09,.25-.63,1.01-.86,1.61-.57h-.02c.36,.17,.8,.31,1.47,.31,1.26,0,1.93-.8,1.93-1.57s-.46-1.05-.94-1.34l-1.19-.69Z"/><path class="k" d="M125.06,63.64c-.78,.79-1.72,1.13-2.49,1.34,.17,1.87,1.15,3.63,2.5,5.09,.27,.31-.02,.84-.54,.82h-.33s-.1-.02-.15-.02c-.82,0-1.66-.23-2.05-.8-.36-.52-.73-1.13-1.09-1.86-.48-.98-.8-1.99-.96-2.87h-1.05c-.1,.63-.21,1.32-.34,2.05-.13,.73-.25,1.45-.36,2.08v.08s-.02,.08-.02,.1,0,.1-.02,.15c-.1,.57-.71,1.09-1.47,1.09-.02,0-.04-.02-.11-.02l-.13,.02c-.69,0-1.28-.5-1.15-.99,.23-.67,.46-1.86,.69-3,.13-.71,.27-1.42,.4-2.14,.29-1.53,.57-3.06,.84-4.51,.15-.77,.21-1.3,.25-1.7,.06-.55,.57-1.09,1.34-1.07h1.19c.48-.02,1.17-.02,1.42-.02,.15,0,.31-.02,.42-.02h.27c.88,0,2.1,.04,2.93,.53,1.13,.73,1.45,1.8,1.45,2.58,0,.42-.11,1.8-1.43,3.1Zm-5.87,.25h.19c.13,0,.27,.02,.4,.02,.71,0,1.43-.06,2.14-.38,1.26-.54,1.64-2.03,1.64-2.81,0-1.53-.96-1.99-2.12-1.99-.32,0-.63,.04-1.24,.1-.19,.76-.29,1.21-.57,2.66l-.44,2.41Z"/><path class="k" d="M131.01,66.2c-.34,1.91-.5,3.04-.56,3.69-.04,.55-.73,.94-1.45,.94h-.15c-.61,.02-1.09-.52-1.03-.99,0-.02,.02-.06,.02-.1,.1-.4,.23-.94,.36-1.72l.33-1.87c.46-2.52,.63-3.77,.61-4.46-.02-.46,.19-1.01,.92-1.05,.27-.04,.46-.08,.67-.11,.65-.13,1.2,.34,1.17,.84-.02,.08-.04,.21-.04,.31-.08,.34-.17,.8-.29,1.43l-.55,3.1Zm1.53-8.4c0,.63-.57,1.61-1.68,1.61-.65,0-1.32-.31-1.32-1.01,0-.59,.54-1.57,1.72-1.57,.67,0,1.28,.33,1.28,.98Z"/><path class="k" d="M142.18,69.28c-.5,2.73-.86,4.82-3.77,5.89h.02c-.96,.36-2.18,.52-3.29,.52-.59,0-1.09-.04-1.47-.11-.52-.13-.9-.63-.69-1.05,.25-.5,.92-.69,1.57-.48,.33,.1,.69,.17,1.17,.17,.94,0,1.91-.31,2.64-1.09,.63-.58,1-1.93,1.38-3.88-.69,.96-1.59,1.86-2.96,1.86-1.26,0-2.22-.52-2.68-1.28h.02c-.54-.82-.57-1.63-.57-2.03,0-3.08,2.26-7.55,6.56-7.55,1.07,0,1.66,.25,2.16,.46h-.06s.04,.02,.04,.02c.13-.06,.23-.1,.23-.1,.71-.25,1.38,.23,1.22,.8-.17,.61-.34,1.36-.61,2.94l-.9,4.92Zm-2.35-7.75c-3.06,0-3.63,4.11-3.63,5.58,0,.48,.06,1.17,.31,1.55,.29,.48,.63,.73,1.01,.73,.65,0,1.38-.65,1.89-1.32,.57-.94,.94-2.58,1.66-6.23h.06c-.32-.13-.76-.31-1.3-.31Z"/><path class="k" d="M146.92,62.02c.38-2.03,.54-3.04,.52-3.61-.02-.44,.19-.94,.88-1.01,.19-.02,.4-.04,.59-.08,.69-.1,1.42,.29,1.3,.8-.11,.55-.21,1.03-.4,1.97-.1,.54-.21,1.09-.31,1.64q-.02,.06,0,.02c.27-.36,.57-.67,1.01-.94,.82-.54,1.66-.63,2.28-.63,1.41,0,2.77,.59,2.77,2.12,0,.4-.08,.9-.23,1.87l-.75,4.26c-.08,.48-.13,1.05-.17,1.4-.04,.57-.69,1.01-1.49,1.01-.67,0-1.26-.48-1.15-.98,.1-.36,.21-.9,.33-1.55,.23-1.4,.48-2.93,.73-4.32,.06-.32,.11-.71,.11-.99,0-.71-.23-1.24-1.01-1.24-.65,0-1.36,.36-1.93,.97-.29,.31-.82,1.32-1.24,3.04-.11,.5-.55,2.79-.73,4-.1,.63-.77,1.09-1.61,1.09-.65,0-1.17-.48-1.01-.96,.09-.36,.29-1.24,.54-2.58l.97-5.32Z"/><path class="k" d="M162.05,60.24c.1,0,.19-.02,.29-.02,.25,0,.48,0,.67-.02,.57-.06,1.03,.33,.96,.71-.11,.42-.67,.69-1.3,.69-.36-.02-.67-.02-.94-.02-.02,.1-.04,.15-.06,.27-.09,.46-.21,1.03-.33,1.61-.1,.52-.21,1.09-.31,1.61-.08,.44-.17,.84-.23,1.13-.21,.99-.36,1.85-.36,2.41,0,.71,.31,.99,.73,.99,.12,0,.25-.02,.4-.06,.51-.08,1.01,.25,.95,.57-.11,.48-.61,.9-1.3,.99-.13,.02-.36,.02-.5,.02-1.28,0-2.1-.36-2.39-.77-.29-.42-.44-.76-.44-1.15s.08-.78,.17-1.32l1.21-6.35c-.38-.08-.69-.34-.63-.65,.06-.38,.42-.69,.92-.69,.1-.48,.13-.88,.17-1.26,.06-.61,.63-1.15,1.45-1.34,.67-.13,1.38,.23,1.24,.73-.19,.63-.31,1.09-.44,1.91h.06Z"/><path class="k" d="M166.63,66.07c-.59-.34-1.72-1.03-1.72-2.26,0-1.03,.71-1.99,1.65-2.73,.97-.73,2.47-.86,3.25-.86,.57,0,.98,.04,1.32,.13h-.02c.63,.13,.96,.69,.76,1.13-.13,.31-.52,.46-.94,.46-.25,0-.48-.04-.65-.13h.02c-.29-.13-.61-.23-.94-.23-1.22,0-1.87,.92-1.87,1.64,0,.9,.61,1.24,1.24,1.61l.96,.59c.61,.36,1.55,.94,1.55,2.06,0,.82-.42,1.91-1.63,2.79-1.13,.82-2.54,.88-3.42,.88-.52,0-1.05-.06-1.41-.13-.67-.17-1.13-.67-1.01-1.09,.25-.63,1.01-.86,1.61-.57h-.02c.36,.17,.8,.31,1.47,.31,1.26,0,1.93-.8,1.93-1.57s-.46-1.05-.94-1.34l-1.19-.69Z"/><path class="k" d="M180.86,61.21c.25-1.36,.36-2.16,.42-2.68,.06-.57,.52-1.11,1.34-1.09h.31c.48,0,1.09-.02,1.66-.04h.17c.4-.02,.98-.04,1.19-.04,2.22,0,4.07,.67,4.07,3.04,0,.92-.38,5.24-6.46,5.24h-.86c-.21,1.15-.4,2.29-.61,3.46,0,.04-.02,.08-.02,.11,0,.02,0,.04-.04,.12l.02-.02c-.02,.17-.04,.32-.06,.46-.1,.59-.69,1.09-1.51,1.09h-.33c-.69,0-1.19-.52-1.05-1.03,.27-.8,.48-1.82,.65-2.7,.02-.08,.04-.17,.06-.25l1.05-5.68Zm2.05,2.96h.35c.88,0,1.72-.13,2.35-.4h-.02c1.32-.69,1.61-2.5,1.61-3.25,0-1.87-1.51-1.87-2.33-1.87h-.21c-.1,0-.21,.02-.34,.02h-.17c-.06,0,.04,.02-.12,.02-.19,.8-.29,1.32-.36,1.68,0,.04-.02,.06-.02,.1-.02,.1-.04,.17-.06,.27-.04,.15-.08,.31-.11,.5l-.56,2.94Z"/><path class="k" d="M192.01,63.79c.19-1.03,.25-1.66,.23-2.1-.04-.48,.29-.96,.96-1.05,.19-.02,.36-.04,.5-.06h-.02c.69-.13,1.34,.25,1.3,.71-.02,.06-.02,.25-.06,.38-.02,.1-.06,.15-.08,.25,.3-.4,.67-.78,1.11-1.09,.33-.21,.73-.38,1.11-.52,.71-.21,1.28,.32,1.11,.86-.17,.5-.9,.84-1.63,1.01h.02c-.73,.19-1.7,1-2.22,2.89-.29,.99-.73,3.5-.82,4.74-.06,.57-.69,1.03-1.43,1.01h-.1c-.67,0-1.28-.44-1.15-.96,.1-.33,.19-.67,.23-.92l.94-5.17Z"/><path class="k" d="M208.07,61.21c.99,.99,1.03,2.1,1.03,2.64,0,2.98-1.93,7.29-6.31,7.29-1.11,0-2.2-.31-2.95-.98-.46-.44-1.19-1.28-1.19-2.96,0-3.08,2.05-6.98,6.35-6.98,1.36,0,2.43,.33,3.06,.99Zm-2.18,.8c-.23-.21-.61-.5-1.16-.5-2.74,0-3.41,4.42-3.41,5.91,0,1.8,.77,2.43,1.64,2.43,3.02,0,3.44-5.16,3.44-6.08,0-.48-.02-1.3-.52-1.76Z"/><path class="k" d="M223.18,60.18c.73,0,2.39,.25,2.39,1.99,0,.44-.08,.9-.21,1.57-.1,.5-.19,1.09-.29,1.63-.1,.54-.21,1.09-.31,1.62-.25,1.34-.34,2.22-.38,2.77-.04,.61-.73,1.07-1.47,1.07h-.15c-.71,.02-1.17-.5-1.05-.97,.11-.36,.25-1,.38-1.67,.1-.55,.21-1.13,.31-1.7,.09-.57,.19-1.13,.29-1.66,.11-.65,.23-1.42,.23-1.8,0-.97-.13-1.21-.4-1.21-.75,0-1.85,.71-2.58,2.6-.48,1.53-.88,4.32-.98,5.39-.06,.57-.75,.99-1.49,.99s-1.28-.48-1.17-.97c.17-.59,.33-1.45,.57-2.85,.08-.42,.15-.92,.23-1.32,.21-1.19,.34-2.16,.34-2.64,0-.88-.02-1.22-.48-1.22-.88,0-1.84,.94-2.43,2.47-.42,1.28-.9,4.3-1.01,5.53-.04,.57-.71,1.01-1.45,1.01h-.15c-.65,.02-1.15-.48-1.05-.94,.11-.44,.19-.8,.31-1.43,.02-.06,.06-.23,.08-.29l-.02,.02c.1-.52,.19-1.05,.29-1.61,.19-1.05,.38-2.16,.55-3.17,.15-.8,.19-1.32,.17-1.68-.02-.5,.21-.97,.88-1.09,.06-.02,.13-.02,.21-.02,.06,0,.08-.02,.11-.02,.06-.02,.17-.04,.25-.04,.63-.1,1.41,.25,1.3,.8-.02,.08-.04,.17-.06,.27,.13-.19,.31-.36,.5-.55,.19-.21,1.01-.88,2.18-.88,1.59,0,2.16,1.22,2.33,2.18,.29-.44,.65-.92,1.03-1.3,.21-.21,1.01-.88,2.2-.88Z"/><path class="k" d="M237.02,61.21c.99,.99,1.03,2.1,1.03,2.64,0,2.98-1.93,7.29-6.31,7.29-1.11,0-2.2-.31-2.94-.98-.46-.44-1.19-1.28-1.19-2.96,0-3.08,2.05-6.98,6.35-6.98,1.36,0,2.43,.33,3.06,.99Zm-2.18,.8c-.23-.21-.61-.5-1.17-.5-2.73,0-3.4,4.42-3.4,5.91,0,1.8,.76,2.43,1.64,2.43,3.02,0,3.44-5.16,3.44-6.08,0-.48-.02-1.3-.52-1.76Z"/><path class="k" d="M244.23,60.24c.1,0,.19-.02,.29-.02,.25,0,.48,0,.67-.02,.57-.06,1.03,.33,.95,.71-.11,.42-.67,.69-1.3,.69-.36-.02-.67-.02-.94-.02-.02,.1-.04,.15-.06,.27-.1,.46-.21,1.03-.33,1.61-.1,.52-.21,1.09-.31,1.61-.08,.44-.17,.84-.23,1.13-.21,.99-.36,1.85-.36,2.41,0,.71,.31,.99,.73,.99,.11,0,.25-.02,.4-.06,.52-.08,1.01,.25,.96,.57-.12,.48-.61,.9-1.3,.99-.13,.02-.36,.02-.5,.02-1.28,0-2.1-.36-2.39-.77-.29-.42-.44-.76-.44-1.15s.08-.78,.17-1.32l1.2-6.35c-.38-.08-.69-.34-.63-.65,.06-.38,.42-.69,.92-.69,.1-.48,.13-.88,.17-1.26,.06-.61,.63-1.15,1.45-1.34,.67-.13,1.38,.23,1.24,.73-.19,.63-.31,1.09-.44,1.91h.06Z"/><path class="k" d="M250,66.2c-.34,1.91-.5,3.04-.55,3.69-.04,.55-.73,.94-1.45,.94h-.15c-.61,.02-1.09-.52-1.03-.99,0-.02,.02-.06,.02-.1,.1-.4,.23-.94,.36-1.72l.33-1.87c.46-2.52,.63-3.77,.61-4.46-.02-.46,.19-1.01,.92-1.05,.27-.04,.46-.08,.67-.11,.65-.13,1.2,.34,1.17,.84-.02,.08-.04,.21-.04,.31-.08,.34-.17,.8-.29,1.43l-.55,3.1Zm1.53-8.4c0,.63-.57,1.61-1.68,1.61-.65,0-1.32-.31-1.32-1.01,0-.59,.54-1.57,1.72-1.57,.67,0,1.28,.33,1.28,.98Z"/><path class="k" d="M262.04,61.21c.99,.99,1.03,2.1,1.03,2.64,0,2.98-1.93,7.29-6.31,7.29-1.11,0-2.2-.31-2.94-.98-.46-.44-1.19-1.28-1.19-2.96,0-3.08,2.05-6.98,6.35-6.98,1.36,0,2.43,.33,3.06,.99Zm-2.18,.8c-.23-.21-.61-.5-1.17-.5-2.74,0-3.41,4.42-3.41,5.91,0,1.8,.77,2.43,1.64,2.43,3.02,0,3.44-5.16,3.44-6.08,0-.48-.02-1.3-.52-1.76Z"/><path class="k" d="M265.88,64.1c.13-.79,.29-1.74,.29-2.47v-.11c-.02-.44,.25-.94,.92-1.01,.19-.02,.34-.04,.54-.08,.02,0,.08-.02,.1-.02,.61-.08,1.26,.32,1.2,.78-.04,.23,.06-.17-.04,.31,.1-.12,.23-.25,.36-.36,.77-.59,1.78-.96,2.89-.96,1.21,0,2.83,.42,2.83,2.03,0,.34-.06,.77-.21,1.65-.08,.4-.15,.9-.23,1.34-.08,.46-.17,.88-.25,1.32-.15,.82-.42,2.37-.48,3.33-.04,.57-.71,.99-1.45,.99h-.17c-.63,.02-1.2-.42-1.07-.9,.19-.61,.4-1.53,.69-3.37l.23-1.26c.17-.94,.29-1.68,.29-2.24,0-.92-.29-1.3-1.13-1.3-.73,0-1.61,.59-2.16,1.28-.59,.76-.82,2.18-1,3.21l-.34,2.24c-.1,.59-.13,1.01-.15,1.38-.04,.55-.73,.94-1.45,.94h-.15c-.65,.02-1.2-.44-1.11-.88,.19-.69,.33-1.4,.46-2.26l.61-3.58Z"/><path class="k" d="M124.14,79.46c.69-.21,1.3,.32,1.2,.84-.13,.63-.34,1.61-.67,3.37l-.34,1.87c-.27,1.57-.42,2.89-.42,3.44,0,.48-.63,.82-1.28,.84-.67,.02-1.24-.38-1.2-.86,.02-.33,.08-.77,.15-1.17-.78,1.07-1.8,2.24-3.29,2.24-1.59,0-3.16-1.03-3.16-3.21,0-.88,.52-4.36,3.31-6.58,.46-.34,1.57-1.07,3.35-1.07,.9,0,1.49,.19,2.05,.4l.31-.11Zm-1.45,1.24c-.34-.11-.77-.25-1.22-.25-2.91,0-3.67,4.09-3.67,5.66,0,1.3,.36,2.24,1.32,2.24,.55,0,1.26-.31,1.91-1.26,.52-.71,.84-1.82,1.17-3.73l.5-2.66Z"/><path class="k" d="M128.1,83.04c.13-.79,.29-1.74,.29-2.47v-.12c-.02-.44,.25-.94,.92-1.01,.19-.02,.34-.04,.54-.08,.02,0,.08-.02,.1-.02,.61-.08,1.26,.33,1.21,.78-.04,.23,.06-.17-.04,.31,.1-.12,.23-.25,.36-.36,.77-.59,1.78-.96,2.89-.96,1.2,0,2.83,.42,2.83,2.03,0,.34-.06,.77-.21,1.65-.08,.4-.15,.9-.23,1.34-.08,.46-.17,.88-.25,1.32-.15,.82-.42,2.37-.48,3.33-.04,.57-.71,.99-1.45,.99h-.17c-.63,.02-1.21-.42-1.07-.9,.19-.61,.4-1.53,.69-3.37l.23-1.26c.17-.94,.29-1.68,.29-2.24,0-.92-.29-1.3-1.13-1.3-.73,0-1.61,.59-2.16,1.28-.59,.77-.82,2.18-1,3.21l-.34,2.24c-.1,.59-.13,1.01-.15,1.38-.04,.55-.73,.94-1.45,.94h-.15c-.65,.02-1.21-.44-1.11-.88,.19-.69,.32-1.4,.46-2.26l.61-3.58Z"/><path class="k" d="M148.24,85.26c-.02,.17-.04,.32-.08,.5-.17,1.01-.38,2.24-.38,3.06-.02,.52-.5,1-1.22,1.01-.73,0-1.4-.46-1.32-1.03,.02-.19,0-.13,.1-.67-.71,.98-1.57,1.91-2.98,1.91-1.72,0-3.21-1.09-3.21-3.27,0-.52,.27-3.17,1.99-5.35,1.07-1.3,2.77-2.2,4.61-2.2,.44,0,.78,.06,1.07,.12,.17-.9,.25-1.43,.21-1.84-.02-.5,.36-1.01,1.05-1.11,.06-.02,.19-.04,.27-.06,.75-.13,1.51,.19,1.4,.73-.08,.21-.1,.48-.15,.8-.04,.19-.08,.4-.11,.65-.02,.13-.06,.29-.08,.44-.04,.17-.08,.36-.12,.57l-1.03,5.74Zm-6.44,.88c0,1.32,.46,2.28,1.28,2.28,.54,0,1.34-.42,2.01-1.76,.5-.98,.73-2.14,1.47-6-.36-.1-.67-.17-1.01-.17-3.02,0-3.75,4.46-3.75,5.66Z"/><path class="k" d="M158.65,80.24c.25-1.36,.31-2.2,.29-2.75-.02-.57,.48-1.15,1.3-1.13,.36,.02,.71,.04,1.15,.04,.19,0,.71,0,1.24-.02,.56-.02,1.13-.04,1.36-.04,1.24,0,4.19,.1,5.2,2.79,.23,.65,.34,1.36,.34,1.91,0,1.3-.42,2.92-.94,4.17-1.95,4.48-5.79,4.65-7.33,4.65-.17,0-.69,0-1.22-.02-.5-.02-1.13-.04-1.32-.04-.17,0-.34,0-.57,.02h-.1s-.08,.02-.12,.02c-.67,.02-1.22-.48-1.07-1,.19-.54,.44-1.57,.73-3.08,.17-.9,.34-1.86,.54-2.77,.17-.94,.34-1.84,.52-2.75Zm1.41,6.62c-.08,.42-.13,.75-.13,1,0,.75,.36,.76,1.41,.76,1.13,0,2.83-.31,4.07-2.43,.4-.75,1.22-2.87,1.22-4.84,0-2.89-1.43-3.73-3.86-3.73-.33,0-.52,.02-.73,.06-.02,0-.06,.02-.1,.02h.02s-.08,.02-.13,.02c-.15,.61-.25,1.15-.36,1.8-.21,1.11-.48,2.47-.71,3.67-.23,1.13-.5,2.6-.71,3.67Z"/><path class="k" d="M175.83,88.77c.69,0,1.26-.19,1.72-.38,.48-.21,1.05,.08,.94,.5-.13,.42-.54,.84-1.22,1.03-.48,.1-1.07,.19-1.87,.19-3.33-.1-4.15-1.87-4.19-4.26,0-2.05,1.03-3.77,1.68-4.55,1.32-1.64,3.19-2.18,4.57-2.18,2.05,0,3.08,1.01,3.08,2.33,0,.54-.27,1.28-.69,1.93-.46,.69-1.3,1.24-1.97,1.57-1.21,.61-2.49,.69-3.94,.75-.02,.08-.04,.33-.04,.69,0,.92,.27,2.41,1.93,2.39Zm-1.82-3.61c1.05-.15,2.16-.84,3.12-1.74,.44-.44,.78-1.11,.78-1.89s-.4-1.21-.88-1.21c-.29,0-.94,.13-1.76,1.09-.59,.71-1.11,2.16-1.26,3.75Z"/><path class="k" d="M188.62,82.81c.4-.88,.73-1.72,.9-2.35,.19-.61,.9-1.01,1.74-1.01,.63,0,1.13,.52,.88,.92-.25,.4-.48,.78-.76,1.28-.94,1.66-1.05,1.88-2.51,4.84l-.57,1.15c-.31,.57-.48,.94-.63,1.26-.29,.57-1.09,.92-1.93,.92s-1.51-.46-1.59-1.07c-.06-.5-.13-.98-.21-1.47-.08-.52-.17-1.07-.27-1.61-.1-.54-.17-1.05-.27-1.57,0-.06,.02-.12,0-.17-.02-.08-.06-.23-.08-.27-.12-.71-.15-.9-.38-1.99-.11-.59-.21-1-.29-1.3l.02,.02c-.17-.5,.42-.94,1.07-.92h.46c.76-.02,1.34,.46,1.36,1.03,.02,.38,.06,.94,.15,1.74,.33,2.87,.33,2.89,.73,5.05l2.18-4.47Z"/><path class="k" d="M197.92,88.77c.69,0,1.26-.19,1.72-.38,.48-.21,1.05,.08,.94,.5-.13,.42-.54,.84-1.22,1.03-.48,.1-1.07,.19-1.87,.19-3.33-.1-4.15-1.87-4.19-4.26,0-2.05,1.03-3.77,1.68-4.55,1.32-1.64,3.19-2.18,4.57-2.18,2.05,0,3.08,1.01,3.08,2.33,0,.54-.27,1.28-.69,1.93-.46,.69-1.3,1.24-1.97,1.57-1.2,.61-2.49,.69-3.94,.75-.02,.08-.04,.33-.04,.69,0,.92,.27,2.41,1.93,2.39Zm-1.82-3.61c1.05-.15,2.16-.84,3.12-1.74,.44-.44,.78-1.11,.78-1.89s-.4-1.21-.88-1.21c-.29,0-.94,.13-1.76,1.09-.59,.71-1.11,2.16-1.26,3.75Z"/><path class="k" d="M206.57,89.92c-2.14-.02-2.35-1.32-2.29-2.29,.02-.36,.08-.8,.13-1.13,0-.02,.02-.04,.02-.06,.04-.21,.06-.4,.06-.48,.02-.12,.04-.21,.06-.29,.02-.08,.04-.17,.04-.23,.02-.12,.06-.23,.08-.38,.08-.42,.21-1.24,.63-3.71,.34-1.99,.54-3.35,.52-3.96-.02-.44,.27-1,.94-1.05,.17-.02,.34-.06,.59-.12,.65-.17,1.28,.29,1.24,.8-.1,.48-.21,1.05-.34,1.85-.02,.13-.04,.29-.08,.44-.06,.29-.13,.61-.19,.96-.13,.82-.29,1.72-.44,2.56-.15,.86-.29,1.72-.44,2.56-.02,.08-.02,.15-.04,.23-.02,.19-.06,.46-.1,.61,0,.04-.02,.11-.02,.15-.12,.63-.21,1.28-.08,1.68,0,0,.13,.5,.36,.52,.29,0,.44-.04,.71-.13,.02,0,.13-.04,.19-.06,.5-.17,.96,.21,.8,.61-.17,.44-.73,.75-1.38,.84-.29,.04-.65,.06-.97,.06Z"/><path class="k" d="M220.2,80.15c.99,1,1.03,2.1,1.03,2.64,0,2.98-1.93,7.29-6.31,7.29-1.11,0-2.2-.31-2.94-.97-.46-.44-1.19-1.28-1.19-2.96,0-3.08,2.05-6.98,6.35-6.98,1.36,0,2.43,.33,3.06,.99Zm-2.18,.8c-.23-.21-.61-.5-1.17-.5-2.74,0-3.4,4.42-3.4,5.91,0,1.8,.76,2.43,1.65,2.43,3.02,0,3.44-5.16,3.44-6.08,0-.48-.02-1.3-.52-1.76Z"/><path class="k" d="M233.11,82.35c0,1.95-.9,4.48-2.41,5.97-1.03,1.03-2.45,1.68-4.05,1.68-.36,0-.82,0-1.4-.12-.06,.38-.13,.71-.21,1.09-.08,.4-.15,.79-.23,1.17-.11,.63-.17,1.17-.21,1.51-.06,.61-.61,1.09-1.43,1.05h-.13c-.63,0-1.24-.42-1.15-.88,.15-.58,.31-1.32,.46-2.05,.04-.21,.1-.42,.12-.63,0-.02,.02-.09,.06-.19,.02-.06,.02-.13,.04-.19l-.02,.02,1.21-6.21c.08-.4,.12-.75,.17-1.07,.04-.27,.1-.54,.15-.88,.06-.11,.06-.23,.06-.29,.15-.78,.17-1.42,.15-1.82,.02-.36,.25-.86,.84-.94,.25-.02,.48-.06,.67-.09,.67-.12,1.3,.29,1.26,.78-.06,.27-.11,.52-.17,.76,.31-.44,.67-.88,1.11-1.2,.23-.17,.94-.65,2.24-.65,1.76,0,2.89,1.11,2.89,3.17Zm-6.73,1.97c-.33,1.07-.61,2.73-.76,3.56-.06,.11-.08,.21-.08,.38h-.06c.36,.19,.8,.4,1.4,.4,1.19,0,1.84-.67,2.18-1.09,1.03-1.24,1.36-3.52,1.36-4.67s-.36-2.03-1.26-2.03c-1.01,0-2.1,1.28-2.77,3.44Z"/><path class="k" d="M247.11,79.12c.73,0,2.39,.25,2.39,1.99,0,.44-.08,.9-.21,1.57-.1,.5-.19,1.09-.29,1.62-.1,.54-.21,1.09-.31,1.62-.25,1.34-.34,2.22-.38,2.77-.04,.61-.73,1.07-1.47,1.07h-.15c-.71,.02-1.17-.5-1.05-.97,.12-.36,.25-.99,.38-1.66,.1-.55,.21-1.13,.31-1.7,.09-.57,.19-1.13,.29-1.66,.11-.65,.23-1.42,.23-1.8,0-.98-.13-1.21-.4-1.21-.75,0-1.85,.71-2.58,2.6-.48,1.53-.88,4.32-.98,5.39-.06,.57-.75,.99-1.49,.99s-1.28-.48-1.17-.98c.17-.59,.33-1.45,.57-2.85,.08-.42,.15-.92,.23-1.32,.21-1.19,.34-2.16,.34-2.64,0-.88-.02-1.22-.48-1.22-.88,0-1.84,.94-2.43,2.47-.42,1.28-.9,4.3-1.01,5.53-.04,.57-.71,1.01-1.45,1.01h-.15c-.65,.02-1.15-.48-1.05-.94,.12-.44,.19-.8,.31-1.43,.02-.06,.06-.23,.08-.29l-.02,.02c.1-.52,.19-1.05,.29-1.61,.19-1.05,.38-2.16,.56-3.17,.15-.8,.19-1.32,.17-1.68-.02-.5,.21-.97,.88-1.09,.06-.02,.13-.02,.21-.02,.06,0,.08-.02,.12-.02,.06-.02,.17-.04,.25-.04,.63-.1,1.41,.25,1.3,.8-.02,.08-.04,.17-.06,.27,.13-.19,.31-.36,.5-.55,.19-.21,1.01-.88,2.18-.88,1.59,0,2.16,1.22,2.33,2.18,.29-.44,.65-.92,1.03-1.3,.21-.21,1.01-.88,2.2-.88Z"/><path class="k" d="M256.26,88.77c.69,0,1.26-.19,1.72-.38,.48-.21,1.05,.08,.94,.5-.13,.42-.54,.84-1.23,1.03-.48,.1-1.07,.19-1.88,.19-3.33-.1-4.15-1.87-4.19-4.26,0-2.05,1.03-3.77,1.68-4.55,1.32-1.64,3.19-2.18,4.57-2.18,2.05,0,3.08,1.01,3.08,2.33,0,.54-.27,1.28-.69,1.93-.46,.69-1.3,1.24-1.97,1.57-1.21,.61-2.49,.69-3.94,.75-.02,.08-.04,.33-.04,.69,0,.92,.27,2.41,1.93,2.39Zm-1.82-3.61c1.05-.15,2.16-.84,3.12-1.74,.44-.44,.79-1.11,.79-1.89s-.4-1.21-.88-1.21c-.29,0-.94,.13-1.76,1.09-.59,.71-1.11,2.16-1.26,3.75Z"/><path class="k" d="M263.3,83.04c.13-.79,.29-1.74,.29-2.47v-.12c-.02-.44,.25-.94,.92-1.01,.19-.02,.34-.04,.54-.08,.02,0,.08-.02,.1-.02,.61-.08,1.26,.33,1.21,.78-.04,.23,.06-.17-.04,.31,.1-.12,.23-.25,.36-.36,.77-.59,1.78-.96,2.89-.96,1.21,0,2.83,.42,2.83,2.03,0,.34-.06,.77-.21,1.65-.08,.4-.15,.9-.23,1.34-.07,.46-.17,.88-.25,1.32-.15,.82-.42,2.37-.48,3.33-.04,.57-.71,.99-1.46,.99h-.17c-.63,.02-1.21-.42-1.07-.9,.19-.61,.4-1.53,.69-3.37l.23-1.26c.17-.94,.29-1.68,.29-2.24,0-.92-.29-1.3-1.13-1.3-.73,0-1.61,.59-2.16,1.28-.59,.77-.82,2.18-1,3.21l-.34,2.24c-.1,.59-.13,1.01-.15,1.38-.04,.55-.73,.94-1.45,.94h-.15c-.65,.02-1.21-.44-1.11-.88,.19-.69,.32-1.4,.46-2.26l.61-3.58Z"/><path class="k" d="M278.85,79.17c.1,0,.19-.02,.29-.02,.25,0,.48,0,.67-.02,.57-.06,1.03,.33,.96,.71-.12,.42-.67,.69-1.3,.69-.36-.02-.67-.02-.94-.02-.02,.1-.04,.15-.06,.27-.09,.46-.21,1.03-.32,1.61-.1,.52-.21,1.09-.31,1.61-.08,.44-.17,.84-.23,1.13-.21,1-.36,1.86-.36,2.41,0,.71,.31,.99,.73,.99,.12,0,.25-.02,.4-.06,.51-.08,1.01,.25,.96,.57-.12,.48-.61,.9-1.3,1-.13,.02-.36,.02-.5,.02-1.28,0-2.1-.36-2.39-.76-.29-.42-.44-.77-.44-1.15s.08-.78,.17-1.32l1.2-6.35c-.38-.08-.69-.34-.63-.65,.06-.38,.42-.69,.92-.69,.1-.48,.13-.88,.17-1.26,.06-.61,.63-1.15,1.45-1.34,.67-.13,1.38,.23,1.24,.73-.19,.63-.31,1.09-.44,1.91h.06Z"/></g></g><g><path class="k" d="M65.87,21.65c.13,.97-.61,1.87-1.66,2.02-1.05,.14-2.01-.53-2.14-1.5-.13-.97,.61-1.88,1.66-2.02,1.05-.14,2.01,.53,2.14,1.5Z"/><path class="i" d="M41.09,109.24c-12.96-.41-25.44-8.02-31.66-20.77-2.18-4.47-3.39-9.16-3.71-13.8-.96-14.14,6.32-27.9,19.52-34.28,1.17-.56,2.36-1.05,3.57-1.48,.29-.1,.44-.41,.36-.7-.09-.29-.39-.46-.69-.39-2.52,.62-5.02,1.5-7.45,2.67C6.94,47.29-.91,61.73,.09,76.31c.31,4.58,1.49,9.17,3.64,13.55,6.8,13.95,21.32,21.68,36.02,20.64,.46-.03,.92-.07,1.38-.12,.3-.03,.53-.29,.52-.59-.02-.3-.26-.54-.56-.55Z"/><path class="h" d="M65.32,57.18c-2.51-1.69-5-1.82-5.05-1.83-.2,0-.37,0-.53,0-5.56,.07-8.9,3.16-10.72,6.16-.74,1.2-1.25,2.39-1.6,3.39-1.66-6.11-7.86-7.53-7.9-7.54-.89-.21-1.76-.3-2.6-.28-7.08,.14-11.74,7.1-11.79,7.13-1.97,2.89-2.82,5.92-2.89,8.89-.26,12.73,13.31,24.37,13.33,24.42,3.75,3.5,6.81,7.41,8.92,10.44,2.11,3.03,3.26,5.15,3.26,5.15,.08,.14,.21,.23,.36,.26,.04,0,.07,0,.11,0,.12,0,.24-.04,.34-.12,.91-.71,1.34-1.74,1.36-2.81,.04-3.26-2.94-7.44-5.87-10.99-2.95-3.52-5.89-6.3-5.9-6.31-9.07-9.02-9.93-15.81-9.87-18.47,.02-.84,.14-1.22,.13-1.23,.9-4.94,3.15-7.58,5.16-9.05,1.01-.73,1.96-1.17,2.66-1.42,.7-.25,1.11-.31,1.11-.31,.26-.05,.52-.07,.77-.07,2.73-.06,5.1,2.16,6.75,4.51,1.65,2.34,2.56,4.68,2.57,4.69,.08,.21,.29,.35,.53,.33,.23-.02,.43-.18,.5-.41,1.33-4.36,3.45-7.15,5.23-8.86,.89-.86,1.69-1.43,2.27-1.8,.58-.37,.91-.5,.9-.51,.97-.38,1.84-.54,2.59-.55,2.15-.03,3.48,1.19,4.34,2.49,.8,1.22,1.1,2.46,1.14,2.59,.07,.76,.09,1.52,.08,2.27-.17,7.32-4.36,13.73-4.34,13.74l-.03,.05c-1.41,2.78-6.53,10.24-6.53,10.25-2.3,2.82-3,5.39-3.05,7.31-.05,2.2,.72,3.54,.76,3.6,.11,.19,.34,.29,.56,.24,.22-.04,.4-.23,.45-.46,.46-2.39,2.14-5.32,3.71-7.61,1.57-2.3,3.02-3.95,3.02-3.96,7.85-9.55,10.02-17.45,10.03-17.5,.35-1.79,.53-3.37,.57-4.79,.16-6.07-2.29-9.39-4.8-11.07Z"/><path class="g" d="M81.56,20.42l-10.04-4.62c-3.04-2.7-6.43-3.66-9.66-3.61-8.36,.14-15.77,6.73-15.82,6.75l-1,.98c-18.4,16.32-21.36,40.08-21.38,40.14-.04,.28,.15,.54,.43,.61,.04,0,.08,0,.12,0,.23,0,.45-.16,.52-.39,4.84-15.84,15.98-29.41,21.35-35.28,6.97-6.97,12.29-8.99,16.06-9.04,2.67-.04,4.61,.9,5.9,1.84,.64,.47,1.12,.95,1.44,1.3,.31,.35,.45,.57,.45,.57,.08,.12,.19,.2,.33,.23l4.31,1.09c-8.33,6.15-9.66,17.71-9.55,25.48,.07,4.69,.68,8.04,.69,8.06,.05,.29,.32,.48,.6,.45,.29-.03,.5-.29,.48-.58-.01-.22-.02-.44-.02-.66-.14-8.04,5.56-22.89,5.55-22.91,1.67-3.99,3.97-6.33,5.86-7.69,.94-.68,1.78-1.11,2.37-1.36,.6-.26,.92-.34,.92-.34,.22-.06,.39-.25,.41-.48,.02-.23-.11-.45-.32-.55Z"/><path class="f" d="M84.23,65.77c-1.96-8.58-6.8-15.66-13.2-20.39-.23-.17-.54-.13-.73,.09-.19,.22-.18,.55,0,.76,4.03,4.63,7.04,10.35,8.52,16.86,.71,3.1,1.03,6.2,1.01,9.25-.13,15.03-8.78,28.81-22.14,34.88-.26,.12-.39,.41-.31,.69,.07,.24,.28,.4,.52,.4,.04,0,.07,0,.11-.01,.43-.09,.86-.18,1.3-.29,15.34-3.83,25.7-18.06,25.84-33.79,.02-2.79-.27-5.62-.92-8.45Z"/><path class="k" d="M101.17,0l-12.73,1.98,.69,3.97,6.35-1.03-4.45,6.57c-.56-.11-1.14-.17-1.74-.17-.02,0-.06,0-.12,0-5.02,.05-9.08,4.16-9.08,9.2,0,.02,0,.06,0,.12,.04,4.32,3.09,7.92,7.14,8.85l.02,3.5-6.08,.06,.04,4.29,6.07-.06,.07,7.08,4.29-.04-.07-7.08,6.07-.06-.04-4.29-6.07,.06-.02-3.5c4.01-1,6.97-4.62,6.97-8.92v-.08c-.03-2.9-1.39-5.47-3.5-7.14l4.09-6.02,1.47,6.11,3.95-1.35-3.32-12.04Zm-6.97,20.51c0,2.7-2.17,4.89-4.86,4.92,0,0-.01,0-.04,0-2.7,0-4.89-2.17-4.92-4.86h0v-.04c0-2.7,2.16-4.89,4.87-4.92,.03,0,.04,0,.04,0,2.69,0,4.89,2.17,4.92,4.87,0,0,0,.01,0,.04Z"/></g></svg>