<?xml version="1.0" encoding="UTF-8"?><svg id="a" xmlns="http://www.w3.org/2000/svg" viewBox="0 0 832.1 541.73"><defs><style>.b{fill:#008375;}.c{fill:#243746;}</style></defs><g><g><path class="c" d="M515.76,444.97c0,3.49,3.05,5.2,6.72,7.53,5.64,3.76,7.79,6.09,7.79,10.66,0,3.67-2.6,6.36-4.12,7.53-2.15,1.52-6.09,2.51-8.78,2.51-2.06,0-5.11-.54-7.79-1.52-.63-.27-1.52-1.08-1.52-1.7-.09-1.25-.36-4.03-.45-4.93-.09-1.16,.09-1.79,.45-1.79,.27,0,.63,.27,1.16,1.88,.72,2.15,2.15,4.21,3.76,5.38,1.52,1.07,2.69,1.16,4.48,1.16,2.33,0,5.38-1.88,5.38-5.02,0-2.6-1.88-4.48-6.45-7.35-5.29-3.4-7.26-7.35-7.26-10.48s1.52-6.18,4.39-7.97c1.7-1.25,4.66-2.15,7.62-2.15s5.73,.63,6.99,1.17c.27,.18,.54,.54,.54,.9,0,.9,.36,2.51,.45,4.84,.09,.99-.18,1.43-.54,1.43s-.54-.45-.81-1.16c-.45-1.34-.81-2.87-2.24-4.12-1.16-.9-2.69-1.61-4.66-1.61-2.24,0-5.11,1.88-5.11,4.84Z"/><path class="c" d="M564.49,448.37c0,.63-.63,1.25-1.07,1.25-.99-.09-12.09-.27-14.51-.27h-3.23c-.27,0-.63,.45-.81,.72-.27,.81-.45,2.33-.45,3.67,0,4.66,1.52,7.97,3.94,10.57,2.15,2.42,5.55,3.49,7.79,3.49,3.31,0,6.09-.54,8.33-2.69,.63-.72,.99-.54,.99-.09s-.18,.72-.63,1.34c-2.78,3.94-7.35,6.81-13.17,6.81-4.57,0-8.33-1.7-11.11-4.66-2.78-2.96-4.3-7.44-4.3-12.09s1.97-10.3,6-13.71c2.42-2.06,6.18-4.03,10.93-4.03,6.54,0,11.29,4.57,11.29,9.68Zm-17.2-5.46c-1.07,1.43-1.97,3.67-1.97,4.57,0,.18,.18,.54,.45,.54l8.51-.09c2.42,0,2.6-1.34,2.6-2.15,0-1.7-.36-3.05-1.25-4.3-.63-.72-1.79-1.52-3.31-1.52-1.97,0-3.49,1.26-5.02,2.96Z"/><path class="c" d="M582.23,444.43c-.45,.36-.9,1.17-.9,2.33-.09,8.69,.18,17.92,.45,20.96,.27,1.7,.72,2.87,2.87,3.31,.99,.18,1.61,.45,1.61,.81,0,.27-.54,.72-1.61,.72-2.6,0-6.18-.45-7.7-.45-3.85,0-5.02,.36-7.17,.36-.99,0-1.61-.27-1.61-.63s.36-.63,1.43-.9c2.51-.54,2.87-1.16,2.96-4.03,.18-3.14,.27-11.65,.27-23.92,0-13.44,.09-19.89-.09-22.85-.18-2.87-.45-3.05-2.69-4.12-.36-.27-.63-.54-.63-.81,0-.36,.54-.63,1.52-.9,2.87-.81,6.54-1.61,9.23-2.87,.72-.27,.99-.36,1.16-.36,.27,0,.54,.27,.54,1.7,0,1.34-.54,28.76-.45,30.1,0,.18,.27,.45,.45,.27,1.25-1.07,3.4-2.51,4.84-3.14,1.25-.72,3.58-1.34,5.46-1.34,3.49,0,6.36,1.17,8.42,3.85,1.25,1.52,2.15,4.3,2.24,9.41,.09,6,.09,11.47,.18,16.04,0,1.52,.27,2.6,2.69,3.05,1.16,.27,1.52,.45,1.52,.9s-.99,.63-1.52,.63c-2.69,0-3.76-.45-7.26-.45-4.48,0-4.66,.36-7.44,.36-1.07,0-1.43-.36-1.43-.63,0-.36,.45-.54,1.34-.72,2.6-.72,2.69-1.52,2.96-4.48,.18-2.06,.36-6.72,.36-14.07,0-2.33-.27-5.64-1.16-7.26-1.25-2.15-3.14-2.96-5.46-2.96s-4.3,1.07-5.38,2.06Z"/></g><g><path class="c" d="M635.99,444.97c0,3.49,3.05,5.2,6.72,7.53,5.64,3.76,7.79,6.09,7.79,10.66,0,3.67-2.6,6.36-4.12,7.53-2.15,1.52-6.09,2.51-8.78,2.51-2.06,0-5.11-.54-7.79-1.52-.63-.27-1.52-1.08-1.52-1.7-.09-1.25-.36-4.03-.45-4.93-.09-1.16,.09-1.79,.45-1.79,.27,0,.63,.27,1.16,1.88,.72,2.15,2.15,4.21,3.76,5.38,1.52,1.07,2.69,1.16,4.48,1.16,2.33,0,5.38-1.88,5.38-5.02,0-2.6-1.88-4.48-6.45-7.35-5.29-3.4-7.26-7.35-7.26-10.48s1.52-6.18,4.39-7.97c1.7-1.25,4.66-2.15,7.62-2.15s5.73,.63,6.99,1.17c.27,.18,.54,.54,.54,.9,0,.9,.36,2.51,.45,4.84,.09,.99-.18,1.43-.54,1.43s-.54-.45-.81-1.16c-.45-1.34-.81-2.87-2.24-4.12-1.16-.9-2.69-1.61-4.66-1.61-2.24,0-5.11,1.88-5.11,4.84Z"/><path class="c" d="M684.73,448.37c0,.63-.63,1.25-1.07,1.25-.99-.09-12.09-.27-14.51-.27h-3.23c-.27,0-.63,.45-.81,.72-.27,.81-.45,2.33-.45,3.67,0,4.66,1.52,7.97,3.94,10.57,2.15,2.42,5.55,3.49,7.79,3.49,3.31,0,6.09-.54,8.33-2.69,.63-.72,.99-.54,.99-.09s-.18,.72-.63,1.34c-2.78,3.94-7.35,6.81-13.17,6.81-4.57,0-8.33-1.7-11.11-4.66-2.78-2.96-4.3-7.44-4.3-12.09s1.97-10.3,6-13.71c2.42-2.06,6.18-4.03,10.93-4.03,6.54,0,11.29,4.57,11.29,9.68Zm-17.2-5.46c-1.07,1.43-1.97,3.67-1.97,4.57,0,.18,.18,.54,.45,.54l8.51-.09c2.42,0,2.6-1.34,2.6-2.15,0-1.7-.36-3.05-1.25-4.3-.63-.72-1.79-1.52-3.31-1.52-1.97,0-3.49,1.26-5.02,2.96Z"/><path class="c" d="M702.47,444.43c-.45,.36-.9,1.17-.9,2.33-.09,8.69,.18,17.92,.45,20.96,.27,1.7,.72,2.87,2.87,3.31,.99,.18,1.61,.45,1.61,.81,0,.27-.54,.72-1.61,.72-2.6,0-6.18-.45-7.7-.45-3.85,0-5.02,.36-7.17,.36-.99,0-1.61-.27-1.61-.63s.36-.63,1.43-.9c2.51-.54,2.87-1.16,2.96-4.03,.18-3.14,.27-11.65,.27-23.92,0-13.44,.09-19.89-.09-22.85-.18-2.87-.45-3.05-2.69-4.12-.36-.27-.63-.54-.63-.81,0-.36,.54-.63,1.52-.9,2.87-.81,6.54-1.61,9.23-2.87,.72-.27,.99-.36,1.16-.36,.27,0,.54,.27,.54,1.7,0,1.34-.54,28.76-.45,30.1,0,.18,.27,.45,.45,.27,1.25-1.07,3.4-2.51,4.84-3.14,1.25-.72,3.58-1.34,5.46-1.34,3.49,0,6.36,1.17,8.42,3.85,1.25,1.52,2.15,4.3,2.24,9.41,.09,6,.09,11.47,.18,16.04,0,1.52,.27,2.6,2.69,3.05,1.16,.27,1.52,.45,1.52,.9s-.99,.63-1.52,.63c-2.69,0-3.76-.45-7.26-.45-4.48,0-4.66,.36-7.44,.36-1.07,0-1.43-.36-1.43-.63,0-.36,.45-.54,1.34-.72,2.6-.72,2.69-1.52,2.96-4.48,.18-2.06,.36-6.72,.36-14.07,0-2.33-.27-5.64-1.16-7.26-1.25-2.15-3.14-2.96-5.46-2.96s-4.3,1.07-5.38,2.06Z"/></g><g><path class="c" d="M168.39,453.59v-8.2h-15.58v3.79c0,4.71-4.3,6.46-8.3,5.53v-39.76h-15.07v46.94h54.73c2.25,0,3.38-1.44,5.33-3.59,2.36,2.36,4.3,3.89,4.3,5.43,0,2.56-2.36,4-6.25,4h-58.11c-.41,4.41-4.61,5.84-8.4,4.92v-57.7h-12.2c-1.74,0-2.15-1.13-4.2-5.64h16.4v-21.52l6.87,1.44c.92,.2,1.54,.82,1.54,1.33v18.75h15.07v-26.24l6.76,1.44c1.02,.2,1.54,1.02,1.54,1.43v23.37h15.58v-26.13l6.87,1.43c.82,.21,1.43,1.02,1.43,1.33v23.37h11.89c1.95,0,3.07-1.02,5.02-3.18,2.25,2.15,4.1,3.89,4.1,5.12,0,2.56-2.25,3.69-5.84,3.69h-15.17v33.1c0,4.61-4.3,6.25-8.3,5.53Zm0-13.84v-24.8h-15.58v24.8h15.58Z"/><path class="c" d="M291.4,441.6c-6.35,5.23-6.46,5.43-10.35,3.69-4.51-1.95-10.15-5.33-15.06-9.02-7.69-5.84-12.81-11.58-16.5-17.42h-4.61c-2.67,5.02-7.28,10.86-13.84,15.99l4.2,.92c1.54,.31,1.84,.92,1.84,1.84,0,9.63-.51,16.29-3.38,20.91-4.82,7.89-14.14,13.32-24.8,14.76-1.33,.21-2.25-1.33-.41-2.15,7.38-3.38,13.63-8.1,16.91-14.35,2.36-4.61,3.18-8.71,3.07-19.98-7.07,5.12-15.99,9.33-26.44,11.27-1.43,.31-2.25-1.23-.72-1.95,9.43-4.41,15.06-7.38,22.65-14.04,5.02-4.41,8.61-8.51,11.58-13.22h-11.27v.1c0,4-5.02,5.53-8.2,4.82v-41.3l6.56,1.33c1.13,.21,1.54,.72,1.64,1.33h39.46c1.54,0,2.67-.82,4-2.25l6.66,2.05c4,1.23,1.54,3.89,1.54,5.94v27.16c0,4.51-4.71,5.43-8.2,4.92v-4.1h-12.71c4.2,4.51,7.17,7.07,13.94,11.27,5.53,3.48,13.63,7.48,22.14,9.94,1.02,.31,.92,1.02,.31,1.54Zm-49.5-51.14h-17.63v8.71h17.63v-8.71Zm-17.63,22.96h17.63v-8.92h-17.63v8.92Zm25.83-22.96v8.71h17.63v-8.71h-17.63Zm17.63,22.96v-8.92h-17.63v8.92h17.63Zm-4.2,24.29v30.23c0,4.51-4.3,6.35-8.4,5.43v-38.74l6.56,1.23c1.43,.31,1.84,.92,1.84,1.84Z"/><path class="c" d="M385.99,464.46c-.61,.82-1.84,2.36-3.89,4.41s-2.56,2.66-5.02,2.77c-20.29,.72-37.82,.21-49.09-7.69-4.41-3.18-9.33-8.92-12.09-13.94-.21,.62-.51,1.13-.82,1.74-4.51,9.12-10.56,16.91-19.57,21.32-1.64,.82-2.25-.82-1.43-1.64,7.07-7.58,11.99-15.58,15.06-24.8,1.95-5.74,3.38-11.68,4.1-18.24l6.15,2.05c1.84,.61,2.15,1.23,1.74,3.07-.92,4-1.95,7.99-3.28,11.68,2.97,4.71,8.4,11.07,14.96,14.04l2.15,.92v-40.07h-35.87c-1.95,0-2.77-1.02-4.71-5.64h40.58v-12.81h-24.8c-1.95,0-2.66-1.13-4.51-5.64h29.31v-15.17l6.97,1.43c1.13,.21,1.74,1.02,1.74,1.95v11.78h18.14c2.05,0,3.07-.92,5.02-3.28,2.56,2.46,4.2,3.48,4.2,5.23,0,2.36-2.05,3.69-5.84,3.69h-21.52v12.81h29.41c2.15,0,3.18-1.02,5.12-3.38,2.56,2.46,4.41,3.59,4.41,5.33,0,2.36-2.36,3.69-6.15,3.69h-32.79v16.6h18.45c1.95,0,3.07-1.02,5.02-3.28,2.66,2.36,4.3,3.69,4.3,5.12,0,2.46-2.05,3.79-5.94,3.79h-21.83v20.29c9.84,1.95,23.16,2.36,41.4,.62,1.02-.1,1.33,.61,.92,1.23Z"/><path class="c" d="M486.82,464.46c-.61,.82-1.84,2.36-3.89,4.41-2.05,2.05-2.56,2.66-5.02,2.77-20.29,.72-37.82,.21-49.09-7.69-4.41-3.18-9.33-8.92-12.09-13.94-.21,.62-.51,1.13-.82,1.74-4.51,9.12-10.56,16.91-19.57,21.32-1.64,.82-2.25-.82-1.44-1.64,7.07-7.58,11.99-15.58,15.06-24.8,1.95-5.74,3.38-11.68,4.1-18.24l6.15,2.05c1.84,.61,2.15,1.23,1.74,3.07-.92,4-1.95,7.99-3.28,11.68,2.97,4.71,8.4,11.07,14.96,14.04l2.15,.92v-40.07h-35.87c-1.95,0-2.77-1.02-4.71-5.64h40.58v-12.81h-24.8c-1.95,0-2.66-1.13-4.51-5.64h29.31v-15.17l6.97,1.43c1.13,.21,1.74,1.02,1.74,1.95v11.78h18.14c2.05,0,3.07-.92,5.02-3.28,2.56,2.46,4.2,3.48,4.2,5.23,0,2.36-2.05,3.69-5.84,3.69h-21.52v12.81h29.41c2.15,0,3.18-1.02,5.12-3.38,2.56,2.46,4.41,3.59,4.41,5.33,0,2.36-2.36,3.69-6.15,3.69h-32.79v16.6h18.45c1.95,0,3.07-1.02,5.02-3.28,2.66,2.36,4.3,3.69,4.3,5.12,0,2.46-2.05,3.79-5.94,3.79h-21.83v20.29c9.84,1.95,23.16,2.36,41.4,.62,1.02-.1,1.33,.61,.92,1.23Z"/></g></g><path class="b" d="M408.61,68.32c-43.14,1.28-181.55,9.47-227.73,55.64-7.82,7.82-33.17,37.95,5.71,76.84,16.95,16.95,36.82,32.21,47.29,42.67,13.43,13.43,18.26,25,18.26,34.75,0,24.86-32.13,38.38-31.62,40.04,.37,1.22,88.69-36.6,210.2-36.6,128.92,0,159.99,30.93,191.24,30.93,26.03,0,44.61-25.99,44.61-51.85,0-13.82-5.17-28.41-17.78-41.02-24.4-24.4-61.8-30.32-61.8-63.84,0-4.43,.66-42.41,53.95-42.41,8.23,0,14.18,.82,14.37,.51,2.45-4.11-127.79-49.18-246.7-45.65Z"/></svg>