<?xml version="1.0" encoding="UTF-8"?><svg id="a" xmlns="http://www.w3.org/2000/svg" viewBox="0 0 832.1 541.73"><defs><style>.b{fill:#ff3838;}.c{fill:#3d3b38;}</style></defs><polygon class="b" points="564.4 15.09 365.93 47.34 327.63 190.99 564.4 15.09"/><polygon class="c" points="318.67 224.12 297.25 304.93 553.68 118.2 434.72 137.91 318.67 224.12"/><path class="c" d="M328.28,432.81c-1.17-.7-2.98-2.15-4.05-3.45l-.73-.89-.02,1.15c-.41,18.92-1.96,19.88-2.27,19.88-8.24,0-8.4-61.81-8.5-98.74v-.43h-83.75v38.57c0,21.35-1.79,45.58-15.08,63.45l-.31,.42,.48,.22c1.24,.56,3.66,2.24,4.47,3.4l.34,.48,.35-.47c11.08-14.96,16.47-37.05,16.47-67.5v-32.1h70.56l.07,6.52c.57,54.07,.99,93.13,14.3,93.13,5.83-.13,7.13-6.21,7.87-23.27v-.26l-.21-.13Z"/><path class="c" d="M288.99,423.7l-.2-.2-5.73,2.29,.42,.45c3.2,3.44,6.32,7.25,9.05,11.06l-19.32,1.04v-19.18h23.11v-33.62h-23.11v-12.69c.88-.24,1.47-.58,1.79-1.05,8.71-1.46,16.47-3.13,22.48-4.83,.39,.1,.75,.1,.98,.1,.71,0,1.18-.15,1.52-.49l.33-.33-6.29-5.09-.22,.07c-12.97,4.11-37.07,7.74-55.31,9.77l-.63,.07,.3,.56c.72,1.33,1.55,3.24,1.79,4.52l.07,.39,.39-.04c7.94-.78,17.02-1.94,26.31-3.35v12.41h-22.86v33.62h22.86v19.47c-12.57,.61-24.09,1.11-31.75,1.45l-.58,.03,2.89,7.97,.35-.06c.83-.14,1.5-.77,1.74-1.6,14.03-.74,35.67-2.17,56.65-3.76,2.3,3.72,3.97,6.96,4.96,9.61l.16,.43,5.78-2.68-.13-.36c-2.55-7.08-9.88-17.75-17.82-25.95m-22.25-10.65h-16.76v-21.53h16.76v21.53Zm6.48-21.53h17v21.53h-17v-21.53Z"/><path class="c" d="M387.86,347.87c1.39-.06,2.26-.55,2.65-1.47l.18-.43-8.43-2.72-.13,.41c-6.98,21.81-18.38,43.4-29.75,56.34l-.22,.26,.2,.27c.97,1.34,2.56,3.9,3.27,5.21l.3,.54,.4-.47c5.22-6.17,10.15-13.24,14.66-21.05v71.82h6.72v-81.97c1.13-.18,1.86-.66,2.17-1.44l.18-.45-2.29-.6c3.9-8.09,7.3-16.24,10.09-24.24"/><path class="c" d="M404.7,428.92l-.25-.2-5.13,3.56,.43,.36c6.39,5.24,13.35,12.2,16.56,16.56l.26,.36,5.19-4.21-.26-.33c-3.86-4.93-11.43-11.79-16.82-16.09"/><path class="c" d="M450.59,413.98c.89-.12,1.56-.36,1.92-.94l6.06-.23c2.38,2.16,4.4,4.17,5.83,5.84l.25,.29,5.23-3.68-.32-.35c-3.79-4.24-11.27-10.42-18.48-15.31h11.13v-33.25h-31.18v-7.59h36.8v-5.99h-36.8v-6.54c1.64-.29,2-1.31,2.07-1.77l.08-.46-8.87-.55v9.32h-35.46v5.99h35.46v7.59h-30.32v33.25h30.32v8.57c-13.41,.23-26.36,.36-36.5,.36h-.58l2.36,7.63,.37-.06c.82-.14,1.49-.65,1.91-1.46,13.89-.26,33.32-.75,52.13-1.33v8.67h-58.94v6.11h58.94v20.36q0,1.9-6.79,1.9c-2.45,0-5.72-.08-9.52-.17l-3.6-.09,.63,1.44c.65,1.5,1.39,3.19,1.69,4.59l.07,.34h.34c12.63,0,16.45,0,19.32-.87,3.75-1.11,4.46-3.37,4.46-7.13v-20.36h18.71v-6.11h-18.71v-8Zm-19.56-42.26h24.58v8.56h-24.58v-8.56Zm0,13.81h24.58v8.69h-24.58v-8.69Zm0,14.06h13.73l-1.85,1.14,.53,.37c2.26,1.56,5.59,3.92,9.07,6.6-7.08,.21-14.25,.33-21.21,.44h-.28v-8.55Zm-6.72-5.38h-23.85v-8.69h23.85v8.69Zm0-13.94h-23.85v-8.56h23.85v8.56Z"/><polygon class="b" points="593.95 369.57 572.67 373.03 568.56 388.43 593.95 369.57"/><path class="c" d="M617.96,446.37c-9.44-5.13-21.05-15.94-28.49-26.47h28.1v-6.23h-33.14v-11.18c1.06-.16,1.72-.6,1.98-1.3h17.95v-38.27h13.57v-6.35h-13.57v-11.31c1.65-.28,2-1.31,2.07-1.77l.08-.46-8.74-.55v14.09h-33.02v-11.31c1.64-.28,2-1.31,2.07-1.77l.08-.46-8.63-.55v14.09h-14.31v6.35h14.31v38.27h19.44v12.48h-32.28v6.23h27.01c-7.4,10.77-19.42,21.88-29.48,27.2l-.53,.28,.45,.41c1.37,1.24,3.26,3.28,4.2,4.8l.22,.36,.36-.22c10.4-6.49,22.33-18.37,30.04-29.88v33.49h6.72v-33.5c7.51,11.12,18.9,22.66,28.69,29.03l.35,.22,.23-.34c1.03-1.49,2.84-3.57,4.31-4.67l.53-.4-.58-.32Zm-20.19-51.29h-33.02v-32.16h33.02v32.16Z"/><path class="c" d="M544.27,443.78l4.2-5.6-.2-.26c-2.94-3.76-7.61-8.48-13.15-13.31,5.93-13.96,9.58-31.4,11.15-53.3,.23-.35,.48-.74,.61-1.26l.1-.4-3.92-1.12-1.11,.26h-18.06c1.92-8.97,3.5-16.74,4.72-23.12,1.34-.08,2.11-.6,2.27-1.57l.07-.43-8.66-1.22-.21,1.12c-1.44,7.66-3.06,16.33-4.93,25.21h-13.29v6.48h11.89c-2.73,12.84-6.65,30.45-10.03,42.5l-.1,.33,5.91,3.1,1.57-5.92c4.69,3.31,9.47,7.06,13.89,10.9-5.64,11.16-12.98,19.44-21.82,24.6l-.52,.3,.47,.39c1.38,1.15,2.95,3.28,3.82,4.78l.22,.38,.38-.24c9.6-6.15,17.01-14.52,22.64-25.58,4.88,4.55,8.94,8.87,11.77,12.53l.34,.44Zm-29.6-34.88c2.54-10.16,5.3-22.07,7.8-33.62h16.93c-1.4,17.26-4.67,32.3-9.74,44.73-5.02-4.14-10.19-7.97-14.99-11.11"/><path class="c" d="M327.53,495.41c-.5-.72-1.16-1.23-2-1.57-.83-.33-1.71-.49-2.63-.49-.55,0-1.08,.06-1.59,.18-.51,.12-.97,.32-1.38,.59-.41,.27-.74,.62-.99,1.05-.25,.43-.37,.94-.37,1.53,0,.88,.3,1.56,.93,2.02,.62,.47,1.4,.87,2.32,1.22,.92,.35,1.92,.67,3.02,.99,1.1,.32,2.1,.77,3.02,1.33,.92,.57,1.69,1.31,2.31,2.25,.62,.93,.93,2.18,.93,3.72,0,1.4-.26,2.62-.78,3.67-.53,1.05-1.23,1.91-2.11,2.6-.88,.69-1.91,1.2-3.08,1.55-1.17,.34-2.4,.52-3.69,.52-1.64,0-3.22-.27-4.74-.81-1.51-.54-2.82-1.45-3.92-2.72l3.55-3.39c.57,.85,1.33,1.52,2.26,2.01,.93,.48,1.92,.72,2.96,.72,.54,0,1.09-.07,1.64-.22,.54-.15,1.04-.37,1.49-.67,.45-.3,.81-.67,1.08-1.13,.27-.45,.41-.97,.41-1.57,0-.96-.31-1.69-.93-2.21-.62-.52-1.39-.95-2.31-1.31-.92-.36-1.93-.7-3.02-1.02-1.09-.31-2.1-.75-3.02-1.3-.92-.55-1.69-1.29-2.32-2.21-.61-.92-.93-2.15-.93-3.7,0-1.35,.28-2.52,.84-3.5,.56-.98,1.29-1.8,2.2-2.45,.9-.65,1.94-1.13,3.11-1.46,1.17-.32,2.36-.48,3.58-.48,1.39,0,2.74,.21,4.04,.62,1.31,.42,2.48,1.11,3.53,2.07l-3.43,3.58Z"/><polygon class="c" points="345.5 494 337.41 494 337.41 489.81 358.29 489.81 358.29 494 350.2 494 350.2 515.9 345.5 515.9 345.5 494"/><polygon class="c" points="221.66 493.89 213.57 493.89 213.57 489.69 234.45 489.69 234.45 493.89 226.36 493.89 226.36 515.78 221.66 515.78 221.66 493.89"/><path class="c" d="M364.18,502.96c0-2.09,.35-3.99,1.05-5.69,.69-1.71,1.66-3.17,2.89-4.37,1.23-1.2,2.7-2.13,4.4-2.79,1.7-.65,3.57-.97,5.61-.97,2.06-.02,3.95,.27,5.67,.9,1.72,.62,3.19,1.54,4.44,2.74,1.24,1.2,2.21,2.65,2.91,4.35,.7,1.69,1.05,3.58,1.05,5.67s-.35,3.9-1.05,5.57c-.69,1.67-1.67,3.1-2.91,4.31-1.25,1.2-2.72,2.14-4.44,2.82-1.72,.67-3.61,1.02-5.67,1.05-2.04,0-3.91-.33-5.61-.98-1.7-.65-3.17-1.57-4.4-2.76-1.23-1.19-2.2-2.62-2.89-4.29-.7-1.67-1.05-3.53-1.05-5.56m4.92-.3c0,1.4,.22,2.69,.65,3.87,.43,1.18,1.05,2.2,1.84,3.06,.8,.86,1.75,1.54,2.86,2.03,1.11,.49,2.34,.73,3.71,.73s2.61-.24,3.73-.73c1.12-.49,2.08-1.17,2.87-2.03,.8-.86,1.41-1.88,1.85-3.06,.44-1.18,.65-2.47,.65-3.87,0-1.3-.22-2.52-.65-3.65-.43-1.13-1.05-2.12-1.85-2.96-.8-.85-1.75-1.51-2.87-1.99-1.12-.48-2.36-.71-3.73-.71s-2.6,.23-3.71,.71c-1.11,.48-2.06,1.15-2.86,1.99-.79,.84-1.41,1.83-1.84,2.96-.44,1.13-.65,2.35-.65,3.65"/><path class="c" d="M400.77,489.81h9.18c1.27,0,2.49,.11,3.67,.35,1.18,.24,2.23,.64,3.15,1.2,.92,.56,1.65,1.33,2.2,2.28,.55,.96,.82,2.18,.82,3.65,0,1.89-.53,3.48-1.59,4.76-1.06,1.28-2.57,2.05-4.53,2.32l7.01,11.54h-5.67l-6.12-11.06h-3.44v11.06h-4.69v-26.09Zm8.35,11.06c.67,0,1.35-.03,2.02-.09,.66-.06,1.28-.21,1.84-.44,.56-.23,1.01-.59,1.36-1.07,.35-.48,.52-1.15,.52-2.02,0-.76-.16-1.37-.49-1.84-.32-.47-.75-.82-1.27-1.05-.52-.23-1.1-.39-1.73-.46-.63-.07-1.25-.11-1.84-.11h-4.07v7.08h3.65Z"/><polygon class="c" points="428.48 489.81 435.64 489.81 442.69 508.08 449.82 489.81 456.9 489.81 456.9 515.9 452.43 515.9 452.43 494.23 452.35 494.23 444.33 515.9 441.05 515.9 433.03 494.23 432.96 494.23 432.96 515.9 428.48 515.9 428.48 489.81"/><polygon class="c" points="482.26 489.81 489.42 489.81 496.47 508.08 503.6 489.81 510.68 489.81 510.68 515.9 506.21 515.9 506.21 494.23 506.13 494.23 498.11 515.9 494.83 515.9 486.81 494.23 486.73 494.23 486.73 515.9 482.26 515.9 482.26 489.81"/><polygon class="c" points="520.78 489.81 538.27 489.81 538.27 494 525.49 494 525.49 500.42 537.61 500.42 537.61 504.62 525.49 504.62 525.49 511.69 538.95 511.69 538.95 515.9 520.78 515.9 520.78 489.81"/><polygon class="c" points="269.35 489.69 286.84 489.69 286.84 493.88 274.06 493.88 274.06 500.3 286.18 500.3 286.18 504.5 274.06 504.5 274.06 511.57 287.52 511.57 287.52 515.78 269.35 515.78 269.35 489.69"/><path class="c" d="M547.68,489.81h10.4c1.74,0,3.42,.26,5.04,.79,1.62,.53,3.05,1.33,4.29,2.41,1.24,1.08,2.24,2.43,2.99,4.07,.74,1.63,1.11,3.55,1.11,5.77s-.43,4.17-1.29,5.8c-.86,1.63-1.96,2.98-3.32,4.05-1.35,1.07-2.85,1.87-4.51,2.4-1.65,.53-3.27,.79-4.86,.79h-9.85v-26.08Zm8.21,21.89c1.47,0,2.85-.16,4.16-.49,1.3-.33,2.44-.85,3.41-1.55,.97-.7,1.74-1.61,2.3-2.72,.56-1.13,.83-2.47,.83-4.07s-.25-2.92-.75-4.05c-.5-1.13-1.19-2.05-2.07-2.75-.89-.7-1.93-1.22-3.14-1.55-1.21-.33-2.53-.5-3.97-.5h-4.29v17.69h3.51Z"/><rect class="c" x="579.97" y="489.81" width="4.7" height="26.09"/><path class="c" d="M603.09,489.81h4.07l11.38,26.09h-5.38l-2.46-5.97h-11.45l-2.39,5.97h-5.26l11.49-26.09Zm5.97,16.14l-4.06-10.61-4.14,10.61h8.2Z"/><polygon class="c" points="257.17 489.57 257.17 500.2 243.53 500.2 243.53 489.57 239.21 489.57 239.21 515.77 243.53 515.77 243.53 504.05 257.17 504.05 257.17 515.77 261.5 515.77 261.5 489.57 257.17 489.57"/></svg>